<svg xmlns="http://www.w3.org/2000/svg" height="667px" version="1.1" viewBox="0 0 375 667" width="375px">
    
    <title />
    <desc>Created with Sketch.</desc>
    <defs>
        <filter filterUnits="objectBoundingBox" height="200%" id="filter-1" width="200%" x="-50%" y="-50%">
            <feGaussianBlur in="SourceGraphic" stdDeviation="50" />
        </filter>
    </defs>
    <g fill="none" fill-rule="evenodd" id="01acb463" stroke="none" stroke-width="1">
        <g id="f6929a3a">
            <rect fill="#722047" height="759" id="bbbd39a7" width="375" x="0" y="0" />
            <ellipse cx="187.5" cy="166" fill="#D8D8D8" fill-opacity="0.2" filter="url(#filter-1)" id="6def6ab0" rx="187.5" ry="261" />
            <g id="b528e406" transform="translate(0.000000, 18.000000)">
                <g id="1a284cfb">
                    <text fill="#FFFFFF" font-family=".HelveticaNeueDeskInterface-Regular, .Helvetica Neue DeskInterface" font-size="17" font-weight="normal" id="a6d130c6" letter-spacing="-0.0283333361">
                        <tspan x="155.007325" y="16">Settings</tspan>
                    </text>
                    <g fill="#FFFDFD" id="d1d7dc3a" transform="translate(14.000000, 5.000000)">
                        <g id="f3c387f5">
                            <rect height="2" id="66a860ab" rx="1" width="15" x="0" y="0" />
                            <rect height="2" id="e8c46f9f" rx="1" width="15" x="0" y="4" />
                            <rect height="2" id="7c9828a8" rx="1" width="15" x="0" y="8" />
                        </g>
                    </g>
                </g>
            </g>
            <g id="480f6994" opacity="0.5" stroke="#A75481" stroke-linecap="square" stroke-width="0.5" transform="translate(0.000000, 50.000000)">
                <path d="M0.5,0.25 L374.505348,0.25" id="607bb0d8" />
            </g>
            <text fill="#FFFFFF" font-family=".HelveticaNeueDeskInterface-Regular, .Helvetica Neue DeskInterface" font-size="15" font-weight="normal" id="373af14c" letter-spacing="-0.0250000022">
                <tspan x="14" y="89">Notification</tspan>
                <tspan x="14" y="134">About Us </tspan>
                <tspan x="14" y="179">Contact Us </tspan>
                <tspan x="14" y="224">Feedback </tspan>
                <tspan x="14" y="269">Terms &amp; Conditions</tspan>
                <tspan x="14" y="314">Logout</tspan>
            </text>
            <path d="M0.5,105.5 L374.505348,105.5" id="29712808" stroke="#979797" stroke-linecap="square" />
            <path d="M0.5,152.5 L374.505348,152.5" id="5b217686" stroke="#979797" stroke-linecap="square" />
            <path d="M0.5,198.5 L374.505348,198.5" id="1a8f199c" stroke="#979797" stroke-linecap="square" />
            <path d="M0.5,244.5 L374.505348,244.5" id="35a0113b" stroke="#979797" stroke-linecap="square" />
            <path d="M0.5,290.5 L374.505348,290.5" id="bad49424" stroke="#979797" stroke-linecap="square" />
            <polyline id="a96d4be4" points="356 121 365.10759 129.993129 356 138.975534" stroke="#979797" />
            <polyline id="715e5a54" points="356 167 365.10759 175.993129 356 184.975534" stroke="#979797" />
            <polyline id="1f8ad92d" points="356 213 365.10759 221.993129 356 230.975534" stroke="#979797" />
            <polyline id="d0640ade" points="356 257 365.10759 265.993129 356 274.975534" stroke="#979797" />
            <g id="db7c8119" transform="translate(316.000000, 65.000000)">
                <path d="M36,0.5 L16,0.5 C7.4,0.5 0.5,7.4 0.5,16 C0.5,24.6 7.4,31.5 16,31.5 L36,31.5 C44.6,31.5 51.5,24.6 51.5,16 C51.5,7.4 44.6,0.5 36,0.5 L36,0.5 Z" fill="#787878" id="2dd64c88" />
                <circle cx="36" cy="16" fill="#FFFFFF" id="c6eda3d6" r="14" />
            </g>
            <g fill="#FFFFFF" id="399f5ca8" transform="translate(314.000000, 19.000000)">
                <g id="5b21ecbd" transform="translate(0.197728, 0.319382)">
                    <g id="ad9adaf3">
                        <path d="M15.2792801,12.2577638 L15.1003025,12.1661024 C13.4162106,11.3033378 13.1284674,10.1431049 13.0844805,9.71641738 L13.0935704,5.9166801 C12.8686208,3.52901627 11.0817709,1.65147933 8.75642121,1.18271682 L8.75642121,1.08060009 C8.75647345,0.483734886 8.25752001,0 7.64347974,0 C7.02870809,0 6.53079947,0.483734886 6.53079947,1.08065084 L6.53079947,1.17200776 C4.01842709,1.66421854 2.1194681,3.82420063 2.1194681,6.40858636 C2.1194681,6.56744589 2.1422974,9.43656068 2.1443348,9.68804598 C2.08122771,10.27877 1.74108681,11.3695208 0.186604719,12.1661024 L0.00762718056,12.2577638 L0.00762718056,14.8352978 L5.34665357,14.8352978 C5.63575506,15.6067055 6.55430791,16.171342 7.64347974,16.171342 C8.73228588,16.171342 9.65089097,15.6073653 9.93999246,14.8352978 L15.2790188,14.8352978 L15.2792801,12.2577638 L15.2792801,12.2577638 L15.2792801,12.2577638 Z M14.6077747,14.1829079 L0.679132515,14.1829079 L0.679132515,12.6475534 C2.37362038,11.7077952 2.74531483,10.427225 2.81411618,9.73372444 L2.81578789,9.69982087 C2.81578789,9.69982087 2.79092119,6.57429766 2.79092119,6.40792656 C2.79092119,3.82161218 4.95646582,1.71801761 7.61824735,1.71801761 C10.1303063,1.71801761 12.1964364,3.54794745 12.4237368,5.94408718 L12.415326,9.74544857 C12.4690297,10.2921182 12.7937073,11.6435408 14.6080882,12.6468936 L14.6080882,14.1829079 L14.6077747,14.1829079 L14.6077747,14.1829079 Z" id="b2be322a" />
                        <text font-family=".HelveticaNeueDeskInterface-Regular, .Helvetica Neue DeskInterface" font-size="7" font-weight="normal" id="03890636" letter-spacing="-0.0116666667">
                            <tspan x="3.76381562" y="11.156808">15</tspan>
                        </text>
                    </g>
                </g>
            </g>
            <path d="M352.226057,32.4521139 C353.744607,32.4521139 355.125108,31.9137187 356.201898,31.0025884 L361.03365,35.8343399 C361.14409,35.94478 361.28214,36 361.433995,36 C361.58585,36 361.7239,35.94478 361.83434,35.8343399 C362.05522,35.6134599 362.05522,35.2545298 361.83434,35.0336497 L357.002588,30.2018982 C357.899914,29.1251079 358.452114,27.7308024 358.452114,26.2260569 C358.452114,22.7886109 355.663503,20 352.226057,20 C348.802416,20 346,22.8024159 346,26.2260569 C346,29.663503 348.802416,32.4521139 352.226057,32.4521139 L352.226057,32.4521139 Z M352.226057,21.1320104 C355.042278,21.1320104 357.320104,23.4236411 357.320104,26.2260569 C357.320104,29.0422778 355.042278,31.3201035 352.226057,31.3201035 C349.409836,31.3201035 347.13201,29.0284728 347.13201,26.2260569 C347.13201,23.4236411 349.423641,21.1320104 352.226057,21.1320104 L352.226057,21.1320104 Z" fill="#FFFFFF" id="088a604b" />
        </g>
    </g>
</svg>