<svg xmlns="http://www.w3.org/2000/svg" height="667px" version="1.1" viewBox="0 0 375 667" width="375px">
    
    <title />
    <desc>Created with Sketch.</desc>
    <defs>
        <filter filterUnits="objectBoundingBox" height="200%" id="filter-1" width="200%" x="-50%" y="-50%">
            <feGaussianBlur in="SourceGraphic" stdDeviation="50" />
        </filter>
    </defs>
    <g fill="none" fill-rule="evenodd" id="336faf13" stroke="none" stroke-width="1">
        <g id="7d9f084a">
            <g id="b1e77513" transform="translate(0.000000, -97.000000)">
                <rect fill="#722047" height="50.8875878" id="673cc083" width="375" x="0" y="96.1124122" />
                <ellipse cx="187.5" cy="264.056206" fill="#D8D8D8" fill-opacity="0.2" filter="url(#filter-1)" id="69c9da98" rx="187.5" ry="264.056206" />
            </g>
            <g id="a499d86f" transform="translate(10.000000, 21.000000)">
                <text fill="#FFFFFF" font-family=".HelveticaNeueDeskInterface-Regular, .Helvetica Neue DeskInterface" font-size="12" font-weight="normal" id="b79a6268" letter-spacing="-0.0200000014">
                    <tspan x="5.6497561" y="12">Back</tspan>
                </text>
                <polyline id="259fb02c" points="4.83118965 3 0 7.83118965 4.8954521 11.8101948" stroke="#FFFFFF" />
            </g>
            <path d="M0,50.25 L375,50.25" id="da492243" opacity="0.5" stroke="#A75481" stroke-linecap="square" stroke-width="0.5" />
            <g fill="#FFFFFF" id="85cb31d3" transform="translate(314.000000, 19.000000)">
                <g id="87a83a6e" transform="translate(0.197728, 0.319382)">
                    <g id="013cba50">
                        <path d="M15.2792801,12.2577638 L15.1003025,12.1661024 C13.4162106,11.3033378 13.1284674,10.1431049 13.0844805,9.71641738 L13.0935704,5.9166801 C12.8686208,3.52901627 11.0817709,1.65147933 8.75642121,1.18271682 L8.75642121,1.08060009 C8.75647345,0.483734886 8.25752001,0 7.64347974,0 C7.02870809,0 6.53079947,0.483734886 6.53079947,1.08065084 L6.53079947,1.17200776 C4.01842709,1.66421854 2.1194681,3.82420063 2.1194681,6.40858636 C2.1194681,6.56744589 2.1422974,9.43656068 2.1443348,9.68804598 C2.08122771,10.27877 1.74108681,11.3695208 0.186604719,12.1661024 L0.00762718056,12.2577638 L0.00762718056,14.8352978 L5.34665357,14.8352978 C5.63575506,15.6067055 6.55430791,16.171342 7.64347974,16.171342 C8.73228588,16.171342 9.65089097,15.6073653 9.93999246,14.8352978 L15.2790188,14.8352978 L15.2792801,12.2577638 L15.2792801,12.2577638 L15.2792801,12.2577638 Z M14.6077747,14.1829079 L0.679132515,14.1829079 L0.679132515,12.6475534 C2.37362038,11.7077952 2.74531483,10.427225 2.81411618,9.73372444 L2.81578789,9.69982087 C2.81578789,9.69982087 2.79092119,6.57429766 2.79092119,6.40792656 C2.79092119,3.82161218 4.95646582,1.71801761 7.61824735,1.71801761 C10.1303063,1.71801761 12.1964364,3.54794745 12.4237368,5.94408718 L12.415326,9.74544857 C12.4690297,10.2921182 12.7937073,11.6435408 14.6080882,12.6468936 L14.6080882,14.1829079 L14.6077747,14.1829079 L14.6077747,14.1829079 Z" id="8f712842" />
                        <text font-family=".HelveticaNeueDeskInterface-Regular, .Helvetica Neue DeskInterface" font-size="7" font-weight="normal" id="af5d0cf5" letter-spacing="-0.0116666667">
                            <tspan x="3.76381562" y="11.156808">15</tspan>
                        </text>
                    </g>
                </g>
            </g>
            <path d="M352.226057,32.4521139 C353.744607,32.4521139 355.125108,31.9137187 356.201898,31.0025884 L361.03365,35.8343399 C361.14409,35.94478 361.28214,36 361.433995,36 C361.58585,36 361.7239,35.94478 361.83434,35.8343399 C362.05522,35.6134599 362.05522,35.2545298 361.83434,35.0336497 L357.002588,30.2018982 C357.899914,29.1251079 358.452114,27.7308024 358.452114,26.2260569 C358.452114,22.7886109 355.663503,20 352.226057,20 C348.802416,20 346,22.8024159 346,26.2260569 C346,29.663503 348.802416,32.4521139 352.226057,32.4521139 L352.226057,32.4521139 Z M352.226057,21.1320104 C355.042278,21.1320104 357.320104,23.4236411 357.320104,26.2260569 C357.320104,29.0422778 355.042278,31.3201035 352.226057,31.3201035 C349.409836,31.3201035 347.13201,29.0284728 347.13201,26.2260569 C347.13201,23.4236411 349.423641,21.1320104 352.226057,21.1320104 L352.226057,21.1320104 Z" fill="#FFFFFF" id="95ee96fd" />
            <text fill="#FFFFFF" font-family=".HelveticaNeueDeskInterface-Regular, .Helvetica Neue DeskInterface" font-size="17" font-weight="normal" id="3cf25e6c" letter-spacing="-0.0283333361">
                <tspan x="127.565455" y="34">Easy Exchange</tspan>
            </text>
            <rect fill="#F6F1E7" fill-opacity="0.45" height="617" id="c7ddadb2" width="375" x="0" y="50" />
            <g id="bc967286" transform="translate(-13.000000, 186.000000)">
                <text fill="#0E0E0E" font-family=".HelveticaNeueDeskInterface-Regular, .Helvetica Neue DeskInterface" font-size="14" font-weight="normal" id="097b9b08" letter-spacing="-0.0233333353">
                    <tspan x="51" y="14">Our Goal: </tspan>
                    <tspan x="51" y="36">This exclusive feature gives complete flexibility to </tspan>
                    <tspan x="51" y="53">our customers, in case they are not satisfied with </tspan>
                    <tspan x="51" y="70">the item bought from our online store. They may </tspan>
                    <tspan x="51" y="87">choose to return this product either to any of our </tspan>
                    <tspan x="51" y="104">store in India or at our online store. If customers </tspan>
                    <tspan x="51" y="121">exchange the product within 14 days, they can </tspan>
                    <tspan x="51" y="138">avail 100% invoice value as the exchange value </tspan>
                    <tspan x="51" y="155">after 14 days or they may also choose to </tspan>
                    <tspan x="51" y="172">exchange later at any point of time at the current </tspan>
                    <tspan x="51" y="189">market rate.</tspan>
                    <tspan x="51" y="221">For instance, </tspan>
                    <tspan x="51" y="243">if you buy a platinum bracelet from us but are not </tspan>
                    <tspan x="51" y="260">pleased with the final product, you can always </tspan>
                    <tspan x="51" y="277">exchange it from a nearby Malabar Gold &amp; </tspan>
                    <tspan x="51" y="294">Diamonds showroom or opt to exchange it from </tspan>
                    <tspan x="51" y="311">our online store, malabargoldanddiamonds.com.</tspan>
                    <tspan x="51" y="343">How to Do: </tspan>
                    <tspan x="51" y="365">You can visit any of our stores in India and get </tspan>
                    <tspan x="51" y="382">your jewellery exchanged. Find your nearby </tspan>
                    <tspan x="51" y="399">Malabar Gold and Diamonds store by visiting link </tspan>
                    <tspan x="51" y="416">store locator in footer section of our website.</tspan>
                </text>
                <polygon fill="#942361" id="46bbdf3a" points="38 6 41 12 35 12" transform="translate(38.000000, 9.000000) rotate(90.000000) translate(-38.000000, -9.000000) " />
                <polygon fill="#942361" id="224be4df" points="38 196 41 202 35 202" transform="translate(38.000000, 199.000000) rotate(90.000000) translate(-38.000000, -199.000000) " />
            </g>
            <g id="112e643c" transform="translate(135.000000, 61.000000)">
                <ellipse cx="54.4501669" cy="54.2468173" fill="#FFFFFF" id="075b9f92" rx="54.4501669" ry="54.2468173" stroke="#A8976D" stroke-width="3" />
                <path d="M44.6807307,55.5047304 C44.6807307,55.5047304 37.5876055,43.2420399 49.4790213,39.50088 C49.4790213,39.50088 54.4859332,38.0459846 57.6152531,43.8655665 L52.8169625,46.359673 L70.1325329,51.9714128 C70.1325329,51.9714128 71.3842608,52.5949394 71.8015035,51.3478861 L77.851522,34.512667 L73.2618528,36.7989313 C73.2618528,36.7989313 59.0756024,23.4970297 44.6807307,30.1479805 C44.6807307,30.1479805 23.6099765,37.4224579 29.2427524,62.3635234 C29.2427524,62.1556812 31.1203443,49.269464 44.6807307,55.5047304 Z" fill="#A8976D" id="a0df20eb" />
                <path d="M78.3548333,44 C77.1031053,62.4979569 63.1254762,54.5999528 63.1254762,54.5999528 C63.1254762,54.5999528 70.4272228,68.7332232 58.1185643,71.2273298 C58.1185643,71.2273298 51.6513031,71.8508564 49.5650899,66.8626433 L54.5720018,64.3685368 L36.6305675,58.5489548 C36.6305675,58.5489548 35.1702181,57.9254282 34.5443542,59.3803237 L28.2857143,76.8390695 L33.0840049,74.344963 C33.0840049,74.344963 47.6874979,88.062549 62.9168549,80.9959137 C62.9168549,81.203756 87.1169291,72.6822253 78.3548333,44" fill="#A8976D" id="864d0f7c" />
            </g>
            <g id="0de6e785" transform="translate(-1.000000, 509.000000)">
                <rect fill="#F6F1E7" height="126" id="aa0970ff" width="382.826913" x="0" y="31" />
                <g id="9b1ee639" transform="translate(13.000000, 42.000000)">
                    <g fill="#010101" font-family=".HelveticaNeueDeskInterface-Regular, .Helvetica Neue DeskInterface" font-size="7" font-weight="normal" id="3fae83cc" letter-spacing="-0.0116666658" transform="translate(0.301370, 98.000000)">
                        <g id="1d463fa4" opacity="0.3" transform="translate(257.684932, 0.000000)">
                            <text id="d1424604">
                                <tspan x="20.3956629" y="7">Easy Exchange</tspan>
                            </text>
                        </g>
                        <g id="df512401">
                            <text id="6e145402">
                                <tspan x="6.32294046" y="7">Only Certified Jewellery</tspan>
                            </text>
                        </g>
                        <g id="d262990a" transform="translate(132.534247, 0.000000)">
                            <text id="914e1491">
                                <tspan x="10.2362727" y="7">Product Detail Pricing</tspan>
                            </text>
                        </g>
                    </g>
                    <g fill="#010101" font-family=".HelveticaNeueDeskInterface-Regular, .Helvetica Neue DeskInterface" font-size="7" font-weight="normal" id="073f4069" letter-spacing="-0.0116666658" transform="translate(12.849315, 38.000000)">
                        <g id="f3bae60a" transform="translate(260.739726, 0.000000)">
                            <text id="8044bc8f">
                                <tspan x="3.24669757" y="7">14 Days Return</tspan>
                            </text>
                        </g>
                        <g id="b555058a" transform="translate(123.068493, 0.000000)">
                            <text id="8631c784">
                                <tspan x="5.16015758" y="7">Free Product Insurance</tspan>
                            </text>
                        </g>
                        <g id="3c00d299">
                            <text id="df8a345a">
                                <tspan x="12.1984956" y="7">Lifetime Product </tspan>
                                <tspan x="26.510081" y="15">Service</tspan>
                            </text>
                        </g>
                    </g>
                    <g id="df222603" stroke="#A8976D" transform="translate(160.000000, 0.000000)">
                        <ellipse cx="17.4578121" cy="17.260351" fill="#FFFFFF" id="1b5cd1be" rx="17.3250531" ry="17.260351" />
                        <path d="M7.36812603,15.0780077 C7.36812603,15.0780077 9.89054756,5.48892387 19.7147156,7.40674065 C19.7147156,7.40674065 25.8216309,8.39871484 27.6138777,15.0780077 C27.6138777,15.0780077 25.2905948,12.1682168 23.6974864,15.540929 C23.6974864,15.540929 21.3078239,12.1020852 19.5155771,15.540929 C19.5155771,15.540929 17.7897097,11.9698219 15.4000472,15.540929 C15.4000472,15.540929 13.8069389,12.3666116 11.2181378,15.540929 C11.2845173,15.540929 10.2888246,12.4327432 7.36812603,15.0780077 Z" fill="#A8976D" id="a0387a3e" />
                        <path d="M17.4578121,14.2182968 L17.4578121,26.1219871 C17.4578121,26.1219871 17.3250531,27.4446194 16.2629809,27.0478297 C16.2629809,27.0478297 15.7319448,26.7171716 15.7983243,25.8574607" id="c0e8d322" />
                    </g>
                    <g id="497e6598" transform="translate(160.000000, 60.000000)">
                        <ellipse cx="17.3250531" cy="17.260351" fill="#FFFFFF" id="d0edf275" rx="17.3250531" ry="17.260351" stroke="#A8976D" />
                        <path d="M26.1689875,27.3987148 C26.1689875,27.3987148 28.0939934,27.6632413 27.7620958,25.5470297 L20.1948312,19 L19,20.190369 L26.1689875,27.3987148 Z" fill="#A8976D" id="ae0fcd70" />
                        <g id="6b91e266" transform="translate(8.000000, 9.000000)">
                            <ellipse cx="6.90346944" cy="6.87768774" fill="#A8976D" id="087cc84f" rx="6.90346944" ry="6.87768774" />
                            <ellipse cx="6.64225867" cy="6.6211871" fill="#FFFFFF" id="0e341fe8" rx="5.64225867" ry="5.6211871" />
                        </g>
                    </g>
                    <g id="8035d95c" transform="translate(284.000000, 0.000000)">
                        <ellipse cx="17.3250531" cy="17.260351" fill="#FFFFFF" id="993e58ca" rx="17.3250531" ry="17.260351" stroke="#A8976D" />
                        <g id="4e9a077a" transform="translate(8.325053, 7.760351)">
                            <g fill="#A8976D" id="2fec407a">
                                <path d="M0,16.2612221 L0,4.2914002 C0,4.2914002 0,1.64613568 3.18621666,2.17518859 L3.18621666,4.02687375 C3.18621666,4.02687375 4.51380694,5.8124273 6.04053576,4.15913697 L6.04053576,2.04292536 L11.0853788,2.04292536 L11.0853788,3.7623473 C11.0853788,3.7623473 12.0810715,5.61403246 14.0724569,4.09300536 L14.0724569,2.10905697 C14.0724569,2.10905697 17.3914326,1.24934601 17.3914326,4.35753181 L17.3914326,16.5257486 C17.3914326,16.5257486 17.5241916,18.0467757 15.2672882,18.0467757 L1.52672882,18.0467757 C1.52672882,18.1790389 0,18.1790389 0,16.2612221 Z" id="81626d81" stroke="#A8976D" />
                                <path d="M4.66379514,0 C4.99569271,0 5.32759028,0.264526452 5.32759028,0.661316129 L5.32759028,2.84365936 C5.32759028,3.17431742 5.06207222,3.50497548 4.66379514,3.50497548 L4.66379514,3.50497548 C4.33189757,3.50497548 4,3.24044903 4,2.84365936 L4,0.661316129 C4,0.264526452 4.26551806,0 4.66379514,0 L4.66379514,0 Z" id="4b1e22f0" />
                            </g>
                            <rect fill="#FFFFFF" height="9.85361033" id="be21b768" width="14.8690111" x="1" y="7" />
                            <text fill="#A8976D" font-family="Helvetica" font-size="11.2687" font-weight="normal" id="de45f457">
                                <tspan x="2" y="16">14</tspan>
                            </text>
                        </g>
                    </g>
                    <g id="a707be95" opacity="0.3" transform="translate(284.000000, 60.000000)">
                        <ellipse cx="17.3250531" cy="17.260351" fill="#FFFFFF" id="be39d234" rx="17.3250531" ry="17.260351" stroke="#A8976D" />
                        <path d="M14.2165961,17.660596 C14.2165961,17.660596 11.9596927,13.7588309 15.743325,12.5684618 C15.743325,12.5684618 17.3364333,12.1055405 18.332126,13.9572257 L16.8053972,14.7508051 L22.3148968,16.5363586 C22.3148968,16.5363586 22.7131739,16.7347534 22.8459329,16.3379638 L24.7709388,10.9813031 L23.3105895,11.7087509 C23.3105895,11.7087509 18.7967826,7.47632764 14.2165961,9.59253925 C14.2165961,9.59253925 7.51226524,11.9071457 9.30451211,19.8429393 C9.30451211,19.7768076 9.90192774,15.6766476 14.2165961,17.660596 Z" fill="#A8976D" id="592f4ff2" />
                        <path d="M24.9310833,14 C24.5328062,19.8857136 20.0853788,17.3727123 20.0853788,17.3727123 C20.0853788,17.3727123 22.4086618,21.8696619 18.4922705,22.6632413 C18.4922705,22.6632413 16.4345055,22.8616361 15.7707104,21.2744774 L17.3638187,20.4808981 L11.6551806,18.6292129 C11.6551806,18.6292129 11.190524,18.4308181 10.9913854,18.8937394 L9,24.4487948 L10.5267288,23.6552155 C10.5267288,23.6552155 15.1732948,28.0199019 20.0189993,25.7714271 C20.0189993,25.8375587 27.7190229,23.1261626 24.9310833,14" fill="#A8976D" id="801d93ec" />
                    </g>
                    <g id="2c42eaf4" transform="translate(31.000000, 0.000000)">
                        <ellipse cx="17.5905712" cy="17.260351" fill="#FFFFFF" id="e5baa252" rx="17.3250531" ry="17.260351" stroke="#A8976D" />
                        <rect fill="#A8976D" height="4.6292129" id="1c287077" width="7.76640312" x="9.02761388" y="13.5569806" />
                        <rect fill="#A8976D" height="4.6292129" id="3726c6c8" width="7.76640312" x="18.0552278" y="13.5569806" />
                        <rect fill="#A8976D" height="6.67929291" id="a8e63489" width="6.57157187" x="10.2888246" y="19.5088258" />
                        <rect fill="#A8976D" height="6.67929291" id="4f41ab8e" width="6.57157187" x="18.0552278" y="19.5088258" />
                        <path d="M14.337975,13.4247174 C14.337975,13.4247174 10.4215837,12.9617961 11.4172764,9.85361033 C11.4172764,9.85361033 11.6827944,9.1922942 12.3465896,8.59710968 C13.4086618,7.6712671 15.2672882,7.07608258 16.5284989,9.85361033 C16.5284989,9.85361033 16.794017,10.3165316 17.1259146,12.6972697 L18.1216073,12.6972697 C18.1216073,12.6972697 17.9888482,8.72937291 20.7104083,7.93579355 C20.7104083,7.93579355 22.1043781,7.53900387 23.1664503,8.79550452 C23.6311069,9.39068904 24.2949021,10.7794529 23.4983479,11.8375587 C23.5647274,11.8375587 22.1043781,14.35056 14.337975,13.4247174 Z" fill="#A8976D" id="5a648830" />
                        <path d="M15.9310833,12.4327432 C15.9310833,12.4327432 15.9310833,9.32455742 13.9396979,9.25842581 C13.9396979,9.25842581 12.6121076,9.25842581 12.2802101,10.9117161 C12.2802101,10.9117161 12.0810715,12.6972697 15.9310833,12.4327432 Z" fill="#FFFFFF" id="2b8ef9f8" />
                        <path d="M19.3164385,12.4327432 C19.3164385,12.4327432 21.9052396,12.9617961 22.7017937,11.110111 C22.7017937,11.110111 23.1000708,9.91974194 21.7724805,9.25842581 C21.7724805,9.25842581 19.5819566,8.46484645 19.3164385,12.4327432 Z" fill="#FFFFFF" id="97f8506c" />
                    </g>
                    <g id="652c5784" transform="translate(31.000000, 60.000000)">
                        <ellipse cx="17.3250531" cy="17.260351" fill="#FFFFFF" id="08195819" rx="17.3250531" ry="17.260351" stroke="#A8976D" />
                        <g id="1c2d26c2" transform="translate(10.000000, 9.000000)">
                            <path d="M12.6784871,0.396789678 L1.12845173,0.396789678 C1.12845173,0.396789678 0.132759028,0.396789678 0.132759028,1.19036903 L0.132759028,16.5329032 L9.42589096,16.5329032 L9.42589096,15.7393239 L1.19483125,15.7393239 L1.19483125,1.5210271 L10.8862403,1.5210271 L10.8862403,5.68731871 C10.8862403,5.68731871 11.4172764,5.15826581 12.6121076,5.29052903 L12.6121076,0.396789678 L12.6784871,0.396789678 Z" fill="#A8976D" id="3f3c6f5d" />
                            <path d="M10.4215837,16.2683768 L10.4215837,11.7714271 L11.0853788,11.2423742 C11.0853788,11.2423742 12.3465896,12.1020852 13.5414208,11.6391639 L14.5371135,11.6391639 L14.5371135,16.2683768 L12.4793486,14.8796129 L10.4215837,16.2683768 Z" fill="#A8976D" id="e6a2a6df" />
                            <path d="M12.4793486,6.21637161 C14.2715955,6.21637161 15.6655653,7.60513549 15.6655653,9.39068904 C15.6655653,11.110111 14.205216,12.5650065 12.4793486,12.5650065 C10.6871017,12.5650065 9.29313193,11.110111 9.29313193,9.39068904 C9.29313193,7.60513549 10.6871017,6.21637161 12.4793486,6.21637161" fill="#A8976D" id="fab545f4" />
                            <rect fill="#A8976D" height="0.991974194" id="5a3da455" width="6.63795138" x="2.52242152" y="2.90979097" />
                            <rect fill="#A8976D" height="0.991974194" id="fd759614" width="6.63795138" x="2.52242152" y="4.36468645" />
                            <path d="M12.4793486,7.34060903 C13.6078003,7.34060903 14.5371135,8.26645162 14.5371135,9.39068904 C14.5371135,10.5149265 13.6078003,11.440769 12.4793486,11.440769 C11.3508969,11.440769 10.4215837,10.5149265 10.4215837,9.39068904 C10.4215837,8.26645162 11.3508969,7.34060903 12.4793486,7.34060903" fill="#FFFFFF" id="4eea8335" />
                            <ellipse cx="12.4129691" cy="9.39068904" fill="#A8976D" id="7f6e5926" rx="0.995692707" ry="0.991974194" />
                        </g>
                    </g>
                </g>
                <g font-family=".HelveticaNeueDeskInterface-Regular, .Helvetica Neue DeskInterface" font-weight="normal" id="63e0e2ae" transform="translate(11.356164, 0.000000)">
                    <text fill="#7B3154" font-size="8" id="973931e1" letter-spacing="-0.0133333318">
                        <tspan x="0" y="25">Exclusive benefits when you purchase from online</tspan>
                    </text>
                    <text fill="#7A3054" font-size="16" id="af2600fb" letter-spacing="-0.0266666636">
                        <tspan x="0" y="15">MALABAR</tspan>
                        <tspan letter-spacing="-0.0328205079" x="76.9027642" y="15"> ASSURANCE</tspan>
                    </text>
                </g>
            </g>
        </g>
    </g>
</svg>