<?xml version="1.0" encoding="UTF-8" standalone="no"?>
<svg width="375px" height="667px" viewBox="0 0 375 667" version="1.1" xmlns="http://www.w3.org/2000/svg" xmlns:xlink="http://www.w3.org/1999/xlink">
    <!-- Generator: Sketch 41.2 (35397) - http://www.bohemiancoding.com/sketch -->
    <title></title>
    <desc>Created with Sketch.</desc>
    <defs>
        <filter x="-50%" y="-50%" width="200%" height="200%" filterUnits="objectBoundingBox" id="filter-1">
            <feGaussianBlur stdDeviation="50" in="SourceGraphic"></feGaussianBlur>
        </filter>
    </defs>
    <g id="Page-1" stroke="none" stroke-width="1" fill="none" fill-rule="evenodd">
        <g id="About-Us">
            <rect id="Rectangle-28" fill-opacity="0.45" fill="#F6F1E7" x="0" y="50" width="375" height="617"></rect>
            <text id="Malabar-Gold-&amp;-Diamo" font-family=".HelveticaNeueDeskInterface-Regular, .Helvetica Neue DeskInterface" font-size="15" font-weight="normal" letter-spacing="-0.0250000022" fill="#0E0E0E">
                <tspan x="20" y="87">Malabar Gold &amp; Diamonds, one of the most </tspan>
                <tspan x="20" y="104">trusted jewellery brands is the flagship company </tspan>
                <tspan x="20" y="121">of the Malabar Group of Companies, a fastest </tspan>
                <tspan x="20" y="138">growing business conglomerate of India. </tspan>
                <tspan x="20" y="165">Malabar Gold &amp; Diamonds is a trendsetter in the </tspan>
                <tspan x="20" y="182">retail gold industry having above 150 showrooms </tspan>
                <tspan x="20" y="199">across India, Singapore and the GCC. </tspan>
                <tspan x="20" y="226">We sell only BIS Hallmarked 916 Gold, IGI </tspan>
                <tspan x="20" y="243">Certified Diamond jewellery, PGI certified </tspan>
                <tspan x="20" y="260">Platinum jewellery and hallmarked silver </tspan>
                <tspan x="20" y="277">jewellery. All products come with a detailed and </tspan>
                <tspan x="20" y="294">transparent price tag with details like gross </tspan>
                <tspan x="20" y="311">weight, stone weight, making charge, stone </tspan>
                <tspan x="20" y="328">charge and net weight. </tspan>
                <tspan x="20" y="355">Our value-added services include lifelong free </tspan>
                <tspan x="20" y="372">maintenance, one-year free insurance coverage </tspan>
                <tspan x="20" y="389">and buy-back guarantee for all ornaments.</tspan>
            </text>
            <g id="Group-3-Copy" transform="translate(0.000000, -97.000000)">
                <rect id="Rectangle-3" fill="#722047" x="0" y="96.1124122" width="375" height="50.8875878"></rect>
                <ellipse id="Oval-10" fill-opacity="0.2" fill="#D8D8D8" filter="url(#filter-1)" cx="187.5" cy="264.056206" rx="187.5" ry="264.056206"></ellipse>
            </g>
            <g id="Group-2-Copy" transform="translate(10.000000, 21.000000)">
                <text id="Back" font-family=".HelveticaNeueDeskInterface-Regular, .Helvetica Neue DeskInterface" font-size="12" font-weight="normal" letter-spacing="-0.0200000014" fill="#FFFFFF">
                    <tspan x="5.6497561" y="12">Back</tspan>
                </text>
                <polyline id="Path-3" stroke="#FFFFFF" points="4.83118965 3 0 7.83118965 4.8954521 11.8101948"></polyline>
            </g>
            <path d="M0,50.25 L375,50.25" id="Line-Copy-4" stroke="#A75481" stroke-width="0.5" stroke-linecap="square" opacity="0.5"></path>
            <g id="Group-Copy-2" transform="translate(314.000000, 19.000000)" fill="#FFFFFF">
                <g id="bell" transform="translate(0.197728, 0.319382)">
                    <g id="Group-2">
                        <path d="M15.2792801,12.2577638 L15.1003025,12.1661024 C13.4162106,11.3033378 13.1284674,10.1431049 13.0844805,9.71641738 L13.0935704,5.9166801 C12.8686208,3.52901627 11.0817709,1.65147933 8.75642121,1.18271682 L8.75642121,1.08060009 C8.75647345,0.483734886 8.25752001,0 7.64347974,0 C7.02870809,0 6.53079947,0.483734886 6.53079947,1.08065084 L6.53079947,1.17200776 C4.01842709,1.66421854 2.1194681,3.82420063 2.1194681,6.40858636 C2.1194681,6.56744589 2.1422974,9.43656068 2.1443348,9.68804598 C2.08122771,10.27877 1.74108681,11.3695208 0.186604719,12.1661024 L0.00762718056,12.2577638 L0.00762718056,14.8352978 L5.34665357,14.8352978 C5.63575506,15.6067055 6.55430791,16.171342 7.64347974,16.171342 C8.73228588,16.171342 9.65089097,15.6073653 9.93999246,14.8352978 L15.2790188,14.8352978 L15.2792801,12.2577638 L15.2792801,12.2577638 L15.2792801,12.2577638 Z M14.6077747,14.1829079 L0.679132515,14.1829079 L0.679132515,12.6475534 C2.37362038,11.7077952 2.74531483,10.427225 2.81411618,9.73372444 L2.81578789,9.69982087 C2.81578789,9.69982087 2.79092119,6.57429766 2.79092119,6.40792656 C2.79092119,3.82161218 4.95646582,1.71801761 7.61824735,1.71801761 C10.1303063,1.71801761 12.1964364,3.54794745 12.4237368,5.94408718 L12.415326,9.74544857 C12.4690297,10.2921182 12.7937073,11.6435408 14.6080882,12.6468936 L14.6080882,14.1829079 L14.6077747,14.1829079 L14.6077747,14.1829079 Z" id="Shape"></path>
                        <text id="15" font-family=".HelveticaNeueDeskInterface-Regular, .Helvetica Neue DeskInterface" font-size="7" font-weight="normal" letter-spacing="-0.0116666667">
                            <tspan x="3.76381562" y="11.156808">15</tspan>
                        </text>
                    </g>
                </g>
            </g>
            <path d="M352.226057,32.4521139 C353.744607,32.4521139 355.125108,31.9137187 356.201898,31.0025884 L361.03365,35.8343399 C361.14409,35.94478 361.28214,36 361.433995,36 C361.58585,36 361.7239,35.94478 361.83434,35.8343399 C362.05522,35.6134599 362.05522,35.2545298 361.83434,35.0336497 L357.002588,30.2018982 C357.899914,29.1251079 358.452114,27.7308024 358.452114,26.2260569 C358.452114,22.7886109 355.663503,20 352.226057,20 C348.802416,20 346,22.8024159 346,26.2260569 C346,29.663503 348.802416,32.4521139 352.226057,32.4521139 L352.226057,32.4521139 Z M352.226057,21.1320104 C355.042278,21.1320104 357.320104,23.4236411 357.320104,26.2260569 C357.320104,29.0422778 355.042278,31.3201035 352.226057,31.3201035 C349.409836,31.3201035 347.13201,29.0284728 347.13201,26.2260569 C347.13201,23.4236411 349.423641,21.1320104 352.226057,21.1320104 L352.226057,21.1320104 Z" id="Shape-Copy-2" fill="#FFFFFF"></path>
            <text id="Settings-Copy-2" font-family=".HelveticaNeueDeskInterface-Regular, .Helvetica Neue DeskInterface" font-size="17" font-weight="normal" letter-spacing="-0.0283333361" fill="#FFFFFF">
                <tspan x="150.524093" y="34">About Us</tspan>
            </text>
        </g>
    </g>
</svg>