<svg xmlns="http://www.w3.org/2000/svg" xmlns:xlink="http://www.w3.org/1999/xlink" height="667px" version="1.1" viewBox="0 0 375 667" width="375px">
    
    <title />
    <desc>Created with Sketch.</desc>
    <defs>
        <rect height="11" id="path-1" rx="5.5" width="23" x="0" y="1" />
        <mask fill="white" height="11" id="mask-2" maskContentUnits="userSpaceOnUse" maskUnits="objectBoundingBox" width="23" x="0" y="0">
            <use xlink:href="#path-1" />
        </mask>
        <rect height="14" id="path-3" width="10.4" x="0" y="0" />
        <mask fill="white" height="14" id="mask-4" maskContentUnits="userSpaceOnUse" maskUnits="objectBoundingBox" width="10.4" x="0" y="0">
            <use xlink:href="#path-3" />
        </mask>
    </defs>
    <g fill="none" fill-rule="evenodd" id="d965b864" stroke="none" stroke-width="1">
        <g id="6857fda8">
            <rect fill="#722047" height="739" id="964e3ecd" width="375" x="1" y="-2" />
            <g fill="#D8D8D8" id="93d58f25" opacity="0.3" transform="translate(240.000000, 0.000000)">
                <rect height="667" id="badcd81d" width="135" x="0" y="0" />
            </g>
            <g id="1ce200c6" opacity="0.3" transform="translate(27.000000, 271.000000)" />
            <g fill="#FCFCFC" id="f73ed7f0" transform="translate(245.000000, 8.000000)">
                <rect height="2" id="2f5c94d4" rx="1" width="15" x="0" y="0" />
                <rect height="2" id="5de1d5c2" rx="1" width="15" x="0" y="4" />
                <rect height="2" id="35d86b76" rx="1" width="15" x="0" y="8" />
            </g>
            <g id="7efeb614" transform="translate(205.000000, 93.000000)">
                <use fill="#FFFFFF" id="b4373f1f" mask="url(#mask-2)" opacity="0.8" stroke="#6F0F43" stroke-width="0.5" xlink:href="#path-1" />
                <text fill="#911B5B" font-family=".HelveticaNeueDeskInterface-Regular, .Helvetica Neue DeskInterface" font-size="10" font-weight="normal" id="3a02103a" letter-spacing="-0.0166666675">
                    <tspan x="8.68313008" y="10">1</tspan>
                    <tspan x="8.68313008" y="22">5</tspan>
                </text>
            </g>
            <text fill="#FFFFFF" font-family=".HelveticaNeueDeskInterface-Regular, .Helvetica Neue DeskInterface" font-size="13" font-weight="normal" id="bbab5336" letter-spacing="-0.0216666684">
                <tspan x="47" y="104">Notifications</tspan>
                <tspan x="47" y="135">Gold Rate</tspan>
                <tspan x="47" y="166">Store Locator</tspan>
                <tspan letter-spacing="-0.0938888937" x="47" y="197">Book an Appointment</tspan>
                <tspan letter-spacing="-0.0938888937" x="47" y="228">Schemes</tspan>
                <tspan letter-spacing="-0.0938888937" x="47" y="259">Offers</tspan>
                <tspan letter-spacing="-0.0938888937" x="47" y="290">Brands</tspan>
                <tspan letter-spacing="-0.0938888937" x="47" y="321">Product Catalog</tspan>
                <tspan letter-spacing="-0.0938888937" x="47" y="352">My Account</tspan>
                <tspan letter-spacing="-0.0938888937" x="47" y="383">      Profile      </tspan>
                <tspan letter-spacing="-0.0938888937" x="47" y="411">      Link an Account</tspan>
                <tspan letter-spacing="-0.0938888937" x="47" y="439">      Advance Payment</tspan>
                <tspan letter-spacing="-0.0938888937" x="47" y="467">      Custom Design Orders</tspan>
                <tspan letter-spacing="-0.0938888937" x="47" y="495">      Invoices</tspan>
                <tspan letter-spacing="-0.0938888937" x="47" y="523">      Schemes</tspan>
                <tspan letter-spacing="-0.0938888937" x="47" y="551">      Gift Vouchers</tspan>
                <tspan letter-spacing="-0.0938888937" x="47" y="579">Settings</tspan>
                <tspan letter-spacing="-0.0938888937" x="47" y="605">Register Now</tspan>
            </text>
            <g fill="#FFFFFF" id="bf732397" transform="translate(27.000000, 93.000000)">
                <g id="059fcb72" transform="translate(0.197728, 0.319382)">
                    <g id="1f993aa6">
                        <path d="M13.2287402,10.6119018 L13.0737942,10.5325479 C11.6158269,9.78562753 11.3667193,8.78118027 11.3286385,8.41178446 L11.3365079,5.12224165 C11.1417626,3.05517179 9.59483477,1.42973357 7.58171203,1.02391227 L7.58171203,0.935506853 C7.58175726,0.418783327 7.14979879,0 6.61820631,0 C6.08598065,0 5.65492671,0.418783327 5.65492671,0.935550792 L5.65492671,1.01464113 C3.47989304,1.44076228 1.83590914,3.31072145 1.83590914,5.54809916 C1.83590914,5.68562847 1.85567313,8.1695044 1.85743696,8.38722252 C1.80280333,8.89862941 1.50833348,9.84292408 0.162573229,10.5325479 L0.00762718056,10.6119018 L0.00762718056,12.8433478 L4.62977725,12.8433478 C4.88006079,13.5111778 5.67527865,14 6.61820631,14 C7.56081738,14 8.35608046,13.511749 8.60636401,12.8433478 L13.2285141,12.8433478 L13.2287402,10.6119018 L13.2287402,10.6119018 L13.2287402,10.6119018 Z M12.6473986,12.2785549 L0.588968834,12.2785549 L0.588968834,10.9493539 C2.05593615,10.135778 2.37772282,9.02715121 2.43728614,8.42676768 L2.43873339,8.39741638 C2.43873339,8.39741638 2.41720557,5.69156025 2.41720557,5.54752796 C2.41720557,3.30848056 4.29198039,1.4873377 6.5963619,1.4873377 C8.77112421,1.4873377 10.559833,3.07156106 10.7566135,5.14596875 L10.7493321,8.43691761 C10.7958249,8.91018539 11.0769077,10.0801512 12.6476699,10.9487827 L12.6476699,12.2785549 L12.6473986,12.2785549 L12.6473986,12.2785549 Z" id="d07b8998" />
                    </g>
                </g>
            </g>
            <g fill="#9E9068" id="84115f14" transform="translate(27.000000, 17.000000)">
                <path d="M15.5656122,14.1640018 C15.5656122,7.09684788 21.2948264,1.36820466 28.3614093,1.36820466 C35.4285633,1.36820466 41.1577775,7.09684788 41.1577775,14.1640018 C41.1577775,21.2311558 35.4285633,26.959799 28.3614093,26.959799 C21.2948264,26.959799 15.5656122,21.2311558 15.5656122,14.1640018 M28.3614093,0.000571037003 C20.5393444,0.000571037003 14.1979785,6.34193696 14.1979785,14.1640018 C14.1979785,21.9860667 20.5393444,28.3274326 28.3614093,28.3274326 C36.1840452,28.3274326 42.5254111,21.9860667 42.5254111,14.1640018 C42.5254111,6.34193696 36.1840452,0.000571037003 28.3614093,0.000571037003" id="935cf724" />
                <path d="M27.46254,16.5007995 C27.46254,16.9976016 27.8651211,17.3996117 28.3619233,17.3996117 C28.8581544,17.3996117 29.2607355,16.9976016 29.2607355,16.5007995 C29.2607355,16.0039973 28.8581544,15.6014162 28.3619233,15.6014162 C27.8651211,15.6014162 27.46254,16.0039973 27.46254,16.5007995 L27.46254,16.5007995 Z M35.0567611,6.27695295 C34.993947,6.27695295 34.9351302,6.30207857 34.8917314,6.34490635 L28.3487894,12.882709 L21.8092736,6.34604842 C21.7658748,6.30264961 21.706487,6.27695295 21.6425308,6.27695295 L20.7231613,6.27695295 C20.5929648,6.27695295 20.487323,6.38259479 20.487323,6.51279123 L20.487323,21.8148698 C20.487323,21.9450662 20.5929648,22.0507081 20.7231613,22.0507081 L21.5957058,22.0507081 C21.7259022,22.0507081 21.8315441,21.9450662 21.8315441,21.8148698 L21.8315441,8.25788031 L27.4031521,13.8283463 L25.7568524,15.474646 C26.8663773,15.474646 27.6230014,15.5014847 28.3493604,14.7739836 C29.0757195,15.5014847 29.8323435,15.474646 30.9412974,15.474646 L29.2949977,13.8283463 L34.8683189,8.2515989 L34.8683189,21.8148698 C34.8683189,21.9450662 34.9739607,22.0507081 35.1041571,22.0507081 L36.0001142,22.0507081 C36.1303106,22.0507081 36.2359525,21.9450662 36.2359525,21.8148698 L36.2359525,6.51279123 C36.2359525,6.38259479 36.1303106,6.27695295 36.0001142,6.27695295 L35.0567611,6.27695295 Z" id="7376de47" />
                <path d="M6.97573093,35.7443467 L6.46807903,35.7443467 C6.43381681,35.7443467 6.40183874,35.7614778 6.38242348,35.7900297 L3.55693239,39.9523184 L0.731441297,35.7900297 C0.712026039,35.7614778 0.680047967,35.7443467 0.645785747,35.7443467 L0.138133851,35.7443467 C0.0810301508,35.7443467 0.0347761535,35.7906007 0.0347761535,35.8477044 L0.0347761535,43.0998744 C0.0347761535,43.1569781 0.0810301508,43.2032321 0.138133851,43.2032321 L0.656064413,43.2032321 C0.71373915,43.2032321 0.759993148,43.1569781 0.759993148,43.0998744 L0.759993148,37.1348218 L3.44044084,41.0344335 C3.4598561,41.0629854 3.49183417,41.0795455 3.52609639,41.0795455 L3.56721106,41.0795455 C3.60147328,41.0795455 3.63345135,41.0629854 3.65286661,41.0344335 L6.3333143,37.1348218 L6.3333143,43.0998744 C6.3333143,43.1569781 6.3795683,43.2032321 6.43724303,43.2032321 L6.97573093,43.2032321 C7.03283463,43.2032321 7.07908862,43.1569781 7.07908862,43.0998744 L7.07908862,35.8477044 C7.07908862,35.7906007 7.03283463,35.7443467 6.97573093,35.7443467" id="83a621ea" />
                <path d="M13.0157035,35.7526268 C12.9985724,35.7160804 12.962026,35.6926679 12.9214824,35.6926679 L12.4035519,35.6926679 C12.3635793,35.6926679 12.3264619,35.7160804 12.3099018,35.7526268 L8.93221791,43.05619 C8.91737095,43.0881681 8.92022613,43.1258566 8.93907035,43.1555505 C8.95791457,43.1852444 8.99103472,43.2035176 9.02643901,43.2035176 L9.58605528,43.2035176 C9.6265989,43.2035176 9.66314527,43.179534 9.68027638,43.1424166 L10.5745203,41.17291 L14.7196779,41.17291 L15.6139219,43.1424166 C15.631053,43.179534 15.6675994,43.2035176 15.708714,43.2035176 L16.2991663,43.2035176 C16.3345706,43.2035176 16.3671197,43.1852444 16.3859639,43.1555505 C16.4053792,43.1258566 16.4076633,43.0881681 16.3928164,43.05619 L13.0157035,35.7526268 Z M14.3976131,40.478529 L10.8971562,40.478529 L12.6519529,36.6365921 L14.3976131,40.478529 Z" id="d9f5116e" />
                <path d="M23.1460713,42.498915 L18.9917771,42.498915 L18.9917771,35.8480471 C18.9917771,35.7909434 18.9455231,35.7441183 18.8884194,35.7441183 L18.3493604,35.7441183 C18.2922567,35.7441183 18.2460027,35.7909434 18.2460027,35.8480471 L18.2460027,43.099646 C18.2460027,43.1567497 18.2922567,43.2035747 18.3493604,43.2035747 L23.1460713,43.2035747 C23.203175,43.2035747 23.249429,43.1567497 23.249429,43.099646 L23.249429,42.6022727 C23.249429,42.545169 23.203175,42.498915 23.1460713,42.498915" id="05dfdc3a" />
                <path d="M28.7217337,35.7526268 C28.7046026,35.7160804 28.6680562,35.6926679 28.6275126,35.6926679 L28.109582,35.6926679 C28.0696094,35.6926679 28.032492,35.7160804 28.0159319,35.7526268 L24.6382481,43.05619 C24.6234011,43.0881681 24.6262563,43.1258566 24.6451005,43.1555505 C24.6639447,43.1852444 24.6970649,43.2035176 24.7324692,43.2035176 L25.2920854,43.2035176 C25.3326291,43.2035176 25.3691754,43.179534 25.3863065,43.1424166 L26.2805505,41.17291 L30.4257081,41.17291 L31.319952,43.1424166 C31.3370831,43.179534 31.3736295,43.2035176 31.4147442,43.2035176 L32.0051964,43.2035176 C32.0400297,43.2035176 32.0731498,43.1852444 32.0925651,43.1555505 C32.1114093,43.1258566 32.1136935,43.0881681 32.0988465,43.05619 L28.7217337,35.7526268 Z M30.1036432,40.478529 L26.6031864,40.478529 L28.3579831,36.6365921 L30.1036432,40.478529 Z" id="9d80d790" />
                <path d="M38.4604842,39.3493033 C38.9829831,39.0740635 39.5049109,38.5686958 39.5049109,37.6504683 L39.5049109,37.6299109 C39.5049109,36.4844107 38.5410005,35.7443467 37.0494518,35.7443467 L34.0555048,35.7443467 C33.9984011,35.7443467 33.9521471,35.7906007 33.9521471,35.8477044 L33.9521471,43.0998744 C33.9521471,43.1569781 33.9984011,43.2032321 34.0555048,43.2032321 L37.2047739,43.2032321 C38.8476473,43.2032321 39.9092051,42.3860781 39.9092051,41.1212312 L39.9092051,41.1001028 C39.9092051,40.2709571 39.4095477,39.6696551 38.4604842,39.3493033 M37.2259022,42.4991434 L34.6979214,42.4991434 L34.6979214,39.7952832 L37.0494518,39.7952832 C38.4056647,39.7952832 39.1525811,40.2583942 39.1525811,41.1001028 L39.1525811,41.1212312 C39.1525811,41.9709342 38.4142302,42.4991434 37.2259022,42.4991434 M36.9872088,39.0906236 L34.6979214,39.0906236 L34.6979214,36.4490064 L37.0391731,36.4490064 C38.1092965,36.4490064 38.7488579,36.9098333 38.7488579,37.6818753 L38.7488579,37.7024326 C38.7488579,38.5584171 38.0738922,39.0906236 36.9872088,39.0906236" id="cfbde2a8" />
                <path d="M45.3461055,35.7526268 C45.3289744,35.7160804 45.292428,35.6926679 45.2518844,35.6926679 L44.7339539,35.6926679 C44.6934102,35.6926679 44.6568639,35.7160804 44.6403038,35.7526268 L41.2626199,43.05619 C41.247773,43.0881681 41.2506281,43.1258566 41.2694724,43.1555505 C41.2883166,43.1852444 41.3214367,43.2035176 41.356841,43.2035176 L41.9164573,43.2035176 C41.9570009,43.2035176 41.9935473,43.179534 42.0106784,43.1424166 L42.9049223,41.17291 L47.0500799,41.17291 L47.9443239,43.1424166 C47.961455,43.179534 47.9980014,43.2035176 48.039116,43.2035176 L48.6295683,43.2035176 C48.6644016,43.2035176 48.6975217,43.1852444 48.716937,43.1555505 C48.7357812,43.1258566 48.7380653,43.0881681 48.7232184,43.05619 L45.3461055,35.7526268 Z M46.7280151,40.478529 L43.2275582,40.478529 L44.982355,36.6365921 L46.7280151,40.478529 Z" id="66e12ed8" />
                <path d="M56.6670283,43.0364322 L54.3805962,40.0773184 C55.6614322,39.8466195 56.4191983,39.0534491 56.4191983,37.9302193 L56.4191983,37.9096619 C56.4191983,36.61455 55.3370831,35.7442896 53.7256167,35.7442896 L50.6802764,35.7442896 C50.6226016,35.7442896 50.5763476,35.7905436 50.5763476,35.8476473 L50.5763476,43.0998173 C50.5763476,43.156921 50.6226016,43.203175 50.6802764,43.203175 L51.2187643,43.203175 C51.275868,43.203175 51.322122,43.156921 51.322122,43.0998173 L51.322122,40.1989493 L53.5400297,40.1989493 L55.8190384,43.1626313 C55.8390247,43.188328 55.8692896,43.203175 55.9012677,43.203175 L56.58537,43.203175 C56.6247716,43.203175 56.6607469,43.1809045 56.677878,43.1455002 C56.6955802,43.1100959 56.6910119,43.0678392 56.6670283,43.0364322 L56.6670283,43.0364322 Z M51.322122,36.4489493 L53.6947807,36.4489493 C54.933931,36.4489493 55.6734239,37.0028552 55.6734239,37.9302193 L55.6734239,37.9507766 C55.6734239,38.8947008 54.8848218,39.5051393 53.6633737,39.5051393 L51.322122,39.5051393 L51.322122,36.4489493 Z" id="20c71ca6" />
                <path d="M3.46493833,47.7210484 L1.93455916,47.7210484 C1.90600731,47.7210484 1.88259479,47.7444609 1.88259479,47.7730128 L1.88259479,48.0316926 C1.88259479,48.0602444 1.90600731,48.0830859 1.93455916,48.0830859 L3.1434445,48.0830859 L3.1434445,49.0903952 C2.90018273,49.287974 2.47647328,49.4935473 1.99394701,49.4935473 C1.05801736,49.4935473 0.429305619,48.8305733 0.429305619,47.8432503 L0.429305619,47.8324006 C0.429305619,46.9153152 1.09056647,46.1975217 1.93455916,46.1975217 C2.52900868,46.1975217 2.86363636,46.4196551 3.11317953,46.6372202 C3.1234582,46.6463568 3.13602101,46.650354 3.15029694,46.649783 C3.16400183,46.649212 3.17713568,46.6429306 3.18627227,46.6320809 L3.36957515,46.4219392 C3.37871174,46.4116606 3.38328004,46.3979557 3.38213796,46.3836798 C3.38099589,46.3699749 3.37414344,46.356841 3.36329374,46.3482755 C2.92816354,45.9873801 2.51873001,45.8406236 1.95111923,45.8406236 C0.751370489,45.8406236 0.0347190498,46.8587825 0.0347190498,47.8432503 L0.0347190498,47.853529 C0.0347190498,49.026439 0.835883965,49.8453061 1.9830973,49.8453061 C2.76370489,49.8453061 3.30333486,49.4404408 3.49920055,49.2662746 C3.51062129,49.2565669 3.5169027,49.242291 3.5169027,49.2280151 L3.5169027,47.7730128 C3.5169027,47.7444609 3.49349018,47.7210484 3.46493833,47.7210484" id="48c37bf8" />
                <path d="M6.48224075,45.8405665 C5.25907949,45.8405665 4.52815212,46.8587254 4.52815212,47.8431932 L4.52815212,47.8534719 C4.52815212,48.9892645 5.36357926,49.845249 6.47139105,49.845249 C7.6882709,49.845249 8.41805619,48.8367976 8.42547967,47.8574692 C8.430619,47.8443353 8.430619,47.8306304 8.42547967,47.8174966 C8.41805619,46.6896985 7.58548424,45.8405665 6.48224075,45.8405665 M6.48224075,49.4883508 C5.6079831,49.4883508 4.92273869,48.765418 4.92273869,47.8431932 L4.92273869,47.8323435 C4.92273869,46.9004111 5.58856784,46.1974646 6.47139105,46.1974646 C7.3456487,46.1974646 8.0308931,46.9203974 8.0308931,47.8431932 L8.0308931,47.8534719 C8.0308931,48.7854043 7.36506396,49.4883508 6.48224075,49.4883508" id="3d1b5670" />
                <path d="M12.0911946,49.4183988 L9.92867748,49.4183988 L9.92867748,45.9567725 C9.92867748,45.9282206 9.90526496,45.9053792 9.87671311,45.9053792 L9.59633394,45.9053792 C9.56778209,45.9053792 9.54436958,45.9282206 9.54436958,45.9567725 L9.54436958,49.7290429 C9.54436958,49.7575948 9.56778209,49.7804363 9.59633394,49.7804363 L12.0911946,49.7804363 C12.1197465,49.7804363 12.143159,49.7575948 12.143159,49.7290429 L12.143159,49.4703632 C12.143159,49.4418113 12.1197465,49.4183988 12.0911946,49.4183988" id="65e5e1d5" />
                <path d="M14.4565441,45.9052079 L13.2008337,45.9052079 C13.1722819,45.9052079 13.1494404,45.9286204 13.1494404,45.9571722 L13.1494404,49.7288716 C13.1494404,49.7574235 13.1722819,49.780836 13.2008337,49.780836 L14.4565441,49.780836 C15.6482983,49.780836 16.5128483,48.9659662 16.5128483,47.8427364 L16.5128483,47.8318867 C16.5128483,46.7155094 15.6482983,45.9052079 14.4565441,45.9052079 M14.4565441,49.4182275 L13.5331772,49.4182275 L13.5331772,46.2672453 L14.4565441,46.2672453 C15.4193125,46.2672453 16.1182618,46.9302193 16.1182618,47.8427364 L16.1182618,47.8535861 C16.1182618,48.7752398 15.4347305,49.4182275 14.4565441,49.4182275" id="1e1fd4bf" />
                <path d="M21.5191868,48.899783 C21.7036318,48.6451005 21.8806533,48.3247487 22.0593878,47.9233097 C22.0650982,47.9101759 22.0650982,47.8959 22.0599589,47.8827661 C22.0548196,47.8696323 22.0445409,47.8593536 22.031407,47.8542143 L21.7778666,47.7519986 C21.7515989,47.7411489 21.721905,47.7537117 21.7110553,47.7799794 C21.5660119,48.1226016 21.4186843,48.4029808 21.2616492,48.6348218 L20.3702604,47.7188785 C20.965852,47.495603 21.2553677,47.1672567 21.2553677,46.7167085 C21.2553677,46.2256167 20.8516446,45.8407378 20.3359982,45.8407378 C19.7689584,45.8407378 19.3412517,46.2336112 19.3412517,46.754397 C19.3412517,47.0833143 19.4811558,47.3202947 19.7249886,47.6001028 C19.1105528,47.8456487 18.7862037,48.235667 18.7862037,48.7318981 C18.7862037,49.3708885 19.2955688,49.8345706 19.9968022,49.8345706 C20.4798995,49.8345706 20.8984696,49.6289973 21.275354,49.2070009 L21.8886478,49.840281 C21.8983554,49.8505596 21.9120603,49.85627 21.9257652,49.85627 C21.9371859,49.85627 21.9491777,49.8522727 21.9588853,49.8442782 L22.1798767,49.6609753 C22.1907264,49.6518387 22.1975788,49.6381339 22.1981498,49.6238579 C22.1992919,49.609582 22.1935815,49.5953061 22.1838739,49.5850274 L21.5191868,48.899783 Z M20.3251485,46.1810758 C20.6369347,46.1810758 20.8716309,46.4163431 20.8716309,46.7275582 C20.8716309,47.0570466 20.627227,47.2985952 20.1252855,47.4653381 C19.8192097,47.1364207 19.7249886,46.9651096 19.7249886,46.7435473 C19.7249886,46.4174852 19.9773869,46.1810758 20.3251485,46.1810758 L20.3251485,46.1810758 Z M20.0019415,49.4885222 C19.5199863,49.4885222 19.1699406,49.1658862 19.1699406,48.7210484 C19.1699406,48.3453061 19.4526039,48.0380882 19.9665372,47.8542143 L21.0258109,48.9494632 C20.7088853,49.3069324 20.36455,49.4885222 20.0019415,49.4885222 L20.0019415,49.4885222 Z" id="9c409ed0" />
                <path d="M25.860153,45.9052079 L24.6044427,45.9052079 C24.5758908,45.9052079 24.5530493,45.9286204 24.5530493,45.9571722 L24.5530493,49.7288716 C24.5530493,49.7574235 24.5758908,49.780836 24.6044427,49.780836 L25.860153,49.780836 C27.0519073,49.780836 27.9164573,48.9659662 27.9164573,47.8427364 L27.9164573,47.8318867 C27.9164573,46.7155094 27.0519073,45.9052079 25.860153,45.9052079 M25.860153,49.4182275 L24.9367862,49.4182275 L24.9367862,46.2672453 L25.860153,46.2672453 C26.8229214,46.2672453 27.5218707,46.9302193 27.5218707,47.8427364 L27.5218707,47.8535861 C27.5218707,48.7752398 26.8383394,49.4182275 25.860153,49.4182275" id="f08d7cb5" />
                <path d="M29.4054363,45.9052079 L29.1250571,45.9052079 C29.0965053,45.9052079 29.0730927,45.9286204 29.0730927,45.9571722 L29.0730927,49.7288716 C29.0730927,49.7574235 29.0965053,49.780836 29.1250571,49.780836 L29.4054363,49.780836 C29.4339881,49.780836 29.4574006,49.7574235 29.4574006,49.7288716 L29.4574006,45.9571722 C29.4574006,45.9286204 29.4339881,45.9052079 29.4054363,45.9052079" id="20c49b40" />
                <path d="M32.5830288,45.9083486 C32.5744632,45.8900754 32.55619,45.8780836 32.5362037,45.8780836 L32.2666743,45.8780836 C32.2461169,45.8780836 32.2278438,45.8900754 32.2192782,45.9083486 L30.4627684,49.7068867 C30.4553449,49.7228757 30.457058,49.74172 30.4661946,49.7565669 C30.4759022,49.7714139 30.4924623,49.7805505 30.5101645,49.7805505 L30.8008223,49.7805505 C30.8213796,49.7805505 30.8396528,49.7685587 30.8482184,49.7502855 L31.3141846,48.7247031 L33.4727044,48.7247031 L33.9380996,49.7502855 C33.9466651,49.7685587 33.9649383,49.7805505 33.9854957,49.7805505 L34.2927136,49.7805505 C34.3104157,49.7805505 34.3269758,49.7714139 34.3361124,49.7565669 C34.34582,49.74172 34.3469621,49.7228757 34.3395386,49.7068867 L32.5830288,45.9083486 Z M33.3071037,48.3678049 L31.4797853,48.3678049 L32.3957286,46.362323 L33.3071037,48.3678049 Z" id="a70dc98b" />
                <path d="M38.9154294,45.9052079 L38.6516103,45.9052079 C38.6344792,45.9052079 38.6184902,45.9137734 38.6087825,45.9280493 L37.1372202,48.0957058 L35.6662289,45.9280493 C35.6565212,45.9137734 35.6405322,45.9052079 35.6228301,45.9052079 L35.359011,45.9052079 C35.3304591,45.9052079 35.3076176,45.9286204 35.3076176,45.9571722 L35.3076176,49.7288716 C35.3076176,49.7574235 35.3304591,49.780836 35.359011,49.780836 L35.6285404,49.780836 C35.6570923,49.780836 35.6805048,49.7574235 35.6805048,49.7288716 L35.6805048,46.6195751 L37.0784034,48.653609 C37.088111,48.6678849 37.1041,48.6758794 37.1212312,48.6758794 L37.1429306,48.6758794 C37.1600617,48.6758794 37.1754797,48.6678849 37.1857583,48.653609 L38.5836569,46.6195751 L38.5836569,49.7288716 C38.5836569,49.7574235 38.6064984,49.780836 38.6350503,49.780836 L38.9154294,49.780836 C38.9439813,49.780836 38.9673938,49.7574235 38.9673938,49.7288716 L38.9673938,45.9571722 C38.9673938,45.9286204 38.9439813,45.9052079 38.9154294,45.9052079" id="822bce3b" />
                <path d="M42.0406007,45.8405665 C40.8174395,45.8405665 40.0865121,46.8587254 40.0865121,47.8431932 L40.0865121,47.8534719 C40.0865121,48.9892645 40.9219392,49.845249 42.029751,49.845249 C43.2466309,49.845249 43.9764162,48.8367976 43.9838397,47.8574692 C43.988979,47.8443353 43.988979,47.8306304 43.9838397,47.8174966 C43.9764162,46.6896985 43.1432732,45.8405665 42.0406007,45.8405665 M42.0406007,49.4883508 C41.1663431,49.4883508 40.4810987,48.765418 40.4810987,47.8431932 L40.4810987,47.8323435 C40.4810987,46.9004111 41.1469278,46.1974646 42.029751,46.1974646 C42.9040087,46.1974646 43.5892531,46.9203974 43.5892531,47.8431932 L43.5892531,47.8534719 C43.5892531,48.7854043 42.9234239,49.4883508 42.0406007,49.4883508" id="064c57b8" />
                <path d="M48.2908291,45.9052079 L48.0212997,45.9052079 C47.9927478,45.9052079 47.9693353,45.9286204 47.9693353,45.9571722 L47.9693353,49.0898812 L45.4596277,45.9246231 C45.449349,45.9126313 45.4345021,45.9052079 45.418513,45.9052079 L45.1546939,45.9052079 C45.1261421,45.9052079 45.1027296,45.9286204 45.1027296,45.9571722 L45.1027296,49.7288716 C45.1027296,49.7574235 45.1261421,49.780836 45.1546939,49.780836 L45.4242234,49.780836 C45.4527752,49.780836 45.4761878,49.7574235 45.4761878,49.7288716 L45.4761878,46.5259251 L48.0401439,49.7608497 C48.0498515,49.7734125 48.0646985,49.780836 48.0806875,49.780836 L48.2908291,49.780836 C48.319381,49.780836 48.3427935,49.7574235 48.3427935,49.7288716 L48.3427935,45.9571722 C48.3427935,45.9286204 48.319381,45.9052079 48.2908291,45.9052079" id="ba93193e" />
                <path d="M50.9360439,45.9052079 L49.6809045,45.9052079 C49.6517816,45.9052079 49.6289402,45.9286204 49.6289402,45.9571722 L49.6289402,49.7288716 C49.6289402,49.7574235 49.6517816,49.780836 49.6809045,49.780836 L50.9360439,49.780836 C52.1277981,49.780836 52.9923481,48.9659662 52.9923481,47.8427364 L52.9923481,47.8318867 C52.9923481,46.7155094 52.1277981,45.9052079 50.9360439,45.9052079 M50.9360439,49.4182275 L50.012677,49.4182275 L50.012677,46.2672453 L50.9360439,46.2672453 C51.8988122,46.2672453 52.5977615,46.9302193 52.5977615,47.8427364 L52.5977615,47.8535861 C52.5977615,48.7752398 51.9148013,49.4182275 50.9360439,49.4182275" id="766d9863" />
                <path d="M55.4080059,47.6520672 C54.5189013,47.4699063 54.3504454,47.2397784 54.3504454,46.878312 L54.3504454,46.8674623 C54.3504454,46.4854386 54.7159091,46.2079146 55.2195637,46.2079146 C55.6444153,46.2079146 55.9813271,46.3358269 56.3119575,46.6213454 C56.3228072,46.630482 56.3365121,46.6350503 56.350788,46.6339082 C56.3644929,46.6321951 56.3776268,46.6253426 56.3861923,46.6144929 L56.5637848,46.3935016 C56.5729214,46.3826519 56.5769187,46.369518 56.5752056,46.3558132 C56.5734925,46.3421083 56.56664,46.3295455 56.5563614,46.3209799 C56.1406464,45.9874943 55.7569095,45.8515875 55.2304134,45.8515875 C54.5097647,45.8515875 53.9661375,46.2998515 53.9661375,46.8948721 L53.9661375,46.9051508 C53.9661375,47.5064527 54.3464481,47.8290886 55.2795226,48.0175308 C56.1412175,48.1911261 56.304534,48.4155436 56.304534,48.7695866 L56.304534,48.7804363 C56.304534,49.1910119 55.933931,49.4776725 55.4028666,49.4776725 C54.8815098,49.4776725 54.5120489,49.3246345 54.0854842,48.93119 C54.0752056,48.9214824 54.0615007,48.9163431 54.0477958,48.9174852 C54.0335199,48.9180562 54.020386,48.9243376 54.0112494,48.9351873 L53.8285176,49.1453289 C53.8096734,49.1664573 53.8113865,49.1990064 53.8325148,49.2178506 C54.3104728,49.6444153 54.7895729,49.8345706 55.3868776,49.8345706 C56.1532092,49.8345706 56.6888419,49.3903038 56.6888419,48.7535975 L56.6888419,48.7427478 C56.6888419,48.1608611 56.3056761,47.834799 55.4080059,47.6520672" id="6ac17cca" />
            </g>
            <path d="M27.5,115.25 L227.522499,115.25" id="a623dfc0" stroke="#A75481" stroke-linecap="square" stroke-width="0.5" />
            <path d="M27.5,146.25 L227.522499,146.25" id="ee8bbe30" stroke="#A75481" stroke-linecap="square" stroke-width="0.5" />
            <path d="M27.5,177.25 L227.522499,177.25" id="80d34528" stroke="#A75481" stroke-linecap="square" stroke-width="0.5" />
            <path d="M27.5,208.25 L227.522499,208.25" id="95e38af2" stroke="#A75481" stroke-linecap="square" stroke-width="0.5" />
            <path d="M27.5,239.25 L227.522499,239.25" id="820d0849" stroke="#A75481" stroke-linecap="square" stroke-width="0.5" />
            <path d="M27.5,271.25 L227.522499,271.25" id="99d32359" stroke="#A75481" stroke-linecap="square" stroke-width="0.5" />
            <path d="M63,393 L227.5,393" id="db2ba5c8" stroke="#A75481" stroke-linecap="square" stroke-width="0.5" />
            <path d="M63,450 L227.5,450" id="82636e6e" stroke="#A75481" stroke-linecap="square" stroke-width="0.5" />
            <path d="M63,421 L227.5,421" id="a776d45e" stroke="#A75481" stroke-linecap="square" stroke-width="0.5" />
            <path d="M63,477 L227.5,477" id="73479207" stroke="#A75481" stroke-linecap="square" stroke-width="0.5" />
            <path d="M63,505 L227.5,505" id="678ae4ac" stroke="#A75481" stroke-linecap="square" stroke-width="0.5" />
            <path d="M63,533 L227.5,533" id="85fd6165" stroke="#A75481" stroke-linecap="square" stroke-width="0.5" />
            <path d="M27.5,559.25 L227.522499,559.25" id="71017913" stroke="#A75481" stroke-linecap="square" stroke-width="0.5" />
            <path d="M27.5,589.25 L227.522499,589.25" id="0cb78394" stroke="#A75481" stroke-linecap="square" stroke-width="0.5" />
            <path d="M27.5,302.25 L227.522499,302.25" id="7c5b64f8" stroke="#A75481" stroke-linecap="square" stroke-width="0.5" />
            <path d="M27.5,333.25 L227.522499,333.25" id="24be6b49" stroke="#A75481" stroke-linecap="square" stroke-width="0.5" />
            <path d="M27.5,364.25 L227.522499,364.25" id="5c570cb2" stroke="#A75481" stroke-linecap="square" stroke-width="0.5" />
            <path d="M27.5,665.25 L227.522499,665.25" id="a429dac3" stroke="#A75481" stroke-linecap="square" stroke-width="0.5" />
            <g id="0cb5c893" transform="translate(129.000000, 343.000000)">
                <rect fill="#D8D8D8" height="12" id="0947dcd7" rx="6" width="99" x="0" y="0" />
                <polygon fill="#911B5B" id="1243872a" points="89.5 5 91 8 88 8" transform="translate(89.500000, 6.500000) rotate(180.000000) translate(-89.500000, -6.500000) " />
                <text fill="#911B5B" font-family=".HelveticaNeueDeskInterface-Regular, .Helvetica Neue DeskInterface" font-size="8" font-weight="normal" id="6b608708" letter-spacing="-0.0133333337">
                    <tspan x="7" y="9">Mubeen</tspan>
                </text>
            </g>
            <g fill="#FFFFFF" id="2f70a3f2" transform="translate(28.000000, 566.500000)">
                <path d="M7.38741818,8.42098574 C7.29408485,8.42098574 7.21772121,8.49797149 7.21772121,8.59206517 C7.22054949,9.09960081 7.02822626,9.57577189 6.67751919,9.93789002 C6.32681212,10.3000081 5.85448889,10.4996008 5.35105455,10.5024521 C4.8476202,10.5053035 4.37529697,10.3114134 4.01610505,9.95784929 C3.65691313,9.60428513 3.45893333,9.12811405 3.45610505,8.62057841 C3.45327677,8.11304277 3.6456,7.63687169 3.99630707,7.27475356 C4.34701414,6.91263544 4.81933737,6.71304277 5.32277172,6.71019145 C5.41610505,6.71019145 5.49246869,6.6332057 5.49246869,6.53911202 C5.49246869,6.44501833 5.41610505,6.36803259 5.32277172,6.36803259 C4.72883232,6.37373523 4.17448889,6.61039511 3.75873131,7.03524236 C3.34297374,7.46008961 3.11105455,8.03035438 3.11671111,8.62628106 C3.12236768,9.22505906 3.35711515,9.78391853 3.77852929,10.2030631 C4.19994343,10.6222077 4.75994343,10.8503136 5.35388283,10.8474623 C5.94782222,10.8417597 6.50216566,10.6050998 6.91792323,10.1802525 C7.33368081,9.7554053 7.55994343,9.19084318 7.55711515,8.59206517 C7.55711515,8.49797149 7.48072323,8.42098574 7.38741818,8.42098574 Z" id="7f180554" />
                <path d="M10.2779232,9.57292057 L9.6245899,9.29919348 C9.53691313,9.26212627 9.43792323,9.30489613 9.40398384,9.39043585 C9.36721616,9.47882688 9.4096404,9.57862322 9.49448889,9.6128391 L10.1478222,9.88656619 C10.2948929,9.94929532 10.3656,10.1175234 10.3033778,10.2657923 L10.0092364,10.9814745 C9.94984242,11.1297434 9.78014545,11.2010265 9.63307475,11.1382974 L8.97974141,10.8645703 C8.90620606,10.8332057 8.81852929,10.8588676 8.77327677,10.9272994 C8.47065051,11.3835112 8.08600404,11.7712912 7.63630707,12.0735316 C7.56842828,12.1191527 7.54297374,12.2046925 7.57408485,12.2816782 L7.8456,12.940334 C7.87388283,13.0116171 7.87388283,13.0914542 7.8456,13.1627373 C7.81731717,13.2340204 7.76075152,13.2910468 7.69004444,13.3195601 L6.97731717,13.6160978 C6.9066101,13.644611 6.82741818,13.644611 6.75671111,13.6160978 C6.68600404,13.5875845 6.62943838,13.530558 6.60115556,13.4592749 L6.3296404,12.8006191 C6.29852929,12.7264847 6.21933737,12.6837149 6.14014545,12.6979715 C5.6056,12.8063218 5.06539798,12.8063218 4.53085253,12.6979715 C4.45166061,12.6808635 4.37246869,12.7236334 4.34135758,12.8006191 L4.06984242,13.4592749 C4.0076202,13.6075438 3.84075152,13.6788269 3.69368081,13.6160978 L2.98378182,13.3195601 C2.83671111,13.256831 2.76600404,13.0886029 2.82822626,12.940334 L3.09974141,12.2816782 C3.13085253,12.2075438 3.10539798,12.1191527 3.03751919,12.0735316 C2.58499394,11.7684399 2.20034747,11.3806599 1.90054949,10.9272994 C1.85529697,10.8588676 1.77044848,10.8332057 1.69408485,10.8645703 L1.04075152,11.1382974 C0.970044444,11.1668106 0.890852525,11.1668106 0.820145455,11.1382974 C0.749438384,11.1097841 0.692872727,11.0527576 0.664589899,10.9814745 L0.370448485,10.2629409 C0.342165657,10.1916578 0.342165657,10.1118208 0.370448485,10.0405377 C0.398731313,9.96925458 0.45529697,9.91222811 0.52600404,9.88371487 L1.17933737,9.60998778 C1.25287273,9.57862322 1.29529697,9.49878615 1.28115556,9.41894908 C1.17368081,8.88004888 1.17650909,8.33544603 1.28115556,7.79654582 C1.29812525,7.71670876 1.25570101,7.63687169 1.17933737,7.60550713 L0.523175758,7.33463136 C0.376105051,7.27190224 0.30539798,7.10367413 0.367620202,6.9554053 L0.661761616,6.23972301 C0.723983838,6.09145418 0.890852525,6.02017108 1.03792323,6.0829002 L1.69125657,6.35662729 C1.76479192,6.38799185 1.85246869,6.36232994 1.89772121,6.29389817 C2.20034747,5.83768635 2.58499394,5.44990631 3.03469091,5.14766599 C3.1025697,5.10204481 3.12802424,5.01650509 3.09691313,4.93951935 L2.82539798,4.28086354 C2.79711515,4.20958045 2.79711515,4.12974338 2.82539798,4.05846029 C2.85368081,3.98717719 2.91024646,3.93015071 2.98095354,3.90163747 L3.69368081,3.6050998 C3.76438788,3.57658656 3.8435798,3.57658656 3.91428687,3.6050998 C3.98499394,3.63361303 4.0415596,3.69063951 4.06984242,3.76192261 L4.34135758,4.42057841 C4.37812525,4.50896945 4.47711515,4.54888798 4.56196364,4.51182077 C4.6496404,4.47475356 4.68923636,4.37495723 4.65246869,4.28941752 L4.38095354,3.63076171 C4.31590303,3.4739389 4.19711515,3.3541833 4.0415596,3.28860285 C3.96519596,3.25723829 3.88317576,3.24013035 3.80115556,3.24013035 C3.71913535,3.24013035 3.63711515,3.25723829 3.56075152,3.28860285 L2.84802424,3.58514053 C2.69246869,3.65072098 2.57368081,3.77047658 2.5086303,3.92729939 C2.4435798,4.0841222 2.4435798,4.25520163 2.5086303,4.41202444 L2.72640808,4.94237067 C2.32479192,5.23035438 1.97691313,5.58106721 1.68842828,5.98880652 L1.16236768,5.76925458 C1.00681212,5.70367413 0.837115152,5.70367413 0.681559596,5.76925458 C0.52600404,5.83483503 0.407216162,5.95459063 0.342165657,6.11141344 L0.0480242424,6.82709572 C-0.0849050505,7.14929532 0.0678222222,7.51996741 0.387418182,7.65397963 L0.913478788,7.87353157 C0.831458586,8.36681059 0.831458586,8.86294094 0.913478788,9.35336864 L0.387418182,9.57292057 C0.237519192,9.63564969 0.11590303,9.7554053 0.0536808081,9.91222811 C-0.011369697,10.0690509 -0.011369697,10.2401303 0.0536808081,10.3969532 L0.347822222,11.1154868 C0.412872727,11.2723096 0.531660606,11.3920652 0.687216162,11.4576456 C0.842771717,11.5232261 1.01246869,11.5232261 1.16802424,11.4576456 L1.69408485,11.2380937 C1.97974141,11.6429817 2.3276202,11.9936945 2.73206465,12.2845295 L2.51145859,12.8148758 C2.37852929,13.1370754 2.53125657,13.5077475 2.85085253,13.6417597 L3.56075152,13.9382974 C3.88034747,14.0723096 4.24802424,13.9183381 4.38095354,13.5961385 L4.59873131,13.0657923 C5.08802424,13.1484807 5.58014545,13.1484807 6.0666101,13.0657923 L6.28438788,13.5961385 C6.34943838,13.7529613 6.46822626,13.8727169 6.62378182,13.9382974 C6.77933737,14.0038778 6.94903434,14.0038778 7.1045899,13.9382974 L7.81731717,13.6417597 C7.97287273,13.5761792 8.09166061,13.4564236 8.15671111,13.2996008 C8.22176162,13.142778 8.22176162,12.9716986 8.15671111,12.8148758 L7.93893333,12.2845295 C8.34054949,11.9965458 8.68842828,11.645833 8.97691313,11.2380937 L9.50297374,11.4576456 C9.65852929,11.5232261 9.82822626,11.5232261 9.98378182,11.4576456 C10.1393374,11.3920652 10.2581253,11.2723096 10.3231758,11.1154868 L10.6173172,10.3998045 C10.7502465,10.0776049 10.5975192,9.70693279 10.2779232,9.57292057 Z" id="18211887" />
                <path d="M9.9073899,2.53015071 C9.03062222,2.53015071 8.31789495,3.24868432 8.31789495,4.1325947 C8.31789495,5.01650509 9.03062222,5.7350387 9.9073899,5.7350387 C10.7841576,5.7350387 11.4968848,5.01650509 11.4968848,4.1325947 C11.4968848,3.24868432 10.7841576,2.53015071 9.9073899,2.53015071 Z M9.9073899,5.39002851 C9.21728889,5.39002851 8.65728889,4.8254664 8.65728889,4.12974338 C8.65728889,3.43402037 9.21728889,2.86945825 9.9073899,2.86945825 C10.5974909,2.86945825 11.1574909,3.43402037 11.1574909,4.12974338 C11.1574909,4.8254664 10.5975192,5.39002851 9.9073899,5.39002851 Z" id="dbb8fd05" />
                <path d="M13.4936808,3.342778 L13.1175192,3.342778 C13.0383273,3.00917312 12.9082263,2.69552749 12.7300444,2.40184114 L12.995903,2.1338167 C13.0920646,2.03687169 13.1429737,1.91141344 13.1429737,1.7745499 C13.1429737,1.64053768 13.0920646,1.51222811 12.995903,1.4152831 L12.5999434,1.01609776 C12.5037818,0.919152749 12.3793374,0.867828921 12.2435798,0.867828921 C12.1106505,0.867828921 11.9833778,0.919152749 11.8872162,1.01609776 L11.6213576,1.2841222 C11.3300444,1.1044888 11.0189333,0.976179226 10.6880242,0.893490835 L10.6880242,0.51711609 C10.6880242,0.237686354 10.4617616,0.00958044807 10.1845899,0.00958044807 L9.6245899,0.00958044807 C9.34741818,0.00958044807 9.12115556,0.237686354 9.12115556,0.51711609 L9.12115556,0.896342159 C8.79024646,0.976179226 8.47913535,1.10734012 8.18782222,1.28697352 L7.92196364,1.01894908 C7.82580202,0.922004073 7.70135758,0.870680244 7.5656,0.870680244 C7.42984242,0.870680244 7.30539798,0.922004073 7.20923636,1.01894908 L6.81327677,1.41813442 C6.71711515,1.51507943 6.66620606,1.64053768 6.66620606,1.77740122 C6.66620606,1.91141344 6.71711515,2.03972301 6.81327677,2.13666802 L7.07913535,2.40469246 C6.90095354,2.69837882 6.77368081,3.01202444 6.69166061,3.34562933 L6.31549899,3.34562933 C6.03832727,3.34562933 5.81206465,3.57373523 5.81206465,3.85316497 L5.81206465,4.41772709 C5.81206465,4.69715682 6.03832727,4.92526273 6.31549899,4.92526273 L6.69166061,4.92526273 C6.77085253,5.25886762 6.90095354,5.57251324 7.07913535,5.86619959 L6.81327677,6.13422403 C6.71711515,6.23116904 6.66620606,6.35662729 6.66620606,6.49349084 C6.66620606,6.62750305 6.71711515,6.75581263 6.81327677,6.85275764 L7.20923636,7.25194297 C7.30539798,7.34888798 7.42984242,7.40021181 7.5656,7.40021181 C7.70135758,7.40021181 7.82580202,7.34888798 7.92196364,7.25194297 L8.18782222,6.98391853 C8.47913535,7.16355193 8.79024646,7.29186151 9.12115556,7.3745499 L9.12115556,7.75377597 C9.12115556,8.0332057 9.34741818,8.26131161 9.6245899,8.26131161 L10.1845899,8.26131161 C10.4617616,8.26131161 10.6880242,8.0332057 10.6880242,7.75377597 L10.6880242,7.3745499 C11.0189333,7.29471283 11.3300444,7.16355193 11.6213576,6.98391853 L11.8872162,7.25194297 C11.9833778,7.34888798 12.1078222,7.40021181 12.2435798,7.40021181 C12.3765091,7.40021181 12.5037818,7.34888798 12.5999434,7.25194297 L12.995903,6.85275764 C13.0920646,6.75581263 13.1429737,6.63035438 13.1429737,6.49349084 C13.1429737,6.35947862 13.0920646,6.23116904 12.995903,6.13422403 L12.7300444,5.86619959 C12.9082263,5.57251324 13.035499,5.25886762 13.1175192,4.92526273 L13.4936808,4.92526273 C13.7708525,4.92526273 13.9971152,4.69715682 13.9971152,4.41772709 L13.9971152,3.85316497 C13.9942586,3.56803259 13.7708525,3.342778 13.4936808,3.342778 Z M13.4908242,4.57740122 L12.9760768,4.57740122 C12.8940566,4.57740122 12.8261778,4.6344277 12.8092081,4.71426477 C12.7328444,5.09919348 12.5857737,5.46131161 12.367996,5.78636253 C12.3227434,5.8547943 12.3312283,5.94603666 12.3877939,6.00306314 L12.7526424,6.37088391 C12.7837535,6.40224847 12.8007232,6.44216701 12.8007232,6.48778819 C12.8007232,6.53055804 12.7837535,6.5733279 12.7526424,6.60469246 L12.3566828,7.0038778 C12.3255717,7.03524236 12.2859758,7.05235031 12.2407232,7.05235031 C12.198299,7.05235031 12.1558747,7.03524236 12.1247636,7.0038778 L11.7599152,6.63605703 C11.7033495,6.57903055 11.6128444,6.57047658 11.5449657,6.61609776 C11.2197131,6.83564969 10.8633495,6.98391853 10.4815313,7.06090428 C10.4023394,7.07801222 10.3457737,7.14644399 10.3457737,7.22913238 L10.3457737,7.74807332 C10.3457737,7.83931568 10.2722384,7.9134501 10.1817333,7.9134501 L9.62173333,7.9134501 C9.53122828,7.9134501 9.45769293,7.83931568 9.45769293,7.74807332 L9.45769293,7.22628106 C9.45769293,7.14359267 9.40112727,7.0751609 9.32193535,7.05805295 C8.94011717,6.98106721 8.58092525,6.83279837 8.25850101,6.61324644 C8.19062222,6.56762525 8.10011717,6.57617923 8.04355152,6.6332057 L7.67870303,7.00102648 C7.64759192,7.03239104 7.60799596,7.04949898 7.56274343,7.04949898 C7.51749091,7.04949898 7.47789495,7.03239104 7.44678384,7.00102648 L7.05082424,6.60184114 C7.01971313,6.57047658 7.00274343,6.53055804 7.00274343,6.48493686 C7.00274343,6.44216701 7.01971313,6.39939715 7.05082424,6.36803259 L7.41567273,6.00021181 C7.47223838,5.94318534 7.48072323,5.85194297 7.43547071,5.7835112 C7.21769293,5.45560896 7.07062222,5.09634216 6.99425859,4.71141344 C6.97728889,4.63157637 6.9094101,4.5745499 6.8273899,4.5745499 L6.31264242,4.5745499 C6.22213737,4.5745499 6.14860202,4.50041548 6.14860202,4.40917312 L6.14860202,3.844611 C6.14860202,3.75336864 6.22213737,3.67923422 6.31264242,3.67923422 L6.8273899,3.67923422 C6.9094101,3.67923422 6.97728889,3.62220774 6.99425859,3.54237067 C7.07062222,3.15744196 7.21769293,2.79532383 7.43547071,2.47027291 C7.48072323,2.40184114 7.47223838,2.31059878 7.41567273,2.2535723 L7.05082424,1.88575153 C7.01971313,1.85438697 7.00274343,1.81446843 7.00274343,1.76884725 C7.00274343,1.72607739 7.01971313,1.68330754 7.05082424,1.65194297 L7.44678384,1.25275764 C7.47789495,1.22139308 7.51749091,1.20428513 7.56274343,1.20428513 C7.60799596,1.20428513 7.64759192,1.22139308 7.67870303,1.25275764 L8.04355152,1.62057841 C8.10011717,1.67760489 8.19062222,1.68615886 8.25850101,1.64053768 C8.58375354,1.42098574 8.94011717,1.2727169 9.32193535,1.19573116 C9.40112727,1.17862322 9.45769293,1.11019145 9.45769293,1.02750305 L9.45769293,0.51711609 C9.45769293,0.425873727 9.53122828,0.351739308 9.62173333,0.351739308 L10.1817333,0.351739308 C10.2722384,0.351739308 10.3457737,0.425873727 10.3457737,0.51711609 L10.3457737,1.03605703 C10.3457737,1.11874542 10.4023394,1.18717719 10.4815313,1.20428513 C10.8633495,1.28127088 11.2225414,1.42953971 11.5449657,1.64909165 C11.5732485,1.66905092 11.6071879,1.67760489 11.638299,1.67760489 C11.6807232,1.67760489 11.7259758,1.66049695 11.7570869,1.62628106 L12.1219354,1.25846029 C12.1530465,1.22709572 12.1926424,1.20998778 12.2378949,1.20998778 C12.2803192,1.20998778 12.3227434,1.22709572 12.3538545,1.25846029 L12.7498141,1.65764562 C12.7809253,1.68901018 12.7978949,1.72892872 12.7978949,1.7745499 C12.7978949,1.81731976 12.7809253,1.86008961 12.7498141,1.89145418 L12.3849657,2.25927495 C12.3284,2.31630143 12.3199152,2.40754379 12.3651677,2.47597556 C12.5829455,2.8038778 12.7300162,3.1631446 12.8063798,3.54807332 C12.8233495,3.62791039 12.8912283,3.68493686 12.9732485,3.68493686 L13.487996,3.68493686 C13.578501,3.68493686 13.6520364,3.75907128 13.6520364,3.85031365 L13.6520364,4.41202444 L13.6548646,4.41202444 C13.6548646,4.5032668 13.5813576,4.57740122 13.4908242,4.57740122 Z" id="d093a0dd" />
            </g>
            <g fill="#FFFFFF" id="4ae82c84" transform="translate(29.000000, 342.000000)">
                <path d="M10.2367729,1.75582373 C7.89864407,-0.582345763 4.09415593,-0.582345763 1.75602712,1.75582373 C0.935674576,2.57617627 0.374522034,3.60679322 0.133179661,4.73629831 C-0.101776271,5.83610847 -0.0248135593,6.97557966 0.355728814,8.03145763 C0.401450847,8.15825085 0.541342373,8.22398644 0.668094915,8.17830508 C0.794928814,8.13258305 0.860664407,7.9927322 0.814942373,7.86593898 C0.465315254,6.89581017 0.394616949,5.84888136 0.610535593,4.83823729 C0.832108475,3.80111186 1.34757966,2.85453559 2.10117966,2.10093559 C4.24901695,-0.0469016949 7.74378305,-0.0469016949 9.89162034,2.10093559 C10.9144678,3.12382373 11.4870508,4.48348475 11.5038508,5.92954576 C11.5206508,7.37296271 10.9827254,8.74348475 9.98924746,9.78858305 C9.97749153,9.80094915 9.96585763,9.81339661 9.95422373,9.82584407 C9.93364068,9.84785085 9.91309831,9.86989831 9.89162034,9.89137627 C7.74378305,12.0392136 4.24901695,12.0392136 2.10117966,9.89137627 C2.08974915,9.87994576 2.07860339,9.86831186 2.06757966,9.85667797 C2.06701017,9.83414237 2.06652203,9.8119322 2.06652203,9.79004746 C2.06652203,9.74090847 2.06745763,9.69197288 2.06924746,9.6432 C2.06985763,9.62688814 2.07107797,9.61073898 2.07189153,9.5944678 C2.07347797,9.56204746 2.07498305,9.52962712 2.07734237,9.49736949 C2.0787661,9.47812881 2.08084068,9.45909153 2.08254915,9.4399322 C2.08511186,9.41084746 2.08751186,9.38176271 2.09068475,9.35284068 C2.09292203,9.33242034 2.09585085,9.31216271 2.09841356,9.29182373 C2.10187119,9.2643661 2.1051661,9.23682712 2.1092339,9.20949153 C2.11232542,9.18866441 2.11598644,9.16804068 2.11940339,9.14733559 C2.12375593,9.12069153 2.12798644,9.09404746 2.13290847,9.0675661 C2.13677288,9.04661695 2.14120678,9.02587119 2.14543729,9.00504407 C2.15068475,8.97905085 2.15585085,8.95301695 2.16162712,8.92718644 C2.16630508,8.90623729 2.17151186,8.88541017 2.17651525,8.86458305 C2.18261695,8.83915932 2.18867797,8.81373559 2.1952678,8.78851525 C2.20075932,8.76760678 2.20669831,8.74686102 2.21247458,8.72607458 C2.21943051,8.70117966 2.22634576,8.67624407 2.23378983,8.65151186 C2.24001356,8.6307661 2.24668475,8.61018305 2.25327458,8.5896 C2.26108475,8.56515254 2.26889492,8.54066441 2.27715254,8.51642034 C2.28414915,8.49595932 2.29147119,8.47562034 2.29879322,8.45528136 C2.30745763,8.4312 2.31616271,8.40711864 2.32527458,8.3832 C2.33300339,8.36298305 2.34101695,8.34296949 2.34907119,8.32291525 C2.35854915,8.29928136 2.36810847,8.27564746 2.3780339,8.25221695 C2.38649492,8.23228475 2.3952,8.21251525 2.40398644,8.19274576 C2.41427797,8.16951864 2.42469153,8.14637288 2.43543051,8.12338983 C2.44458305,8.10382373 2.45393898,8.08437966 2.46341695,8.06497627 C2.47456271,8.04215593 2.48583051,8.01937627 2.49738305,7.9968 C2.50718644,7.97768136 2.51715254,7.95864407 2.52728136,7.93968814 C2.53924068,7.9172339 2.55140339,7.89486102 2.56381017,7.87261017 C2.57426441,7.85389831 2.58484068,7.8352678 2.59557966,7.81675932 C2.60835254,7.79475254 2.62132881,7.7728678 2.63454915,7.75106441 C2.64565424,7.73275932 2.65688136,7.71453559 2.66827119,7.69639322 C2.68185763,7.6748339 2.69564746,7.65339661 2.70964068,7.63212203 C2.72135593,7.61426441 2.73315254,7.59648814 2.74515254,7.5788339 C2.75951186,7.55768136 2.77419661,7.53677288 2.78900339,7.51590508 C2.80132881,7.49853559 2.81365424,7.48120678 2.82626441,7.46408136 C2.84143729,7.44341695 2.85693559,7.42295593 2.87251525,7.40261695 C2.88541017,7.38577627 2.89826441,7.36893559 2.91144407,7.35229831 C2.92743051,7.33208136 2.94378305,7.31210847 2.96017627,7.29221695 C2.97355932,7.27594576 2.98694237,7.25967458 3.00061017,7.24360678 C3.01745085,7.22383729 3.03465763,7.20435254 3.05190508,7.18490847 C3.06581695,7.16920678 3.07964746,7.15346441 3.09380339,7.13800678 C3.11145763,7.11872542 3.12947797,7.09981017 3.14753898,7.08089492 C3.16193898,7.06576271 3.17625763,7.05058983 3.19090169,7.03566102 C3.20941017,7.0168678 3.22832542,6.99848136 3.2472,6.98001356 C3.26200678,6.96557288 3.27669153,6.95096949 3.29174237,6.9367322 C3.31118644,6.91834576 3.33107797,6.90040678 3.35088814,6.88242712 C3.36602034,6.86871864 3.38094915,6.85484746 3.39628475,6.84134237 C3.41674576,6.82332203 3.43773559,6.80583051 3.45860339,6.78821695 C3.47389831,6.77532203 3.48903051,6.76222373 3.50452881,6.7495322 C3.52612881,6.73187797 3.54825763,6.71475254 3.57030508,6.69750508 C3.58568136,6.68550508 3.60081356,6.67322034 3.61635254,6.66142373 C3.63957966,6.64381017 3.66329492,6.62680678 3.68696949,6.60972203 C3.70189831,6.59890169 3.71654237,6.58783729 3.73167458,6.57722034 C3.75778983,6.55887458 3.78451525,6.54117966 3.81115932,6.52340339 C3.82429831,6.51465763 3.83715254,6.50558644 3.85037288,6.49696271 C3.88511186,6.47438644 3.92046102,6.45254237 3.95605424,6.43098305 C3.96158644,6.42764746 3.96695593,6.4240678 3.97252881,6.4207322 C4.01369492,6.39608136 4.05543051,6.37216271 4.09765424,6.34889492 C4.11209492,6.34096271 4.12694237,6.33351864 4.14154576,6.32574915 C4.16957288,6.31077966 4.19751864,6.29568814 4.2260339,6.28136949 C4.24429831,6.27217627 4.26301017,6.26355254 4.28143729,6.25464407 C4.30470508,6.24337627 4.32789153,6.23198644 4.35144407,6.22112542 C4.79381695,6.64368814 5.3839322,6.88291525 5.99646102,6.88291525 C6.60898983,6.88291525 7.19914576,6.64364746 7.64151864,6.22104407 C8.50507119,6.62070508 9.21185085,7.33781695 9.5955661,8.20987119 C9.64983051,8.33320678 9.79378983,8.38930169 9.91724746,8.33499661 C10.0406237,8.28069153 10.0966373,8.13665085 10.0423322,8.01331525 C9.62261695,7.05941695 8.89191864,6.29715254 7.96702373,5.83700339 C8.23537627,5.44336271 8.38055593,4.97853559 8.38055593,4.49886102 C8.38055593,3.18427119 7.31105085,2.1147661 5.99646102,2.1147661 C5.86169492,2.1147661 5.75239322,2.2240678 5.75239322,2.3588339 C5.75239322,2.4936 5.86169492,2.60290169 5.99646102,2.60290169 C7.04192542,2.60290169 7.89242034,3.45343729 7.89242034,4.49886102 C7.89242034,4.9663322 7.71868475,5.41647458 7.4032678,5.76626441 L7.40314576,5.76638644 C7.04298305,6.16576271 6.53027797,6.39482034 5.99642034,6.39482034 C5.46256271,6.39482034 4.94981695,6.16576271 4.58969492,5.76638644 C4.58965424,5.76630508 4.58957288,5.76626441 4.58949153,5.76622373 C4.27411525,5.41631186 4.10042034,4.96629153 4.10042034,4.49890169 C4.10042034,3.98863729 4.30018983,3.50993898 4.66295593,3.15107797 C4.75879322,3.05625763 4.75960678,2.90172203 4.66478644,2.80592542 C4.57000678,2.71004746 4.41547119,2.70931525 4.3196339,2.80405424 C3.86351186,3.25517288 3.61228475,3.85708475 3.61228475,4.49873898 C3.61228475,4.97792542 3.75709831,5.44242712 4.02500339,5.83586441 C4.02260339,5.83704407 4.02028475,5.83834576 4.01792542,5.8395661 C3.99888814,5.84908475 3.98029831,5.85917288 3.96142373,5.86889492 C3.93250169,5.88386441 3.90349831,5.89875254 3.87498305,5.9143322 C3.85480678,5.92531525 3.83507797,5.9368678 3.81510508,5.94813559 C3.78846102,5.96322712 3.76177627,5.97823729 3.73549831,5.99381695 C3.71511864,6.00593898 3.69506441,6.0184678 3.67488814,6.03087458 C3.6496678,6.04641356 3.62444746,6.06191186 3.59959322,6.07789831 C3.57929492,6.09095593 3.55936271,6.10437966 3.53930847,6.11772203 C3.51518644,6.13378983 3.49110508,6.14993898 3.46734915,6.16645424 C3.44737627,6.1803661 3.42764746,6.19456271 3.40791864,6.20875932 C3.3847322,6.22547797 3.36162712,6.24227797 3.33880678,6.25940339 C3.31924068,6.27408814 3.29991864,6.28897627 3.28063729,6.30394576 C3.25826441,6.32131525 3.23605424,6.33880678 3.21408814,6.35658305 C3.19505085,6.37195932 3.17617627,6.38753898 3.15738305,6.4032 C3.13578305,6.42126102 3.11434576,6.43952542 3.09311186,6.45799322 C3.07468475,6.47397966 3.05637966,6.49008814 3.03823729,6.5064 C3.01728814,6.5252339 2.99662373,6.54427119 2.97608136,6.56347119 C2.95834576,6.58002712 2.94065085,6.59662373 2.92315932,6.61350508 C2.90286102,6.63311186 2.88288814,6.65300339 2.86295593,6.67297627 C2.84595254,6.69002034 2.82894915,6.70702373 2.81227119,6.72431186 C2.79254237,6.74477288 2.77317966,6.7656 2.75385763,6.78642712 C2.73770847,6.80383729 2.72143729,6.8211661 2.70557288,6.83886102 C2.68625085,6.86033898 2.66745763,6.88226441 2.64858305,6.90410847 C2.63341017,6.92168136 2.61811525,6.93909153 2.60322712,6.9568678 C2.5840678,6.97976949 2.56551864,7.00311864 2.54684746,7.02638644 C2.53297627,7.04371525 2.51882034,7.0608 2.50519322,7.0783322 C2.48558644,7.10355254 2.46663051,7.12926102 2.44759322,7.15488814 C2.4356339,7.17099661 2.42334915,7.18682034 2.4116339,7.20309153 C2.38755254,7.23644746 2.36424407,7.27029153 2.34113898,7.30429831 C2.33507797,7.31324746 2.32865085,7.32195254 2.32263051,7.33094237 C2.29387119,7.37389831 2.26592542,7.41734237 2.23871186,7.46127458 C2.22931525,7.47644746 2.22048814,7.49194576 2.21129492,7.5072 C2.19368136,7.53644746 2.17598644,7.56565424 2.15902373,7.59530847 C2.14844746,7.61381695 2.13844068,7.63265085 2.12814915,7.65132203 C2.11330169,7.67816949 2.09837288,7.70493559 2.08413559,7.73210847 C2.07355932,7.75224407 2.06355254,7.77262373 2.05326102,7.79292203 C2.04,7.81911864 2.02669831,7.84527458 2.0139661,7.87175593 C2.00383729,7.89282712 1.99419661,7.91414237 1.98439322,7.93533559 C1.97235254,7.96149153 1.96027119,7.98760678 1.94871864,8.01400678 C1.9392,8.03576949 1.93008814,8.05773559 1.92093559,8.07966102 C1.90991186,8.10597966 1.89896949,8.13229831 1.88847458,8.15882034 C1.87964746,8.18111186 1.87118644,8.20352542 1.86272542,8.22593898 C1.85271864,8.25254237 1.8428339,8.27918644 1.83331525,8.30599322 C1.82526102,8.3287322 1.81745085,8.35159322 1.80972203,8.37449492 C1.80065085,8.40138305 1.79182373,8.42835254 1.78328136,8.45548475 C1.776,8.47854915 1.76896271,8.50169492 1.76204746,8.52488136 C1.75391186,8.55225763 1.74606102,8.57971525 1.73845424,8.60729492 C1.73202712,8.63056271 1.72572203,8.65387119 1.71966102,8.67730169 C1.71246102,8.7051661 1.70562712,8.73315254 1.69895593,8.76122034 C1.69338305,8.78465085 1.68785085,8.80804068 1.68268475,8.83155254 C1.67642034,8.85998644 1.67060339,8.88858305 1.66490847,8.91722034 C1.66023051,8.94065085 1.65547119,8.96408136 1.65115932,8.9876339 C1.64583051,9.01684068 1.64103051,9.04621017 1.63627119,9.07562034 C1.63252881,9.09880678 1.62858305,9.12195254 1.62520678,9.14522034 C1.62077288,9.1755661 1.61703051,9.20607458 1.61320678,9.23658305 C1.6104,9.2592 1.60730847,9.28177627 1.60482712,9.30447458 C1.60132881,9.33644746 1.59864407,9.36862373 1.59583729,9.4008 C1.5939661,9.42223729 1.59172881,9.44359322 1.59018305,9.46515254 C1.58757966,9.50107119 1.58587119,9.53715254 1.58412203,9.57327458 C1.5832678,9.59121356 1.58192542,9.60903051 1.58127458,9.62701017 C1.57932203,9.68119322 1.57822373,9.73557966 1.57822373,9.79016949 C1.57822373,9.84911186 1.58021695,9.90484068 1.58261695,9.96638644 C1.58318644,9.98062373 1.58517966,9.99445424 1.58802712,10.0079593 C1.58827119,10.0090169 1.58839322,10.0100746 1.58863729,10.0111322 C1.59164746,10.0244339 1.59587797,10.0372068 1.60096271,10.0495729 C1.60145085,10.0507932 1.60189831,10.0520136 1.60242712,10.0532339 C1.60767458,10.0654373 1.61393898,10.0770712 1.62101695,10.0881356 C1.62191186,10.0895186 1.6227661,10.0909017 1.62366102,10.0922441 C1.63094237,10.1031051 1.63903729,10.1133153 1.64786441,10.1228339 C1.64851525,10.1235254 1.64896271,10.1243797 1.64961356,10.1250712 L1.68183051,10.1593627 C1.70615593,10.1853966 1.73048136,10.2113492 1.75586441,10.2366915 C2.92494915,11.4057763 4.46058305,11.9903186 5.99625763,11.9903186 C7.5319322,11.9903186 9.0675661,11.4057763 10.2366508,10.2366915 C10.2620339,10.2113492 10.2863593,10.1853559 10.3106847,10.1593627 L10.3429017,10.1250712 C11.4244881,8.9872678 12.0100881,7.49536271 11.9918237,5.92405424 C11.9736407,4.34961356 11.3502915,2.86934237 10.2367729,1.75582373 Z" id="94bb485e" />
            </g>
            <g id="a0ffdbd8" stroke="#FFFFFF" stroke-width="0.5" transform="translate(28.000000, 280.000000)">
                <path d="M1.70434783,0 C0.764570435,0 0,0.764570435 0,1.70434783 C0,2.64412522 0.764570435,3.40869565 1.70434783,3.40869565 C2.64412522,3.40869565 3.40869565,2.64412522 3.40869565,1.70434783 C3.40869565,0.764570435 2.64412522,0 1.70434783,0 Z" id="125f080d" />
                <path d="M5.90434783,0 C4.96457043,0 4.2,0.764570435 4.2,1.70434783 C4.2,2.64412522 4.96457043,3.40869565 5.90434783,3.40869565 C6.84412522,3.40869565 7.60869565,2.64412522 7.60869565,1.70434783 C7.60869565,0.764570435 6.84412522,0 5.90434783,0 Z" id="db56c4ee" />
                <path d="M5.90434783,4.2 C4.96457043,4.2 4.2,4.96457043 4.2,5.90434783 C4.2,6.84412522 4.96457043,7.60869565 5.90434783,7.60869565 C6.84412522,7.60869565 7.60869565,6.84412522 7.60869565,5.90434783 C7.60869565,4.96457043 6.84412522,4.2 5.90434783,4.2 Z" id="12463095" />
                <path d="M10.2043478,8.5 C9.26457043,8.5 8.5,9.26457043 8.5,10.2043478 C8.5,11.1441252 9.26457043,11.9086957 10.2043478,11.9086957 C11.1441252,11.9086957 11.9086957,11.1441252 11.9086957,10.2043478 C11.9086957,9.26457043 11.1441252,8.5 10.2043478,8.5 Z" id="e730a4a1" />
                <path d="M10.2043478,0 C9.26457043,0 8.5,0.764570435 8.5,1.70434783 C8.5,2.64412522 9.26457043,3.40869565 10.2043478,3.40869565 C11.1441252,3.40869565 11.9086957,2.64412522 11.9086957,1.70434783 C11.9086957,0.764570435 11.1441252,0 10.2043478,0 Z" id="76c3231a" />
                <path d="M10.2043478,4.2 C9.26457043,4.2 8.5,4.96457043 8.5,5.90434783 C8.5,6.84412522 9.26457043,7.60869565 10.2043478,7.60869565 C11.1441252,7.60869565 11.9086957,6.84412522 11.9086957,5.90434783 C11.9086957,4.96457043 11.1441252,4.2 10.2043478,4.2 Z" id="9c481c0f" />
            </g>
            <g id="7f8ebe23" transform="translate(27.000000, 247.000000)">
                <polygon id="da9399d8" points="7.01363691 12.3656924 5.78085315 13.1974725 4.96021791 11.957242 3.50296577 12.2539407 3.21941335 10.7940736 1.75954626 10.5105211 2.05624492 9.053269 0.816014413 8.23263376 1.64779449 6.99985 0.816014413 5.76706624 2.05624492 4.94643101 1.75954626 3.48917887 3.21941335 3.20562644 3.50296577 1.74575935 4.96021791 2.04245801 5.78085315 0.802227505 7.01363691 1.63400758 8.24642067 0.802227505 9.06705591 2.04245801 10.524308 1.74575935 10.8078605 3.20562644 12.2677276 3.48917887 11.9710289 4.94643101 13.2112594 5.76706624 12.3794793 6.99985 13.2112594 8.23263376 11.9710289 9.053269 12.2677276 10.5105211 10.8078605 10.7940736 10.524308 12.2539407 9.06705591 11.957242 8.24642067 13.1974725" stroke="#FAF6F6" stroke-width="0.5" transform="translate(7.013637, 6.999850) rotate(-8.000000) translate(-7.013637, -6.999850) " />
                <path d="M5.81429142,9.55816003 L9.10265602,5.05615803 L8.56603485,5.05615803 L5.27143047,9.55816003 L5.81429142,9.55816003 Z M9.39280583,8.48491769 C9.39280583,7.80790146 9.02153886,7.364877 8.4505989,7.364877 C7.87965894,7.364877 7.50527208,7.80790146 7.50527208,8.48491769 C7.50527208,9.16505383 7.87965894,9.60807828 8.4505989,9.60807828 C9.02153886,9.60807828 9.39280583,9.16505383 9.39280583,8.48491769 Z M8.4505989,9.22745164 C8.17604853,9.22745164 8.00445456,8.94042171 8.00445456,8.48491769 C8.00445456,8.03253357 8.17604853,7.74862354 8.4505989,7.74862354 C8.73138904,7.74862354 8.89362335,8.0231739 8.89362335,8.48491769 C8.89362335,8.9435416 8.72514926,9.22745164 8.4505989,9.22745164 Z M6.88753376,6.12004069 C6.88753376,5.44302445 6.51626679,5 5.94532682,5 C5.37438686,5 5,5.44302445 5,6.12004069 C5,6.80017682 5.37438686,7.24320127 5.94532682,7.24320127 C6.51626679,7.24320127 6.88753376,6.80017682 6.88753376,6.12004069 Z M5.94532682,6.86257463 C5.67077646,6.86257463 5.49918248,6.57554471 5.49918248,6.12004069 C5.49918248,5.66765657 5.67077646,5.38374653 5.94532682,5.38374653 C6.22611697,5.38374653 6.38835128,5.6582969 6.38835128,6.12004069 C6.38835128,6.5786646 6.21987719,6.86257463 5.94532682,6.86257463 Z" fill="#FFFFFF" id="36c1c907" />
            </g>
            <g fill="#FFFFFF" id="6adcdd3d" transform="translate(28.000000, 185.500000)">
                <g id="fb62f7e2">
                    <path d="M13.7923729,8.55762069 L13.116339,7.86968966 C12.848678,7.59765517 12.3821695,7.59765517 12.1145085,7.86968966 L8.46264407,11.5847586 L7.95935593,13.4624483 L7.83620339,13.5877241 C7.74413559,13.6813793 7.74389831,13.8324828 7.83477966,13.9268621 L7.83359322,13.9316897 L7.83810169,13.9304828 C7.88413559,13.9765862 7.9439322,14 8.0039661,14 C8.06471186,14 8.12545763,13.9763448 8.17172881,13.9292759 L8.29511864,13.8037586 L10.1407458,13.2917931 L13.7926102,9.57672414 C14.0688136,9.29575862 14.0688136,8.83858621 13.7923729,8.55762069 Z M9.01054237,11.7102759 L11.4410847,9.23782759 L12.4478983,10.262 L10.0173559,12.7344483 L9.01054237,11.7102759 Z M8.79627119,12.1751724 L9.56033898,12.9524138 L8.50962712,13.244 L8.79627119,12.1751724 Z M13.4568475,9.23541379 L12.7834237,9.92068966 L11.7766102,8.89651724 L12.4502712,8.21124138 C12.5385424,8.1212069 12.6925424,8.1212069 12.7808136,8.21124138 L13.4570847,8.89917241 C13.5482034,8.99162069 13.5482034,9.14272414 13.4568475,9.23541379 Z" id="a2fa4ef8" />
                    <path d="M8.54237288,7.96527586 L10.6779661,7.96527586 L10.6779661,5.31010345 L8.54237288,5.31010345 L8.06779661,5.31010345 L6.40677966,5.31010345 L5.93220339,5.31010345 L4.27118644,5.31010345 L3.79661017,5.31010345 L1.66101695,5.31010345 L1.66101695,7.48251724 L1.66101695,7.96527586 L1.66101695,9.65493103 L1.66101695,10.1376897 L1.66101695,12.3101034 L3.79661017,12.3101034 L4.27118644,12.3101034 L6.40677966,12.3101034 L6.40677966,10.1376897 L6.40677966,9.65493103 L6.40677966,7.96527586 L8.06779661,7.96527586 L8.54237288,7.96527586 Z M8.54237288,5.79286207 L10.2033898,5.79286207 L10.2033898,7.48251724 L8.54237288,7.48251724 L8.54237288,5.79286207 Z M4.27118644,5.79286207 L5.93220339,5.79286207 L5.93220339,7.48251724 L4.27118644,7.48251724 L4.27118644,5.79286207 Z M2.13559322,5.79286207 L3.79661017,5.79286207 L3.79661017,7.48251724 L2.13559322,7.48251724 L2.13559322,5.79286207 Z M2.13559322,7.96527586 L3.79661017,7.96527586 L3.79661017,9.65493103 L2.13559322,9.65493103 L2.13559322,7.96527586 Z M3.79661017,11.8273448 L2.13559322,11.8273448 L2.13559322,10.1376897 L3.79661017,10.1376897 L3.79661017,11.8273448 Z M5.93220339,11.8273448 L4.27118644,11.8273448 L4.27118644,10.1376897 L5.93220339,10.1376897 L5.93220339,11.8273448 Z M5.93220339,9.65493103 L4.27118644,9.65493103 L4.27118644,7.96527586 L5.93220339,7.96527586 L5.93220339,9.65493103 Z M6.40677966,7.48251724 L6.40677966,5.79286207 L8.06779661,5.79286207 L8.06779661,7.48251724 L6.40677966,7.48251724 Z" id="7e46eb69" />
                    <path d="M6.16949153,13.517 L0.474576271,13.517 L0.474576271,4.1032069 L11.8644068,4.1032069 L11.8644068,7.24113793 C11.8644068,7.37462069 11.9707119,7.48251724 12.1016949,7.48251724 C12.232678,7.48251724 12.3389831,7.37462069 12.3389831,7.24113793 L12.3389831,3.86182759 L12.3389831,1.44803448 C12.3389831,1.31455172 12.232678,1.20665517 12.1016949,1.20665517 L10.9152542,1.20665517 L10.9152542,0.482517241 C10.9152542,0.349034483 10.8089492,0.241137931 10.6779661,0.241137931 L9.01694915,0.241137931 C8.8859661,0.241137931 8.77966102,0.349034483 8.77966102,0.482517241 L8.77966102,1.20665517 L3.55932203,1.20665517 L3.55932203,0.482517241 C3.55932203,0.349034483 3.45301695,0.241137931 3.3220339,0.241137931 L1.66101695,0.241137931 C1.5300339,0.241137931 1.42372881,0.349034483 1.42372881,0.482517241 L1.42372881,1.20665517 L0.237288136,1.20665517 C0.106305085,1.20665517 0,1.31455172 0,1.44803448 L0,3.86182759 L0,13.7583793 C0,13.8918621 0.106305085,13.9997586 0.237288136,13.9997586 L6.16949153,13.9997586 C6.30047458,13.9997586 6.40677966,13.8918621 6.40677966,13.7583793 C6.40677966,13.6248966 6.30047458,13.517 6.16949153,13.517 Z M9.25423729,0.723896552 L10.440678,0.723896552 L10.440678,1.44803448 L10.440678,2.17217241 L9.25423729,2.17217241 L9.25423729,1.44803448 L9.25423729,0.723896552 Z M1.89830508,0.723896552 L3.08474576,0.723896552 L3.08474576,1.44803448 L3.08474576,2.17217241 L1.89830508,2.17217241 L1.89830508,1.44803448 L1.89830508,0.723896552 Z M0.474576271,1.68941379 L1.42372881,1.68941379 L1.42372881,2.41355172 C1.42372881,2.54703448 1.5300339,2.65493103 1.66101695,2.65493103 L3.3220339,2.65493103 C3.45301695,2.65493103 3.55932203,2.54703448 3.55932203,2.41355172 L3.55932203,1.68941379 L8.77966102,1.68941379 L8.77966102,2.41355172 C8.77966102,2.54703448 8.8859661,2.65493103 9.01694915,2.65493103 L10.6779661,2.65493103 C10.8089492,2.65493103 10.9152542,2.54703448 10.9152542,2.41355172 L10.9152542,1.68941379 L11.8644068,1.68941379 L11.8644068,3.62044828 L0.474576271,3.62044828 L0.474576271,1.68941379 Z" id="f63ca9c1" />
                </g>
            </g>
            <g fill="#FFFFFF" id="1bb1da3f" transform="translate(28.000000, 156.000000)">
                <g id="cba71ce5">
                    <g id="6166d3d2">
                        <path d="M5.01461538,3.05454545 C4.02512821,3.05454545 3.21974359,3.85407273 3.21974359,4.83636364 C3.21974359,5.81865455 4.02512821,6.61818182 5.01461538,6.61818182 C6.00410256,6.61818182 6.80948718,5.81865455 6.80948718,4.83636364 C6.80948718,3.85407273 6.00410256,3.05454545 5.01461538,3.05454545 Z M5.01461538,6.10909091 C4.30769231,6.10909091 3.7325641,5.53814545 3.7325641,4.83636364 C3.7325641,4.13458182 4.30769231,3.56363636 5.01461538,3.56363636 C5.72153846,3.56363636 6.29666667,4.13458182 6.29666667,4.83636364 C6.29666667,5.53814545 5.72153846,6.10909091 5.01461538,6.10909091 Z" id="354feed9" />
                        <path d="M8.44615385,1.42978182 C7.5174359,0.507818182 6.2825641,0 4.96923077,0 C3.65564103,0 2.42102564,0.507818182 1.49230769,1.42978182 C-0.226410256,3.13574545 -0.44,6.34556364 1.02974359,8.29029091 L4.96923077,13.9381455 L8.90282051,8.29818182 C10.3784615,6.34556364 10.1648718,3.13574545 8.44615385,1.42978182 Z M8.48692308,8.00061818 L4.96923077,13.0436727 L1.44589744,7.99272727 C0.112820513,6.22821818 0.303846154,3.32945455 1.85512821,1.78970909 C2.68692308,0.963963636 3.79282051,0.509090909 4.96923077,0.509090909 C6.14564103,0.509090909 7.25153846,0.963963636 8.08358974,1.78970909 C9.63487179,3.32945455 9.82589744,6.22821818 8.48692308,8.00061818 Z" id="3aca96cb" />
                    </g>
                </g>
            </g>
            <g fill="#FEFDFE" id="2378327d" transform="translate(28.000000, 122.500000)">
                <g id="8eaaee90">
                    <path d="M12.8234227,2.18284536 C12.8234227,0.959216495 10.9241134,0 8.4992268,0 C6.48034021,0 4.79745361,0.653958763 4.31113402,1.62710309 L4.28248454,1.68368041 L4.3457732,1.68057732 C4.46094845,1.67437113 4.58391753,1.67126804 4.72074227,1.66975258 L4.74008247,1.66975258 L4.75090722,1.65423711 C5.27958763,0.910649485 6.8208866,0.390268041 8.49915464,0.390268041 C10.6319175,0.390268041 12.4330825,1.21107216 12.4330825,2.18262887 C12.4330825,3.03980412 10.9640928,3.81824742 9.08982474,3.95435052 L9.05496907,3.95665979 L9.05496907,4.34793814 L9.09502062,4.34562887 C10.5886186,4.24596907 11.8243711,3.78519588 12.4331546,3.10569072 L12.4331546,3.68005155 C12.4331546,4.30528866 12.4331546,5.76864948 9.09069072,5.91485567 L9.05504124,5.91637113 L9.05504124,6.30606186 L9.09429897,6.30454639 C10.7678763,6.2312268 11.8895361,5.82284536 12.4331546,5.09015464 L12.4331546,5.50676289 C12.4331546,6.13127835 12.4331546,7.59456701 9.09069072,7.7407732 L9.05504124,7.74228866 L9.05504124,8.13197938 L9.09429897,8.13046392 C10.7673711,8.05786598 11.8895361,7.64876289 12.4331546,6.91607216 L12.4331546,7.33340206 C12.4331546,7.95791753 12.4331546,9.422 9.09069072,9.56741237 L9.05504124,9.56892784 L9.05504124,9.95919588 L9.09429897,9.9568866 C10.7678763,9.88428866 11.8903299,9.47547423 12.4331546,8.74249485 L12.4331546,9.30372165 C12.4331546,9.93364948 12.4331546,11.4093505 9.03021649,11.5400412 L9.00178351,11.5415567 L8.99557732,11.5694845 C8.97075258,11.677732 8.93748454,11.7835979 8.89591753,11.8832577 L8.87347423,11.9364433 L8.93156701,11.9349278 C12.8234227,11.8174433 12.8234227,9.99094845 12.8234227,9.30372165 L12.8234227,7.76884536 L12.8035052,7.76884536 C12.8234227,7.59709278 12.8234227,7.4465567 12.8234227,7.33340206 L12.8234227,5.79838144 L12.8167113,5.79838144 C12.8234227,5.684 12.8234227,5.58275258 12.8234227,5.50705155 L12.8234227,4.00912371 L12.8159175,3.98047423 C12.8234227,3.86298969 12.8234227,3.75863918 12.8234227,3.68062887 L12.8234227,2.18284536 L12.8234227,2.18284536 Z" id="a42bc47e" />
                    <path d="M4.34447423,1.98352577 C1.92038144,1.98352577 0.0210721649,2.94274227 0.0210721649,4.16637113 L0.0210721649,5.66458763 C0.0210721649,5.75262887 0.0218659794,5.8476701 0.0295876289,5.95591753 L0.0208556701,5.95591753 L0.0208556701,7.49028866 C0.0208556701,7.57861856 0.0216494845,7.67445361 0.029371134,7.78262887 L0.0208556701,7.78262887 L0.0208556701,9.317 C0.0208556701,9.42827835 0.0208556701,9.57809278 0.0432989691,9.75215464 L0.0208556701,9.75215464 L0.0208556701,11.2873196 C0.0208556701,11.9575155 0.0208556701,13.9988454 4.37370103,13.9988454 C8.66765979,13.9988454 8.66765979,12.0285258 8.66765979,11.2873196 L8.66765979,9.75215464 L8.64853608,9.75215464 C8.66765979,9.58141237 8.66765979,9.42986598 8.66765979,9.317 L8.66765979,7.78262887 L8.66174227,7.78262887 C8.66765979,7.66824742 8.66765979,7.56620619 8.66765979,7.49028866 L8.66765979,5.95591753 L8.66174227,5.95591753 C8.66765979,5.84153608 8.66765979,5.74028866 8.66765979,5.66458763 L8.66765979,4.16637113 C8.66765979,2.9426701 6.76856701,1.98352577 4.34447423,1.98352577 Z M4.34447423,5.95902062 C2.21250515,5.95902062 0.411340206,5.13821649 0.411340206,4.16637113 C0.411340206,3.19474227 2.21250515,2.37401031 4.34447423,2.37401031 C6.4764433,2.37401031 8.27840206,3.19481443 8.27840206,4.16637113 C8.27840206,5.13821649 6.4762268,5.95902062 4.34447423,5.95902062 Z M4.37370103,7.91180412 C0.411340206,7.91180412 0.411340206,6.27907216 0.411340206,5.66458763 L0.411340206,5.08943299 C1.1016701,5.8577732 2.62752577,6.34950515 4.34447423,6.34950515 C6.06142268,6.34950515 7.58727835,5.8577732 8.27840206,5.08943299 L8.27840206,5.66458763 C8.27840206,6.33637113 8.27840206,7.91180412 4.37370103,7.91180412 Z M4.37370103,9.73772165 C0.411340206,9.73772165 0.411340206,8.10520619 0.411340206,7.49050515 L0.411340206,7.03904124 C1.02654639,7.87709278 2.35871134,8.30120619 4.37370103,8.30120619 C6.36184536,8.30120619 7.67438144,7.88849485 8.27818557,7.07368041 L8.27818557,7.49028866 C8.27840206,8.16308247 8.27840206,9.73772165 4.37370103,9.73772165 Z M4.37370103,11.5642165 C0.411340206,11.5642165 0.411340206,9.93170103 0.411340206,9.31728866 L0.411340206,8.86582474 C1.02654639,9.70365979 2.35871134,10.1282062 4.37370103,10.1282062 C6.36184536,10.1282062 7.67438144,9.71520619 8.27818557,8.90068041 L8.27818557,9.31728866 C8.27840206,9.98950515 8.27840206,11.5642165 4.37370103,11.5642165 Z M4.37370103,13.608866 C0.411340206,13.608866 0.411340206,11.9221546 0.411340206,11.2875361 L0.411340206,10.6914536 C1.02654639,11.5292887 2.35871134,11.9546289 4.37370103,11.9546289 C6.36184536,11.9546289 7.67438144,11.5416289 8.27818557,10.7271031 L8.27818557,11.2875361 C8.27840206,11.9823402 8.27840206,13.608866 4.37370103,13.608866 Z" id="058e02fd" />
                    <path d="M6.25929897,3.24901031 L5.76056701,3.41765979 C5.51470103,3.3587732 5.24660825,3.32803093 4.9852268,3.32803093 C4.69129897,3.32803093 4.42169072,3.36649485 4.20606186,3.43930928 C4.0027732,3.50750515 3.90001031,3.58703093 3.88297938,3.68827835 C3.86515464,3.79573196 3.94706186,3.91321649 4.14948454,4.06945361 C4.24993814,4.15006186 4.29641237,4.2125567 4.28948454,4.25643299 C4.28407216,4.2866701 4.24683505,4.33213402 4.10019588,4.38171134 C3.97029897,4.42508247 3.81348454,4.44831959 3.64562887,4.44831959 C3.45013402,4.44831959 3.25283505,4.41736082 3.07747423,4.35768041 C2.8432268,4.27887629 2.66447423,4.1691134 2.5996701,4.06245361 L2.58725773,4.04152577 L2.0608866,4.12494845 L2.0833299,4.17062887 C2.13269072,4.27108247 2.30516495,4.38553608 2.54172165,4.47978351 L2.0398866,4.64814433 L2.46883505,4.79276289 L2.98741237,4.61870103 C3.53030928,4.75018557 4.20331959,4.7377732 4.62635052,4.5946701 C4.86059794,4.51665979 4.97887629,4.42941237 4.998,4.31964948 C5.01582474,4.21760825 4.94402062,4.10553608 4.77306186,3.96863918 C4.68884536,3.89842268 4.57908247,3.79948454 4.58918557,3.74290722 C4.59539175,3.71064948 4.64727835,3.67810309 4.74231959,3.6455567 C4.82653608,3.61762887 4.96494845,3.58385567 5.14961856,3.58385567 C5.31595876,3.58385567 5.48280412,3.61149485 5.64604124,3.66648454 C5.95750515,3.77162887 6.04013402,3.87439175 6.08047423,3.92396907 L6.09440206,3.94020619 L6.63239175,3.85909278 L6.59053608,3.80792784 C6.51483505,3.71678351 6.38652577,3.63487629 6.20026804,3.55816495 L6.68868041,3.39362887 L6.25929897,3.24901031 Z" id="d8cc058f" />
                    <path d="M7.56014433,1.55298969 L7.63894845,1.50261856 L7.15031959,1.40606186 L7.13790722,1.41306186 C7.01371134,1.48407216 6.94082474,1.60473196 6.94392784,1.72993814 L6.38270103,1.69609278 L6.42838144,1.91251546 L7.01594845,1.94816495 C7.18979381,2.21575258 7.68073196,2.33605155 8.05469072,2.35856701 C8.11357732,2.3616701 8.16907216,2.36318557 8.2223299,2.36318557 C8.60198969,2.36318557 8.84143299,2.2735567 9.02170103,2.0623299 C9.18804124,1.87765979 9.31072165,1.83349485 9.56820619,1.85052577 C9.67565979,1.85673196 10.0273918,1.89158763 10.0653505,2.07236082 C10.0885876,2.17981443 10.0211856,2.24692784 9.94476289,2.30429897 L9.87887629,2.35365979 L10.3550928,2.45101031 L10.3690206,2.44090722 C10.4697629,2.36448454 10.5183299,2.27615464 10.5183299,2.17259794 L11.0648351,2.2064433 L11.0183608,1.99002062 L10.4532371,1.95516495 C10.3109278,1.74574227 9.92845361,1.59361856 9.46847423,1.56569072 C9.42041237,1.56258763 9.37494845,1.56107216 9.33157732,1.56107216 C8.96923711,1.56107216 8.73549485,1.65921649 8.55031959,1.88805155 C8.42193814,2.03808247 8.25487629,2.09134021 7.97126804,2.07272165 C7.66131959,2.05410309 7.43486598,1.95213402 7.40563918,1.81834021 C7.37756701,1.68519588 7.50436082,1.58863918 7.56014433,1.55298969 Z" id="7cd66ec2" />
                </g>
            </g>
            <g fill="#FFFFFF" id="ec34142e" transform="translate(28.000000, 593.000000)">
                <path d="M8.92758952,0 L0.286458506,0 C0.14212749,0 0.0251355809,0.115933594 0.0251355809,0.258958984 L0.0251355809,12.741041 C0.0251355809,12.8840664 0.14212749,13 0.286458506,13 L8.92758952,13 C9.07192054,13 9.18891245,12.8840664 9.18891245,12.741041 L9.18891245,0.258958984 C9.18891245,0.115933594 9.07192054,0 8.92758952,0 Z M8.6662666,12.482082 L0.547807054,12.482082 L0.547807054,0.517917969 L8.6662666,0.517917969 L8.6662666,12.482082 Z" id="d8abe739" />
                <path d="M7.26167189,2.20113867 L7.16466546,2.20113867 C7.02033444,2.20113867 6.90334253,2.31707227 6.90334253,2.46009766 C6.90334253,2.60312305 7.02033444,2.71905664 7.16466546,2.71905664 L7.26167189,2.71905664 C7.4060029,2.71905664 7.52299481,2.60312305 7.52299481,2.46009766 C7.52302044,2.31707227 7.4060029,2.20113867 7.26167189,2.20113867 Z" id="7fbddf72" />
                <path d="M6.02111183,2.20113867 L1.95237614,2.20113867 C1.80804512,2.20113867 1.69105322,2.31707227 1.69105322,2.46009766 C1.69105322,2.60312305 1.80804512,2.71905664 1.95237614,2.71905664 L6.0210862,2.71905664 C6.16541722,2.71905664 6.28240913,2.60312305 6.28240913,2.46009766 C6.28243475,2.31707227 6.16544284,2.20113867 6.02111183,2.20113867 Z" id="f9ef65b6" />
                <path d="M7.26167189,4.22108984 L1.95237614,4.22108984 C1.80804512,4.22108984 1.69105322,4.33702344 1.69105322,4.48004883 C1.69105322,4.62307422 1.80804512,4.73900781 1.95237614,4.73900781 L7.26167189,4.73900781 C7.4060029,4.73900781 7.52299481,4.62307422 7.52299481,4.48004883 C7.52299481,4.33702344 7.4060029,4.22108984 7.26167189,4.22108984 Z" id="5c75440e" />
                <path d="M7.26167189,6.24104102 L1.95237614,6.24104102 C1.80804512,6.24104102 1.69105322,6.35697461 1.69105322,6.5 C1.69105322,6.64302539 1.80804512,6.75895898 1.95237614,6.75895898 L7.26167189,6.75895898 C7.4060029,6.75895898 7.52299481,6.64302539 7.52299481,6.5 C7.52302044,6.35697461 7.4060029,6.24104102 7.26167189,6.24104102 Z" id="8a2cdbf1" />
                <path d="M7.26167189,8.28775391 L1.95237614,8.28775391 C1.80804512,8.28775391 1.69105322,8.4036875 1.69105322,8.54671289 C1.69105322,8.68973828 1.80804512,8.80567187 1.95237614,8.80567187 L7.26167189,8.80567187 C7.4060029,8.80567187 7.52299481,8.68973828 7.52299481,8.54671289 C7.52302044,8.4036875 7.4060029,8.28775391 7.26167189,8.28775391 Z" id="8c3f493f" />
                <path d="M7.26167189,10.3077051 L1.95237614,10.3077051 C1.80804512,10.3077051 1.69105322,10.4236387 1.69105322,10.5666641 C1.69105322,10.7096895 1.80804512,10.825623 1.95237614,10.825623 L7.26167189,10.825623 C7.4060029,10.825623 7.52299481,10.7096895 7.52299481,10.5666641 C7.52302044,10.4236387 7.4060029,10.3077051 7.26167189,10.3077051 Z" id="86e27ec7" />
                <path d="M11.5147352,2.77499219 L11.5147352,2.31773242 C11.5147352,2.18839258 11.4189842,2.08152344 11.2939469,2.06217578 L11.2939469,1.25597266 C11.2939469,1.11294727 11.176955,0.997013672 11.032624,0.997013672 L10.3766391,0.997013672 C10.2323081,0.997013672 10.1153162,1.11294727 10.1153162,1.25597266 L10.1153162,2.06217578 C9.99030446,2.08152344 9.8945279,2.18839258 9.8945279,2.31773242 L9.8945279,10.6492598 C9.8945279,10.993709 10.1262826,11.2853711 10.4433086,11.3795957 L10.4433086,11.7440273 C10.4433086,11.8870527 10.5603005,12.0029863 10.7046315,12.0029863 C10.8489626,12.0029863 10.9659545,11.8870527 10.9659545,11.7440273 L10.9659545,11.3795957 C11.2830061,11.2853965 11.5147352,10.9936836 11.5147352,10.6492598 L11.5147352,3.31258789 C11.68351,3.38345312 11.8021929,3.54925391 11.8021929,3.74201953 L11.8021929,5.60655469 C11.8021929,5.74958008 11.9191849,5.86551367 12.0635159,5.86551367 C12.2078469,5.86551367 12.3248388,5.74958008 12.3248388,5.60655469 L12.3248388,3.74201953 C12.3248644,3.261375 11.9751954,2.86033008 11.5147352,2.77499219 Z M10.637962,1.51493164 L10.771301,1.51493164 L10.771301,2.05874805 L10.637962,2.05874805 L10.637962,1.51493164 Z M10.4171738,2.57669141 L10.9920893,2.57669141 L10.9920893,8.74003711 L10.4171738,8.74003711 L10.4171738,2.57669141 Z M10.9920893,10.6492598 L10.9920893,10.6492598 C10.9920893,10.784084 10.8814005,10.8937715 10.7453455,10.8937715 L10.6639175,10.8937715 C10.5278369,10.8937715 10.4171738,10.784084 10.4171738,10.6492598 L10.4171738,9.25798047 L10.9920893,9.25798047 L10.9920893,10.6492598 Z" id="87ecf57a" />
            </g>
            <g id="8c41c001" transform="translate(30.000000, 312.000000)">
                <use id="cb4549ca" mask="url(#mask-4)" stroke="#FFFFFF" xlink:href="#path-3" />
                <rect fill="#FFFFFF" height="3.8" id="5c18dfe5" width="3.8" x="1" y="1" />
                <rect fill="#FFFFFF" height="2.4" id="508cc317" width="2.4" x="1" y="10.8" />
                <path d="M5.7,1.25 L9.30555128,1.25" id="b43ceec4" stroke="#FEFEFE" stroke-linecap="square" stroke-width="0.5" />
                <path d="M5.7,3.25 L9.30555128,3.25" id="2fcd50fb" stroke="#FEFEFE" stroke-linecap="square" stroke-width="0.5" />
                <path d="M5.7,1.25 L9.30555128,1.25" id="784ad749" stroke="#FEFEFE" stroke-linecap="square" stroke-width="0.5" />
                <path d="M5.7,4.25 L9.30555128,4.25" id="07765dad" stroke="#FEFEFE" stroke-linecap="square" stroke-width="0.5" />
                <path d="M5.7,2.25 L9.30555128,2.25" id="fc84059d" stroke="#FEFEFE" stroke-linecap="square" stroke-width="0.5" />
                <path d="M5.7,4.25 L9.30555128,4.25" id="3d59042a" stroke="#FEFEFE" stroke-linecap="square" stroke-width="0.5" />
                <path d="M1.1,5.25 L9.3,5.25" id="a2858c16" stroke="#FEFEFE" stroke-linecap="square" stroke-width="0.5" />
                <path d="M1.1,6.25 L9.3,6.25" id="da2ebee3" stroke="#FEFEFE" stroke-linecap="square" stroke-width="0.5" />
                <path d="M1.1,6.25 L9.3,6.25" id="17ece0c1" stroke="#FEFEFE" stroke-linecap="square" stroke-width="0.5" />
                <path d="M1.1,7.25 L6.9,7.25" id="46eeab80" stroke="#FEFEFE" stroke-linecap="square" stroke-width="0.5" />
                <path d="M4.5,10.25 L9.5,10.25" id="f98831b2" stroke="#FEFEFE" stroke-linecap="square" stroke-width="0.5" />
                <path d="M0.9,9.25 L1.5,9.25" id="52041d6b" stroke="#FFFFFF" stroke-linecap="square" stroke-width="0.5" />
                <path d="M3.3,9.25 L3.9,9.25" id="e39815d0" stroke="#FFFFFF" stroke-linecap="square" stroke-width="0.5" />
                <path d="M5.7,9.25 L6.3,9.25" id="b673cb9e" stroke="#FFFFFF" stroke-linecap="square" stroke-width="0.5" />
                <path d="M6.9,9.25 L7.5,9.25" id="4b98921c" stroke="#FFFFFF" stroke-linecap="square" stroke-width="0.5" />
                <path d="M2.1,9.25 L2.7,9.25" id="f9621fa0" stroke="#FFFFFF" stroke-linecap="square" stroke-width="0.5" />
                <path d="M4.5,9.25 L5.1,9.25" id="7bf728b3" stroke="#FFFFFF" stroke-linecap="square" stroke-width="0.5" />
                <path d="M6.9,9.25 L7.5,9.25" id="1882a200" stroke="#FFFFFF" stroke-linecap="square" stroke-width="0.5" />
                <path d="M9.3,9.25 L9.7,9.25" id="4311ec46" stroke="#FFFFFF" stroke-linecap="square" stroke-width="0.5" />
                <path d="M8.1,9.25 L8.7,9.25" id="431cf559" stroke="#FFFFFF" stroke-linecap="square" stroke-width="0.5" />
                <path d="M4.5,11.25 L9.5,11.25" id="d2f95bff" stroke="#FEFEFE" stroke-linecap="square" stroke-width="0.5" />
                <path d="M4.5,12.25 L9.5,12.25" id="684409b5" stroke="#FEFEFE" stroke-linecap="square" stroke-width="0.5" />
            </g>
            <g id="4f23d6e9" stroke-width="0.6" transform="translate(28.000000, 215.500000)">
                <ellipse cx="1.78319783" cy="1.78319783" id="df631bb6" rx="1.78319783" ry="1.78319783" stroke="#FFFEFE" />
                <ellipse cx="7.22764228" cy="5.67208672" id="ed55d676" rx="1.78319783" ry="1.78319783" stroke="#FFFEFE" />
                <ellipse cx="11.1165312" cy="11.8943089" id="952539b1" rx="1.78319783" ry="1.78319783" stroke="#FFFEFE" />
                <path d="M7.19444444,7.77245505 L7.19444444,11.6715181" id="ca67473c" stroke="#FFFFFF" stroke-linecap="square" />
                <path d="M1.78888889,3.88888889 L1.78888889,11.4024561" id="ad5ca2d0" stroke="#FFFFFF" stroke-linecap="square" />
                <path d="M1.83405671,11.8889612 L9.35230352,11.9" id="57d482a4" stroke="#FFFFFF" stroke-linecap="square" />
                <path id="81fa19b8" stroke="#FFFFFF" stroke-linecap="square" />
            </g>
        </g>
    </g>
</svg>