<svg xmlns="http://www.w3.org/2000/svg" xmlns:xlink="http://www.w3.org/1999/xlink" height="667px" version="1.1" viewBox="0 0 375 667" width="375px">
    
    <title />
    <desc>Created with Sketch.</desc>
    <defs>
        <filter filterUnits="objectBoundingBox" height="200%" id="filter-1" width="200%" x="-50%" y="-50%">
            <feGaussianBlur in="SourceGraphic" stdDeviation="50" />
        </filter>
        <rect height="50" id="path-2" rx="4" width="300" x="0" y="0" />
        <mask fill="white" height="50" id="mask-3" maskContentUnits="userSpaceOnUse" maskUnits="objectBoundingBox" width="300" x="0" y="0">
            <use xlink:href="#path-2" />
        </mask>
    </defs>
    <g fill="none" fill-rule="evenodd" id="a9c1a5b3" stroke="none" stroke-width="1">
        <g id="c0fe460f">
            <rect fill="#722047" height="667" id="bb3eb893" width="375" x="0" y="0" />
            <ellipse cx="186" cy="185" fill="#D8D8D8" fill-opacity="0.2" filter="url(#filter-1)" id="5c2643a4" rx="120" ry="185" />
            <rect fill="#FFFFFF" height="62" id="4c91460e" opacity="0.1" width="375" x="0" y="605" />
            <text fill="#FEFEFE" font-family=".HelveticaNeueDeskInterface-Regular, .Helvetica Neue DeskInterface" font-size="30" font-weight="normal" id="e280a2b9" letter-spacing="-0.0500000045">
                <tspan x="152.984947" y="272">Hello</tspan>
            </text>
            <g fill="#FFFFFF" font-family=".HelveticaNeueDeskInterface-Regular, .Helvetica Neue DeskInterface" font-size="15" font-weight="normal" id="7849e282" letter-spacing="-0.0250000022" transform="translate(38.000000, 314.000000)">
                <text id="21e27d60">
                    <tspan x="0" y="14">mymail@gmail.co</tspan>
                    <tspan x="0" y="31">m</tspan>
                </text>
            </g>
            <g fill="#8C8C8C" font-family=".HelveticaNeueDeskInterface-Regular, .Helvetica Neue DeskInterface" font-size="8" font-weight="normal" id="5eb35a99" letter-spacing="-0.0133333346" transform="translate(39.000000, 298.000000)">
                <text id="95d2081f">
                    <tspan x="0.5" y="8">Email Address</tspan>
                </text>
            </g>
            <g fill="#8C8C8C" font-family=".HelveticaNeueDeskInterface-Regular, .Helvetica Neue DeskInterface" font-size="15" font-weight="normal" id="a3ad5e9c" letter-spacing="-0.0250000022" transform="translate(37.000000, 370.000000)">
                <text id="40df3b2d">
                    <tspan x="2.38018293" y="14">Passwor</tspan>
                    <tspan x="26.9926829" y="31">d</tspan>
                </text>
            </g>
            <g id="b923928f" transform="translate(38.000000, 422.000000)">
                <use id="76fb24cd" mask="url(#mask-3)" stroke="#9E9068" xlink:href="#path-2" />
                <text fill="#FFFFFF" font-family=".HelveticaNeueDeskInterface-Regular, .Helvetica Neue DeskInterface" font-size="18" font-weight="normal" id="a71d4979" letter-spacing="-0.0300000031">
                    <tspan x="128.712439" y="32">LOGI</tspan>
                    <tspan x="143.411341" y="53">N</tspan>
                </text>
            </g>
            <text fill="#FFFFFF" font-family=".HelveticaNeueDeskInterface-Regular, .Helvetica Neue DeskInterface" font-size="15" font-weight="normal" id="6ce173a0" letter-spacing="-0.0250000022">
                <tspan x="73.4709756" y="640">Don&#8217;t have an account?</tspan>
                <tspan font-size="18" letter-spacing="-0.0300000031" x="235.024634" y="640"> Sign up </tspan>
                <tspan font-size="18" letter-spacing="-0.0300000031" x="170.270366" y="661">here</tspan>
            </text>
            <text fill="#FFFFFF" font-family=".HelveticaNeueDeskInterface-Regular, .Helvetica Neue DeskInterface" font-size="15" font-weight="normal" id="b8db905a" letter-spacing="-0.0250000022">
                <tspan x="33.4424783" y="538">Forgot your login details?</tspan>
                <tspan letter-spacing="-0.0267857164" x="205.704064" y="538"> </tspan>
                <tspan font-size="18" letter-spacing="-0.0300000031" x="209.915083" y="538">Get help signing </tspan>
                <tspan font-size="18" letter-spacing="-0.0300000031" x="178.386463" y="559">in.</tspan>
            </text>
            <path d="M38.5,334.5 L337.501672,334.5" id="1f3c276c" stroke="#FFFFFF" stroke-linecap="square" />
            <path d="M38.5,391.5 L337.501672,391.5" id="a807614f" opacity="0.5" stroke="#FFFFFF" stroke-linecap="square" />
            <g fill="#9E9068" id="19032f71" transform="translate(113.000000, 51.000000)">
                <path d="M41.0932161,37.3929648 C41.0932161,18.7356784 56.2183417,3.6120603 74.8741206,3.6120603 C93.531407,3.6120603 108.656533,18.7356784 108.656533,37.3929648 C108.656533,56.0502513 93.531407,71.1738693 74.8741206,71.1738693 C56.2183417,71.1738693 41.0932161,56.0502513 41.0932161,37.3929648 M74.8741206,0.00150753769 C54.2238693,0.00150753769 37.4826633,16.7427136 37.4826633,37.3929648 C37.4826633,58.0432161 54.2238693,74.7844221 74.8741206,74.7844221 C95.5258794,74.7844221 112.267085,58.0432161 112.267085,37.3929648 C112.267085,16.7427136 95.5258794,0.00150753769 74.8741206,0.00150753769" id="46f6c83c" />
                <path d="M72.5011055,43.5621106 C72.5011055,44.8736683 73.5639196,45.9349749 74.8754774,45.9349749 C76.1855276,45.9349749 77.2483417,44.8736683 77.2483417,43.5621106 C77.2483417,42.2505528 76.1855276,41.1877387 74.8754774,41.1877387 C73.5639196,41.1877387 72.5011055,42.2505528 72.5011055,43.5621106 L72.5011055,43.5621106 Z M92.5498492,16.5711558 C92.3840201,16.5711558 92.2287437,16.6374874 92.1141709,16.7505528 L74.840804,34.0103518 L57.5764824,16.7535678 C57.4619095,16.638995 57.3051256,16.5711558 57.1362814,16.5711558 L54.7091457,16.5711558 C54.3654271,16.5711558 54.0865327,16.8500503 54.0865327,17.1937688 L54.0865327,57.5912563 C54.0865327,57.9349749 54.3654271,58.2138693 54.7091457,58.2138693 L57.0126633,58.2138693 C57.3563819,58.2138693 57.6352764,57.9349749 57.6352764,57.5912563 L57.6352764,21.800804 L72.3443216,36.5068342 L67.9980905,40.8530653 C70.9272362,40.8530653 72.9247236,40.9239196 74.8423116,39.0033166 C76.7598995,40.9239196 78.7573869,40.8530653 81.6850251,40.8530653 L77.338794,36.5068342 L92.0523618,21.7842211 L92.0523618,57.5912563 C92.0523618,57.9349749 92.3312563,58.2138693 92.6749749,58.2138693 L95.0403015,58.2138693 C95.3840201,58.2138693 95.6629146,57.9349749 95.6629146,57.5912563 L95.6629146,17.1937688 C95.6629146,16.8500503 95.3840201,16.5711558 95.0403015,16.5711558 L92.5498492,16.5711558 Z" id="fbaab399" />
                <path d="M18.4159296,94.3650754 L17.0757286,94.3650754 C16.9852764,94.3650754 16.9008543,94.4103015 16.849598,94.4856784 L9.39030151,105.474121 L1.93100503,94.4856784 C1.87974874,94.4103015 1.79532663,94.3650754 1.70487437,94.3650754 L0.364673367,94.3650754 C0.213919598,94.3650754 0.0918090452,94.4871859 0.0918090452,94.6379397 L0.0918090452,113.783668 C0.0918090452,113.934422 0.213919598,114.056533 0.364673367,114.056533 L1.73201005,114.056533 C1.88427136,114.056533 2.00638191,113.934422 2.00638191,113.783668 L2.00638191,98.0359296 L9.08276382,108.330905 C9.1340201,108.406281 9.21844221,108.45 9.30889447,108.45 L9.41743719,108.45 C9.50788945,108.45 9.59231156,108.406281 9.64356784,108.330905 L16.7199497,98.0359296 L16.7199497,113.783668 C16.7199497,113.934422 16.8420603,114.056533 16.9943216,114.056533 L18.4159296,114.056533 C18.5666834,114.056533 18.688794,113.934422 18.688794,113.783668 L18.688794,94.6379397 C18.688794,94.4871859 18.5666834,94.3650754 18.4159296,94.3650754" id="77b7a614" />
                <path d="M34.3614573,94.3869347 C34.3162312,94.2904523 34.2197487,94.2286432 34.1127136,94.2286432 L32.7453769,94.2286432 C32.6398492,94.2286432 32.5418593,94.2904523 32.4981407,94.3869347 L23.5810553,113.668342 C23.5418593,113.752764 23.549397,113.852261 23.5991457,113.930653 C23.6488945,114.009045 23.7363317,114.057286 23.829799,114.057286 L25.3071859,114.057286 C25.4142211,114.057286 25.5107035,113.99397 25.5559296,113.89598 L27.9167337,108.696482 L38.8599497,108.696482 L41.2207538,113.89598 C41.2659799,113.99397 41.3624623,114.057286 41.471005,114.057286 L43.029799,114.057286 C43.1232663,114.057286 43.209196,114.009045 43.2589447,113.930653 C43.310201,113.852261 43.3162312,113.752764 43.2770352,113.668342 L34.3614573,94.3869347 Z M38.0096985,106.863317 L28.7684925,106.863317 L33.4011558,96.720603 L38.0096985,106.863317 Z" id="9fa22167" />
                <path d="M61.1056281,112.197136 L50.1382915,112.197136 L50.1382915,94.6388442 C50.1382915,94.4880905 50.0161809,94.3644724 49.8654271,94.3644724 L48.4423116,94.3644724 C48.2915578,94.3644724 48.1694472,94.4880905 48.1694472,94.6388442 L48.1694472,113.783065 C48.1694472,113.933819 48.2915578,114.057437 48.4423116,114.057437 L61.1056281,114.057437 C61.2563819,114.057437 61.3784925,113.933819 61.3784925,113.783065 L61.3784925,112.47 C61.3784925,112.319246 61.2563819,112.197136 61.1056281,112.197136" id="bd93af9f" />
                <path d="M75.8253769,94.3869347 C75.7801508,94.2904523 75.6836683,94.2286432 75.5766332,94.2286432 L74.2092965,94.2286432 C74.1037688,94.2286432 74.0057789,94.2904523 73.9620603,94.3869347 L65.0449749,113.668342 C65.0057789,113.752764 65.0133166,113.852261 65.0630653,113.930653 C65.1128141,114.009045 65.2002513,114.057286 65.2937186,114.057286 L66.7711055,114.057286 C66.8781407,114.057286 66.9746231,113.99397 67.0198492,113.89598 L69.3806533,108.696482 L80.3238693,108.696482 L82.6846734,113.89598 C82.7298995,113.99397 82.8263819,114.057286 82.9349246,114.057286 L84.4937186,114.057286 C84.5856784,114.057286 84.6731156,114.009045 84.7243719,113.930653 C84.7741206,113.852261 84.7801508,113.752764 84.7409548,113.668342 L75.8253769,94.3869347 Z M79.4736181,106.863317 L70.2324121,106.863317 L74.8650754,96.720603 L79.4736181,106.863317 Z" id="13909b5c" />
                <path d="M101.535678,103.882161 C102.915075,103.155528 104.292965,101.821357 104.292965,99.3972362 L104.292965,99.3429648 C104.292965,96.3188442 101.748241,94.3650754 97.8105528,94.3650754 L89.9065327,94.3650754 C89.7557789,94.3650754 89.6336683,94.4871859 89.6336683,94.6379397 L89.6336683,113.783668 C89.6336683,113.934422 89.7557789,114.056533 89.9065327,114.056533 L98.220603,114.056533 C102.557789,114.056533 105.360302,111.899246 105.360302,108.56005 L105.360302,108.504271 C105.360302,106.315327 104.041206,104.727889 101.535678,103.882161 M98.2763819,112.197739 L91.6025126,112.197739 L91.6025126,105.059548 L97.8105528,105.059548 C101.390955,105.059548 103.362814,106.282161 103.362814,108.504271 L103.362814,108.56005 C103.362814,110.803266 101.413568,112.197739 98.2763819,112.197739 M97.6462312,103.199246 L91.6025126,103.199246 L91.6025126,96.2253769 L97.7834171,96.2253769 C100.608543,96.2253769 102.296985,97.4419598 102.296985,99.4801508 L102.296985,99.5344221 C102.296985,101.794221 100.515075,103.199246 97.6462312,103.199246" id="2e6ee975" />
                <path d="M119.713719,94.3869347 C119.668492,94.2904523 119.57201,94.2286432 119.464975,94.2286432 L118.097638,94.2286432 C117.990603,94.2286432 117.894121,94.2904523 117.850402,94.3869347 L108.933317,113.668342 C108.894121,113.752764 108.901658,113.852261 108.951407,113.930653 C109.001156,114.009045 109.088593,114.057286 109.18206,114.057286 L110.659447,114.057286 C110.766482,114.057286 110.862965,113.99397 110.908191,113.89598 L113.268995,108.696482 L124.212211,108.696482 L126.573015,113.89598 C126.618241,113.99397 126.714724,114.057286 126.823266,114.057286 L128.38206,114.057286 C128.47402,114.057286 128.561457,114.009045 128.612714,113.930653 C128.662462,113.852261 128.668492,113.752764 128.629296,113.668342 L119.713719,94.3869347 Z M123.36196,106.863317 L114.120754,106.863317 L118.753417,96.720603 L123.36196,106.863317 Z" id="787d7ce1" />
                <path d="M149.600955,113.616181 L143.564774,105.804121 C146.946181,105.195075 148.946683,103.101106 148.946683,100.135779 L148.946683,100.081508 C148.946683,96.6624121 146.089899,94.3649246 141.835628,94.3649246 L133.79593,94.3649246 C133.643668,94.3649246 133.521558,94.4870352 133.521558,94.6377889 L133.521558,113.783518 C133.521558,113.934271 133.643668,114.056382 133.79593,114.056382 L135.217538,114.056382 C135.368291,114.056382 135.490402,113.934271 135.490402,113.783518 L135.490402,106.125226 L141.345678,106.125226 L147.362261,113.949347 C147.415025,114.017186 147.494925,114.056382 147.579347,114.056382 L149.385377,114.056382 C149.489397,114.056382 149.584372,113.997588 149.629598,113.904121 C149.676332,113.810653 149.664271,113.699095 149.600955,113.616181 L149.600955,113.616181 Z M135.490402,96.2252261 L141.754221,96.2252261 C145.025578,96.2252261 146.977839,97.6875377 146.977839,100.135779 L146.977839,100.19005 C146.977839,102.68201 144.89593,104.293568 141.671307,104.293568 L135.490402,104.293568 L135.490402,96.2252261 Z" id="20330284" />
                <path d="M9.14743719,125.983568 L5.10723618,125.983568 C5.0318593,125.983568 4.97005025,126.045377 4.97005025,126.120754 L4.97005025,126.803668 C4.97005025,126.879045 5.0318593,126.939347 5.10723618,126.939347 L8.29869347,126.939347 L8.29869347,129.598643 C7.65648241,130.120251 6.53788945,130.662965 5.2640201,130.662965 C2.79316583,130.662965 1.13336683,128.912714 1.13336683,126.306181 L1.13336683,126.277538 C1.13336683,123.856432 2.87909548,121.961457 5.10723618,121.961457 C6.67658291,121.961457 7.56,122.547889 8.21879397,123.122261 C8.24592965,123.146382 8.27909548,123.156935 8.31678392,123.155427 C8.35296482,123.15392 8.38763819,123.137337 8.41175879,123.108693 L8.89567839,122.55392 C8.91979899,122.526784 8.9318593,122.490603 8.92884422,122.452915 C8.92582915,122.416734 8.90773869,122.38206 8.87909548,122.359447 C7.73035176,121.406683 6.64944724,121.019246 5.15095477,121.019246 C1.98361809,121.019246 0.0916582915,123.707186 0.0916582915,126.306181 L0.0916582915,126.333317 C0.0916582915,129.429799 2.20673367,131.591608 5.23537688,131.591608 C7.2961809,131.591608 8.72080402,130.522764 9.23788945,130.062965 C9.2680402,130.037337 9.28462312,129.999648 9.28462312,129.96196 L9.28462312,126.120754 C9.28462312,126.045377 9.22281407,125.983568 9.14743719,125.983568" id="f2ff7efc" />
                <path d="M17.1131156,121.019095 C13.8839698,121.019095 11.9543216,123.707035 11.9543216,126.30603 L11.9543216,126.333166 C11.9543216,129.331658 14.1598492,131.591457 17.0844724,131.591457 C20.2970352,131.591457 22.2236683,128.929146 22.2432663,126.343719 C22.2568342,126.309045 22.2568342,126.272864 22.2432663,126.238191 C22.2236683,123.260804 20.0256784,121.019095 17.1131156,121.019095 M17.1131156,130.649246 C14.8050754,130.649246 12.9960302,128.740704 12.9960302,126.30603 L12.9960302,126.277387 C12.9960302,123.817085 14.7538191,121.961307 17.0844724,121.961307 C19.3925126,121.961307 21.2015578,123.869849 21.2015578,126.30603 L21.2015578,126.333166 C21.2015578,128.793467 19.4437688,130.649246 17.1131156,130.649246" id="763a6f0b" />
                <path d="M31.9207538,130.464573 L26.2117085,130.464573 L26.2117085,121.325879 C26.2117085,121.250503 26.1498995,121.190201 26.0745226,121.190201 L25.3343216,121.190201 C25.2589447,121.190201 25.1971357,121.250503 25.1971357,121.325879 L25.1971357,131.284673 C25.1971357,131.36005 25.2589447,131.420352 25.3343216,131.420352 L31.9207538,131.420352 C31.9961307,131.420352 32.0579397,131.36005 32.0579397,131.284673 L32.0579397,130.601759 C32.0579397,130.526382 31.9961307,130.464573 31.9207538,130.464573" id="58800f96" />
                <path d="M38.1652764,121.189749 L34.850201,121.189749 C34.7748241,121.189749 34.7145226,121.251558 34.7145226,121.326935 L34.7145226,131.284221 C34.7145226,131.359598 34.7748241,131.421407 34.850201,131.421407 L38.1652764,131.421407 C41.3115075,131.421407 43.5939196,129.270151 43.5939196,126.304824 L43.5939196,126.276181 C43.5939196,123.328945 41.3115075,121.189749 38.1652764,121.189749 M38.1652764,130.464121 L35.7275879,130.464121 L35.7275879,122.145528 L38.1652764,122.145528 C40.7069849,122.145528 42.5522111,123.895779 42.5522111,126.304824 L42.5522111,126.333467 C42.5522111,128.766633 40.7476884,130.464121 38.1652764,130.464121" id="a8af2753" />
                <path d="M56.8106533,129.095427 C57.2975879,128.423065 57.7649246,127.577337 58.2367839,126.517538 C58.2518593,126.482864 58.2518593,126.445176 58.2382915,126.410503 C58.2247236,126.375829 58.1975879,126.348693 58.1629146,126.335126 L57.4935678,126.065276 C57.4242211,126.036633 57.3458291,126.069799 57.3171859,126.139146 C56.9342714,127.043668 56.5453266,127.783869 56.1307538,128.39593 L53.7774874,125.977839 C55.3498492,125.388392 56.1141709,124.521558 56.1141709,123.332111 C56.1141709,122.035628 55.0483417,121.019548 53.6870352,121.019548 C52.1900503,121.019548 51.0609045,122.056734 51.0609045,123.431608 C51.0609045,124.29995 51.4302513,124.925578 52.0739698,125.664271 C50.4518593,126.312513 49.5955779,127.342161 49.5955779,128.652211 C49.5955779,130.339146 50.9403015,131.563266 52.7915578,131.563266 C54.0669347,131.563266 55.1719598,131.020553 56.1669347,129.906482 L57.7860302,131.578342 C57.8116583,131.605477 57.8478392,131.620553 57.8840201,131.620553 C57.9141709,131.620553 57.9458291,131.61 57.9714573,131.588894 L58.5548744,131.104975 C58.5835176,131.080854 58.601608,131.044673 58.6031156,131.006985 C58.6061307,130.969296 58.5910553,130.931608 58.5654271,130.904472 L56.8106533,129.095427 Z M53.658392,121.91804 C54.4815075,121.91804 55.1011055,122.539146 55.1011055,123.360754 C55.1011055,124.230603 54.4558794,124.868291 53.1307538,125.308492 C52.3227136,124.440151 52.0739698,123.987889 52.0739698,123.402965 C52.0739698,122.542161 52.7403015,121.91804 53.658392,121.91804 L53.658392,121.91804 Z M52.8051256,130.649698 C51.5327638,130.649698 50.6086432,129.79794 50.6086432,128.623568 C50.6086432,127.631608 51.3548744,126.820553 52.7116583,126.335126 L55.5081407,129.226583 C54.6714573,130.170302 53.7624121,130.649698 52.8051256,130.649698 L52.8051256,130.649698 Z" id="e1373054" />
                <path d="M68.270804,121.189749 L64.9557286,121.189749 C64.8803518,121.189749 64.8200503,121.251558 64.8200503,121.326935 L64.8200503,131.284221 C64.8200503,131.359598 64.8803518,131.421407 64.9557286,131.421407 L68.270804,131.421407 C71.4170352,131.421407 73.6994472,129.270151 73.6994472,126.304824 L73.6994472,126.276181 C73.6994472,123.328945 71.4170352,121.189749 68.270804,121.189749 M68.270804,130.464121 L65.8331156,130.464121 L65.8331156,122.145528 L68.270804,122.145528 C70.8125126,122.145528 72.6577387,123.895779 72.6577387,126.304824 L72.6577387,126.333467 C72.6577387,128.766633 70.8532161,130.464121 68.270804,130.464121" id="bba0ef42" />
                <path d="M77.6303518,121.189749 L76.8901508,121.189749 C76.8147739,121.189749 76.7529648,121.251558 76.7529648,121.326935 L76.7529648,131.284221 C76.7529648,131.359598 76.8147739,131.421407 76.8901508,131.421407 L77.6303518,131.421407 C77.7057286,131.421407 77.7675377,131.359598 77.7675377,131.284221 L77.7675377,121.326935 C77.7675377,121.251558 77.7057286,121.189749 77.6303518,121.189749" id="df220f31" />
                <path d="M86.019196,121.19804 C85.9965829,121.149799 85.9483417,121.118141 85.8955779,121.118141 L85.1840201,121.118141 C85.1297487,121.118141 85.0815075,121.149799 85.0588945,121.19804 L80.4217085,131.226181 C80.4021106,131.268392 80.4066332,131.318141 80.4307538,131.357337 C80.4563819,131.396533 80.5001005,131.420653 80.5468342,131.420653 L81.3141709,131.420653 C81.3684422,131.420653 81.4166834,131.388995 81.4392965,131.340754 L82.6694472,128.633216 L88.3679397,128.633216 L89.5965829,131.340754 C89.619196,131.388995 89.6674372,131.420653 89.7217085,131.420653 L90.5327638,131.420653 C90.5794975,131.420653 90.6232161,131.396533 90.6473367,131.357337 C90.6729648,131.318141 90.6759799,131.268392 90.6563819,131.226181 L86.019196,121.19804 Z M87.9307538,127.691005 L83.1066332,127.691005 L85.5247236,122.396533 L87.9307538,127.691005 Z" id="aad2cb9f" />
                <path d="M102.736734,121.189749 L102.040251,121.189749 C101.995025,121.189749 101.952814,121.212362 101.927186,121.25005 L98.0422613,126.972663 L94.1588442,121.25005 C94.1332161,121.212362 94.091005,121.189749 94.0442714,121.189749 L93.3477889,121.189749 C93.2724121,121.189749 93.2121106,121.251558 93.2121106,121.326935 L93.2121106,131.284221 C93.2121106,131.359598 93.2724121,131.421407 93.3477889,131.421407 L94.0593467,131.421407 C94.1347236,131.421407 94.1965327,131.359598 94.1965327,131.284221 L94.1965327,123.075678 L97.8869849,128.445528 C97.9126131,128.483216 97.9548241,128.504322 98.0000503,128.504322 L98.0573367,128.504322 C98.1025628,128.504322 98.1432663,128.483216 98.170402,128.445528 L101.860854,123.075678 L101.860854,131.284221 C101.860854,131.359598 101.921156,131.421407 101.996533,131.421407 L102.736734,131.421407 C102.812111,131.421407 102.87392,131.359598 102.87392,131.284221 L102.87392,121.326935 C102.87392,121.251558 102.812111,121.189749 102.736734,121.189749" id="6e0f5455" />
                <path d="M110.987186,121.019095 C107.75804,121.019095 105.828392,123.707035 105.828392,126.30603 L105.828392,126.333166 C105.828392,129.331658 108.03392,131.591457 110.958543,131.591457 C114.171106,131.591457 116.097739,128.929146 116.117337,126.343719 C116.130905,126.309045 116.130905,126.272864 116.117337,126.238191 C116.097739,123.260804 113.898241,121.019095 110.987186,121.019095 M110.987186,130.649246 C108.679146,130.649246 106.870101,128.740704 106.870101,126.30603 L106.870101,126.277387 C106.870101,123.817085 108.627889,121.961307 110.958543,121.961307 C113.266583,121.961307 115.075628,123.869849 115.075628,126.30603 L115.075628,126.333166 C115.075628,128.793467 113.317839,130.649246 110.987186,130.649246" id="1d50bc42" />
                <path d="M127.487789,121.189749 L126.776231,121.189749 C126.700854,121.189749 126.639045,121.251558 126.639045,121.326935 L126.639045,129.597286 L120.013417,121.241005 C119.986281,121.209347 119.947085,121.189749 119.904874,121.189749 L119.208392,121.189749 C119.133015,121.189749 119.071206,121.251558 119.071206,121.326935 L119.071206,131.284221 C119.071206,131.359598 119.133015,131.421407 119.208392,131.421407 L119.91995,131.421407 C119.995327,131.421407 120.057136,131.359598 120.057136,131.284221 L120.057136,122.828442 L126.82598,131.368643 C126.851608,131.401809 126.890804,131.421407 126.933015,131.421407 L127.487789,131.421407 C127.563166,131.421407 127.624975,131.359598 127.624975,131.284221 L127.624975,121.326935 C127.624975,121.251558 127.563166,121.189749 127.487789,121.189749" id="9211c115" />
                <path d="M134.471156,121.189749 L131.157588,121.189749 C131.080704,121.189749 131.020402,121.251558 131.020402,121.326935 L131.020402,131.284221 C131.020402,131.359598 131.080704,131.421407 131.157588,131.421407 L134.471156,131.421407 C137.617387,131.421407 139.899799,129.270151 139.899799,126.304824 L139.899799,126.276181 C139.899799,123.328945 137.617387,121.189749 134.471156,121.189749 M134.471156,130.464121 L132.033467,130.464121 L132.033467,122.145528 L134.471156,122.145528 C137.012864,122.145528 138.85809,123.895779 138.85809,126.304824 L138.85809,126.333467 C138.85809,128.766633 137.055075,130.464121 134.471156,130.464121" id="fa27c49f" />
                <path d="M146.277136,125.801457 C143.929899,125.320553 143.485176,124.713015 143.485176,123.758744 L143.485176,123.730101 C143.485176,122.721558 144.45,121.988894 145.779648,121.988894 C146.901256,121.988894 147.790704,122.326583 148.663568,123.080352 C148.692211,123.104472 148.728392,123.116533 148.76608,123.113518 C148.802261,123.108995 148.836935,123.090905 148.859548,123.062261 L149.328392,122.478844 C149.352513,122.450201 149.363065,122.415528 149.358543,122.379347 C149.35402,122.343166 149.33593,122.31 149.308794,122.287387 C148.211307,121.406985 147.198241,121.048191 145.808291,121.048191 C143.905779,121.048191 142.470603,122.231608 142.470603,123.802462 L142.470603,123.829598 C142.470603,125.417035 143.474623,126.268794 145.93794,126.766281 C148.212814,127.224573 148.64397,127.817035 148.64397,128.751709 L148.64397,128.780352 C148.64397,129.864271 147.665578,130.621055 146.263568,130.621055 C144.887186,130.621055 143.911809,130.217035 142.785678,129.178342 C142.758543,129.152714 142.722362,129.139146 142.686181,129.142161 C142.648492,129.143668 142.613819,129.160251 142.589698,129.188894 L142.107286,129.743668 C142.057538,129.799447 142.06206,129.885377 142.117839,129.935126 C143.379648,131.061256 144.644472,131.563266 146.221357,131.563266 C148.244472,131.563266 149.658543,130.390402 149.658543,128.709497 L149.658543,128.680854 C149.658543,127.144673 148.646985,126.283869 146.277136,125.801457" id="eecc15ec" />
                <path d="M4.77663317,155.721859 C4.74949749,155.696231 4.70728643,155.696231 4.68015075,155.721859 C4.08768844,156.306784 3.56155779,156.544975 2.86507538,156.544975 C1.62135678,156.544975 0.647487437,155.506281 0.647487437,154.164573 C0.647487437,152.824372 1.59723618,151.814322 2.85753769,151.814322 C3.71532663,151.814322 4.23693467,152.206281 4.63341709,152.590704 C4.6620603,152.616332 4.70427136,152.616332 4.73140704,152.589196 L5.0178392,152.295226 C5.0298995,152.281658 5.03743719,152.263568 5.03743719,152.245477 C5.03592965,152.225879 5.02839196,152.209296 5.01482412,152.195729 C4.43592965,151.665075 3.84949749,151.312312 2.86507538,151.312312 C1.31080402,151.312312 0.0912060302,152.572613 0.0912060302,154.194724 C0.0912060302,155.819849 1.27763819,157.046985 2.85,157.046985 C3.92638191,157.046985 4.56407035,156.56005 5.04798995,156.083668 C5.06005025,156.070101 5.06758794,156.05201 5.06758794,156.03392 C5.06758794,156.015829 5.06005025,155.997739 5.04648241,155.984171 L4.77663317,155.721859 Z" id="ff9945cf" />
                <path d="M10.571608,156.444724 L7.15552764,156.444724 L7.15552764,154.411055 L10.1856784,154.411055 C10.2233668,154.411055 10.2535176,154.379397 10.2535176,154.341709 L10.2535176,153.970854 C10.2535176,153.933166 10.2233668,153.901508 10.1856784,153.901508 L7.15552764,153.901508 L7.15552764,151.914573 L10.5324121,151.914573 C10.571608,151.914573 10.6017588,151.882915 10.6017588,151.845226 L10.6017588,151.474372 C10.6017588,151.436683 10.571608,151.405025 10.5324121,151.405025 L6.68366834,151.405025 C6.6459799,151.405025 6.61432161,151.436683 6.61432161,151.474372 L6.61432161,156.884925 C6.61432161,156.922613 6.6459799,156.954271 6.68366834,156.954271 L10.571608,156.954271 C10.6092965,156.954271 10.6409548,156.922613 10.6409548,156.884925 L10.6409548,156.51407 C10.6409548,156.476382 10.6092965,156.444724 10.571608,156.444724" id="33dbd9a8" />
                <path d="M16.0207538,156.444724 L12.9137186,156.444724 L12.9137186,151.474372 C12.9137186,151.436683 12.8820603,151.405025 12.8443719,151.405025 L12.4418593,151.405025 C12.4041709,151.405025 12.3725126,151.436683 12.3725126,151.474372 L12.3725126,156.884925 C12.3725126,156.922613 12.4041709,156.954271 12.4418593,156.954271 L16.0207538,156.954271 C16.0584422,156.954271 16.0901005,156.922613 16.0901005,156.884925 L16.0901005,156.51407 C16.0901005,156.476382 16.0584422,156.444724 16.0207538,156.444724" id="05828f27" />
                <path d="M21.6940704,156.444724 L18.2779899,156.444724 L18.2779899,154.411055 L21.3081407,154.411055 C21.3458291,154.411055 21.3759799,154.379397 21.3759799,154.341709 L21.3759799,153.970854 C21.3759799,153.933166 21.3458291,153.901508 21.3081407,153.901508 L18.2779899,153.901508 L18.2779899,151.914573 L21.6548744,151.914573 C21.6940704,151.914573 21.7242211,151.882915 21.7242211,151.845226 L21.7242211,151.474372 C21.7242211,151.436683 21.6940704,151.405025 21.6548744,151.405025 L17.8061307,151.405025 C17.7684422,151.405025 17.7367839,151.436683 17.7367839,151.474372 L17.7367839,156.884925 C17.7367839,156.922613 17.7684422,156.954271 17.8061307,156.954271 L21.6940704,156.954271 C21.7317588,156.954271 21.7634171,156.922613 21.7634171,156.884925 L21.7634171,156.51407 C21.7634171,156.476382 21.7317588,156.444724 21.6940704,156.444724" id="595af7fb" />
                <path d="M26.829799,154.08799 C27.2232663,153.88598 27.6212563,153.509095 27.6212563,152.803568 C27.6212563,151.954824 26.9066834,151.404573 25.7986432,151.404573 L23.5644724,151.404573 C23.5267839,151.404573 23.4951256,151.436231 23.4951256,151.47392 L23.4951256,156.884472 C23.4951256,156.922161 23.5267839,156.953819 23.5644724,156.953819 L25.9147236,156.953819 C27.1343216,156.953819 27.9227638,156.346281 27.9227638,155.39201 C27.9227638,154.772412 27.5458794,154.324673 26.829799,154.08799 L26.829799,154.08799 Z M25.929799,156.444271 L24.0363317,156.444271 L24.0363317,154.410603 L25.7986432,154.410603 C26.8162312,154.410603 27.3755276,154.760352 27.3755276,155.408593 C27.3755276,156.047789 26.8222613,156.444271 25.929799,156.444271 L25.929799,156.444271 Z M25.7911055,151.914121 C26.5825628,151.914121 27.0740201,152.269899 27.0740201,152.857839 C27.0740201,153.501558 26.5674874,153.901055 25.7519095,153.901055 L24.0363317,153.901055 L24.0363317,151.914121 L25.7911055,151.914121 Z" id="cafeb6e2" />
                <path d="M32.4708543,154.62392 C33.4296482,154.455075 33.9979899,153.865628 33.9979899,153.012362 C33.9979899,152.050553 33.1944724,151.405327 31.9974874,151.405327 L29.7241206,151.405327 C29.6864322,151.405327 29.6562814,151.435477 29.6562814,151.474673 L29.6562814,156.885226 C29.6562814,156.922915 29.6864322,156.954573 29.7241206,156.954573 L30.1266332,156.954573 C30.1643216,156.954573 30.1959799,156.922915 30.1959799,156.885226 L30.1959799,154.712864 L31.861809,154.712864 L33.5653266,156.92593 C33.5788945,156.94402 33.5984925,156.954573 33.619598,156.954573 L34.1306533,156.954573 C34.1562814,156.954573 34.180402,156.93799 34.1924623,156.915377 C34.2045226,156.891256 34.2015075,156.864121 34.1849246,156.841508 L32.4708543,154.62392 Z M30.1959799,151.914874 L31.9733668,151.914874 C32.9035176,151.914874 33.4582915,152.330955 33.4582915,153.04402 C33.4582915,153.752563 32.8673367,154.210854 31.9507538,154.210854 L30.1959799,154.210854 L30.1959799,151.914874 Z" id="77b0bdf4" />
                <path d="M38.3977387,151.406533 C38.3856784,151.382412 38.3615578,151.365829 38.3344221,151.365829 L37.9484925,151.365829 C37.9213568,151.365829 37.8972362,151.382412 37.8851759,151.406533 L35.3660804,156.856281 C35.3570352,156.877387 35.3585427,156.901508 35.370603,156.922613 C35.3841709,156.942211 35.4052764,156.954271 35.429397,156.954271 L35.8469849,156.954271 C35.8741206,156.954271 35.8982412,156.937688 35.908794,156.913568 L36.5781407,155.439196 L39.6821608,155.439196 L40.3515075,156.913568 C40.3620603,156.937688 40.3876884,156.954271 40.4148241,156.954271 L40.8550251,156.954271 C40.8791457,156.954271 40.9002513,156.942211 40.9123116,156.922613 C40.9258794,156.901508 40.9273869,156.877387 40.9168342,156.856281 L38.3977387,151.406533 Z M39.45,154.937186 L36.811809,154.937186 L38.1339196,152.042714 L39.45,154.937186 Z" id="87ade8e7" />
                <path d="M45.6699497,151.405327 L41.4955779,151.405327 C41.4578894,151.405327 41.4277387,151.435477 41.4277387,151.474673 L41.4277387,151.845528 C41.4277387,151.883216 41.4578894,151.914874 41.4955779,151.914874 L43.3136683,151.914874 L43.3136683,156.885226 C43.3136683,156.922915 43.3438191,156.954573 43.3815075,156.954573 L43.7840201,156.954573 C43.8217085,156.954573 43.8533668,156.922915 43.8533668,156.885226 L43.8533668,151.914874 L45.6699497,151.914874 C45.7076382,151.914874 45.7392965,151.883216 45.7392965,151.845528 L45.7392965,151.474673 C45.7392965,151.435477 45.7076382,151.405327 45.6699497,151.405327" id="14caeb68" />
                <path d="M51.3586432,156.444724 L47.9425628,156.444724 L47.9425628,154.411055 L50.9727136,154.411055 C51.010402,154.411055 51.0405528,154.379397 51.0405528,154.341709 L51.0405528,153.970854 C51.0405528,153.933166 51.010402,153.901508 50.9727136,153.901508 L47.9425628,153.901508 L47.9425628,151.914573 L51.3194472,151.914573 C51.3586432,151.914573 51.388794,151.882915 51.388794,151.845226 L51.388794,151.474372 C51.388794,151.436683 51.3586432,151.405025 51.3194472,151.405025 L47.4707035,151.405025 C47.4330151,151.405025 47.4013568,151.436683 47.4013568,151.474372 L47.4013568,156.884925 C47.4013568,156.922613 47.4330151,156.954271 47.4707035,156.954271 L51.3586432,156.954271 C51.3963317,156.954271 51.4279899,156.922613 51.4279899,156.884925 L51.4279899,156.51407 C51.4279899,156.476382 51.3963317,156.444724 51.3586432,156.444724" id="dc327b81" />
                <path d="M59.9149749,151.405327 L55.740603,151.405327 C55.7029146,151.405327 55.6727638,151.435477 55.6727638,151.474673 L55.6727638,151.845528 C55.6727638,151.883216 55.7029146,151.914874 55.740603,151.914874 L57.5586935,151.914874 L57.5586935,156.885226 C57.5586935,156.922915 57.5888442,156.954573 57.6265327,156.954573 L58.0290452,156.954573 C58.0667337,156.954573 58.098392,156.922915 58.098392,156.885226 L58.098392,151.914874 L59.9149749,151.914874 C59.9526633,151.914874 59.9843216,151.883216 59.9843216,151.845528 L59.9843216,151.474673 C59.9843216,151.435477 59.9526633,151.405327 59.9149749,151.405327" id="d7b45d45" />
                <path d="M65.9823618,151.405327 L65.5798492,151.405327 C65.5421608,151.405327 65.5120101,151.435477 65.5120101,151.474673 L65.5120101,153.909347 L62.1863819,153.909347 L62.1863819,151.474673 C62.1863819,151.435477 62.1562312,151.405327 62.1185427,151.405327 L61.7160302,151.405327 C61.6783417,151.405327 61.6466834,151.435477 61.6466834,151.474673 L61.6466834,156.885226 C61.6466834,156.922915 61.6783417,156.954573 61.7160302,156.954573 L62.1185427,156.954573 C62.1562312,156.954573 62.1863819,156.922915 62.1863819,156.885226 L62.1863819,154.418894 L65.5120101,154.418894 L65.5120101,156.885226 C65.5120101,156.922915 65.5421608,156.954573 65.5798492,156.954573 L65.9823618,156.954573 C66.0200503,156.954573 66.0517085,156.922915 66.0517085,156.885226 L66.0517085,151.474673 C66.0517085,151.435477 66.0200503,151.405327 65.9823618,151.405327" id="5ecfb096" />
                <path d="M72.0575879,156.444724 L68.6415075,156.444724 L68.6415075,154.411055 L71.6716583,154.411055 C71.7093467,154.411055 71.7394975,154.379397 71.7394975,154.341709 L71.7394975,153.970854 C71.7394975,153.933166 71.7093467,153.901508 71.6716583,153.901508 L68.6415075,153.901508 L68.6415075,151.914573 L72.018392,151.914573 C72.0575879,151.914573 72.0877387,151.882915 72.0877387,151.845226 L72.0877387,151.474372 C72.0877387,151.436683 72.0575879,151.405025 72.018392,151.405025 L68.1696482,151.405025 C68.1319598,151.405025 68.1003015,151.436683 68.1003015,151.474372 L68.1003015,156.884925 C68.1003015,156.922613 68.1319598,156.954271 68.1696482,156.954271 L72.0575879,156.954271 C72.0952764,156.954271 72.1269347,156.922613 72.1269347,156.884925 L72.1269347,156.51407 C72.1269347,156.476382 72.0952764,156.444724 72.0575879,156.444724" id="15e8852b" />
                <path d="M80.091407,154.08799 C80.4848744,153.88598 80.8843719,153.509095 80.8843719,152.803568 C80.8843719,151.954824 80.1682915,151.404573 79.0602513,151.404573 L76.8260804,151.404573 C76.788392,151.404573 76.7567337,151.436231 76.7567337,151.47392 L76.7567337,156.884472 C76.7567337,156.922161 76.788392,156.953819 76.8260804,156.953819 L79.1763317,156.953819 C80.3959296,156.953819 81.1858794,156.346281 81.1858794,155.39201 C81.1858794,154.772412 80.8074874,154.324673 80.091407,154.08799 L80.091407,154.08799 Z M79.191407,156.444271 L77.2979397,156.444271 L77.2979397,154.410603 L79.0602513,154.410603 C80.0778392,154.410603 80.6371357,154.760352 80.6371357,155.408593 C80.6371357,156.047789 80.0838693,156.444271 79.191407,156.444271 L79.191407,156.444271 Z M79.0527136,151.914121 C79.8441709,151.914121 80.3356281,152.269899 80.3356281,152.857839 C80.3356281,153.501558 79.8290955,153.901055 79.0135176,153.901055 L77.2979397,153.901055 L77.2979397,151.914121 L79.0527136,151.914121 Z" id="6db15097" />
                <path d="M86.8742714,156.444724 L83.458191,156.444724 L83.458191,154.411055 L86.4883417,154.411055 C86.5260302,154.411055 86.5561809,154.379397 86.5561809,154.341709 L86.5561809,153.970854 C86.5561809,153.933166 86.5260302,153.901508 86.4883417,153.901508 L83.458191,153.901508 L83.458191,151.914573 L86.8350754,151.914573 C86.8727638,151.914573 86.9044221,151.882915 86.9044221,151.845226 L86.9044221,151.474372 C86.9044221,151.436683 86.8727638,151.405025 86.8350754,151.405025 L82.9863317,151.405025 C82.9486432,151.405025 82.9169849,151.436683 82.9169849,151.474372 L82.9169849,156.884925 C82.9169849,156.922613 82.9486432,156.954271 82.9863317,156.954271 L86.8742714,156.954271 C86.9119598,156.954271 86.9436181,156.922613 86.9436181,156.884925 L86.9436181,156.51407 C86.9436181,156.476382 86.9119598,156.444724 86.8742714,156.444724" id="54cfdab0" />
                <path d="M91.2494472,151.406533 C91.2388945,151.382412 91.2132663,151.365829 91.1876382,151.365829 L90.8017085,151.365829 C90.7745729,151.365829 90.7489447,151.382412 90.738392,151.406533 L88.2177889,156.856281 C88.2087437,156.877387 88.2102513,156.901508 88.2223116,156.922613 C88.2358794,156.942211 88.2569849,156.954271 88.2811055,156.954271 L88.6986935,156.954271 C88.7258291,156.954271 88.7499497,156.937688 88.7605025,156.913568 L89.4298492,155.439196 L92.5338693,155.439196 L93.2032161,156.913568 C93.2152764,156.937688 93.239397,156.954271 93.2665327,156.954271 L93.7067337,156.954271 C93.7308543,156.954271 93.7519598,156.942211 93.7655276,156.922613 C93.7775879,156.901508 93.7790955,156.877387 93.7700503,156.856281 L91.2494472,151.406533 Z M92.300201,154.937186 L89.6635176,154.937186 L90.9856281,152.042714 L92.300201,154.937186 Z" id="0d45f608" />
                <path d="M99.5892965,151.405327 L99.1867839,151.405327 C99.1490955,151.405327 99.1174372,151.435477 99.1174372,151.474673 L99.1174372,154.63598 C99.1174372,155.845025 98.4872864,156.538492 97.3867839,156.538492 C96.2666834,156.538492 95.6229648,155.82995 95.6229648,154.596784 L95.6229648,151.474673 C95.6229648,151.435477 95.5913065,151.405327 95.5536181,151.405327 L95.1526131,151.405327 C95.1149246,151.405327 95.0832663,151.435477 95.0832663,151.474673 L95.0832663,154.63598 C95.0832663,156.117889 95.9591457,157.038995 97.370201,157.038995 C98.7812563,157.038995 99.6586432,156.099799 99.6586432,154.589246 L99.6586432,151.474673 C99.6586432,151.435477 99.6269849,151.405327 99.5892965,151.405327" id="320eca78" />
                <path d="M105.478945,151.405327 L101.304573,151.405327 C101.266884,151.405327 101.235226,151.435477 101.235226,151.474673 L101.235226,151.845528 C101.235226,151.883216 101.266884,151.914874 101.304573,151.914874 L103.121156,151.914874 L103.121156,156.885226 C103.121156,156.922915 103.152814,156.954573 103.190503,156.954573 L103.593015,156.954573 C103.630704,156.954573 103.662362,156.922915 103.662362,156.885226 L103.662362,151.914874 L105.478945,151.914874 C105.516633,151.914874 105.548291,151.883216 105.548291,151.845528 L105.548291,151.474673 C105.548291,151.435477 105.516633,151.405327 105.478945,151.405327" id="eeebb772" />
                <path d="M111.762513,151.405327 L111.283116,151.405327 C111.260503,151.405327 111.239397,151.415879 111.227337,151.435477 L109.249447,154.259095 L107.282111,151.435477 C107.268543,151.415879 107.247437,151.405327 107.224824,151.405327 L106.722814,151.405327 C106.697186,151.405327 106.673065,151.420402 106.662513,151.443015 C106.650452,151.465628 106.65196,151.492764 106.667035,151.513869 L108.97206,154.765628 L108.97206,156.885226 C108.97206,156.922915 109.003719,156.954573 109.041407,156.954573 L109.44392,156.954573 C109.481608,156.954573 109.513266,156.922915 109.513266,156.885226 L109.513266,154.75809 L111.818291,151.513869 C111.833367,151.492764 111.834874,151.465628 111.824322,151.443015 C111.812261,151.420402 111.788141,151.405327 111.762513,151.405327" id="89d23cea" />
                <path d="M118.780251,151.312613 C117.03,151.312613 115.983769,152.770402 115.983769,154.195025 C115.983769,155.820151 117.179246,157.045779 118.765176,157.045779 C120.509397,157.045779 121.552613,155.601558 121.561658,154.19804 C121.566181,154.188995 121.567688,154.178442 121.567688,154.170905 C121.567688,154.163367 121.566181,154.154322 121.561658,154.146784 C121.552613,152.529196 120.360151,151.312613 118.780251,151.312613 M118.780251,156.545276 C117.522965,156.545276 116.538543,155.506583 116.538543,154.164874 C116.538543,152.824673 117.495829,151.813116 118.765176,151.813116 C120.022462,151.813116 121.006884,152.853317 121.006884,154.195025 C121.006884,155.535226 120.049598,156.545276 118.780251,156.545276" id="69d32eb4" />
                <path d="M127.252312,151.405327 L123.441256,151.405327 C123.403568,151.405327 123.37191,151.435477 123.37191,151.474673 L123.37191,156.885226 C123.37191,156.922915 123.403568,156.954573 123.441256,156.954573 L123.843769,156.954573 C123.881457,156.954573 123.913116,156.922915 123.913116,156.885226 L123.913116,154.503317 L126.90407,154.503317 C126.941759,154.503317 126.973417,154.473166 126.973417,154.43397 L126.973417,154.063116 C126.973417,154.025427 126.941759,153.995276 126.90407,153.995276 L123.913116,153.995276 L123.913116,151.914874 L127.252312,151.914874 C127.29,151.914874 127.321658,151.883216 127.321658,151.845528 L127.321658,151.474673 C127.321658,151.435477 127.29,151.405327 127.252312,151.405327" id="ebf6a176" />
                <path d="M135.568342,156.444724 L132.461307,156.444724 L132.461307,151.474372 C132.461307,151.436683 132.429648,151.405025 132.39196,151.405025 L131.989447,151.405025 C131.951759,151.405025 131.920101,151.436683 131.920101,151.474372 L131.920101,156.884925 C131.920101,156.922613 131.951759,156.954271 131.989447,156.954271 L135.568342,156.954271 C135.60603,156.954271 135.637688,156.922613 135.637688,156.884925 L135.637688,156.51407 C135.637688,156.476382 135.60603,156.444724 135.568342,156.444724" id="3c1278a2" />
                <path d="M137.809749,151.405327 L137.408744,151.405327 C137.369548,151.405327 137.339397,151.435477 137.339397,151.474673 L137.339397,156.885226 C137.339397,156.922915 137.369548,156.954573 137.408744,156.954573 L137.809749,156.954573 C137.847437,156.954573 137.879095,156.922915 137.879095,156.885226 L137.879095,151.474673 C137.879095,151.435477 137.847437,151.405327 137.809749,151.405327" id="703c312c" />
                <path d="M143.86191,151.405327 L140.050854,151.405327 C140.013166,151.405327 139.981508,151.435477 139.981508,151.474673 L139.981508,156.885226 C139.981508,156.922915 140.013166,156.954573 140.050854,156.954573 L140.453367,156.954573 C140.491055,156.954573 140.522714,156.922915 140.522714,156.885226 L140.522714,154.503317 L143.513668,154.503317 C143.551357,154.503317 143.583015,154.473166 143.583015,154.43397 L143.583015,154.063116 C143.583015,154.025427 143.551357,153.995276 143.513668,153.995276 L140.522714,153.995276 L140.522714,151.914874 L143.86191,151.914874 C143.899598,151.914874 143.931256,151.883216 143.931256,151.845528 L143.931256,151.474673 C143.931256,151.435477 143.899598,151.405327 143.86191,151.405327" id="b7791cee" />
                <path d="M149.589347,156.444724 L146.171759,156.444724 L146.171759,154.411055 L149.20191,154.411055 C149.241106,154.411055 149.271256,154.379397 149.271256,154.341709 L149.271256,153.970854 C149.271256,153.933166 149.241106,153.901508 149.20191,153.901508 L146.171759,153.901508 L146.171759,151.914573 L149.550151,151.914573 C149.587839,151.914573 149.619497,151.882915 149.619497,151.845226 L149.619497,151.474372 C149.619497,151.436683 149.587839,151.405025 149.550151,151.405025 L145.701407,151.405025 C145.663719,151.405025 145.63206,151.436683 145.63206,151.474372 L145.63206,156.884925 C145.63206,156.922613 145.663719,156.954271 145.701407,156.954271 L149.589347,156.954271 C149.627035,156.954271 149.658693,156.922613 149.658693,156.884925 L149.658693,156.51407 C149.658693,156.476382 149.627035,156.444724 149.589347,156.444724" id="c81d417c" />
            </g>
        </g>
    </g>
</svg>