<svg xmlns="http://www.w3.org/2000/svg" height="667px" version="1.1" viewBox="0 0 375 667" width="375px">
    
    <title />
    <desc>Created with Sketch.</desc>
    <defs>
        <filter filterUnits="objectBoundingBox" height="200%" id="filter-1" width="200%" x="-50%" y="-50%">
            <feGaussianBlur in="SourceGraphic" stdDeviation="50" />
        </filter>
    </defs>
    <g fill="none" fill-rule="evenodd" id="75b48fdf" stroke="none" stroke-width="1">
        <g id="d540b679">
            <g id="b18538e6" transform="translate(0.000000, -97.000000)">
                <rect fill="#722047" height="50.8875878" id="81bc3885" width="375" x="0" y="96.1124122" />
                <ellipse cx="187.5" cy="264.056206" fill="#D8D8D8" fill-opacity="0.2" filter="url(#filter-1)" id="10fce642" rx="187.5" ry="264.056206" />
            </g>
            <rect fill="#F6F1E7" fill-opacity="0.45" height="617" id="7620afd8" width="375" x="0" y="50" />
            <text fill="#0E0E0E" font-family=".HelveticaNeueDeskInterface-Regular, .Helvetica Neue DeskInterface" font-size="14" font-weight="normal" id="5af86790" letter-spacing="-0.0233333353">
                <tspan x="20" y="86">We know that you trust </tspan>
                <tspan x="20" y="103">malabargoldanddiamonds.com. This is the reason </tspan>
                <tspan x="20" y="120">we have set high standards for our secured </tspan>
                <tspan x="20" y="137">transactions and adherence to the customer </tspan>
                <tspan x="20" y="154">information privacy. Please note that our privacy </tspan>
                <tspan x="20" y="171">policy will be subject to changes at any point in time </tspan>
                <tspan x="20" y="188">without any prior notice.</tspan>
                <tspan x="20" y="215">WE REQUEST YOU TO REFER THE BELOW TERMS </tspan>
                <tspan x="20" y="232">OF OUR PRIVACY POLICY</tspan>
                <tspan x="20" y="259">PERSONAL INFORMATION THAT ARE COLLECTED</tspan>
                <tspan x="20" y="286">We usually collect personal information like name, </tspan>
                <tspan x="20" y="303">email id, contact number and such other details </tspan>
                <tspan x="20" y="320">during the process of setting up an account with </tspan>
                <tspan x="20" y="337">malabargoldanddiamonds.com. When browsing a </tspan>
                <tspan x="20" y="354">few sections of site without you being a registered </tspan>
                <tspan x="20" y="371">member, you will not be able to place an order. We </tspan>
                <tspan x="20" y="388">use your contact details so that we can intimate you </tspan>
                <tspan x="20" y="405">about the timely offers, which are based on the </tspan>
                <tspan x="20" y="422">previous orders and also depends on your interest.</tspan>
                <tspan x="20" y="449">USE OF INFORMATION</tspan>
                <tspan x="20" y="476">We make use of the personal details for providing </tspan>
                <tspan x="20" y="493">you with service requests. For various purposes like </tspan>
                <tspan x="20" y="510">troubleshooting problems, collection of fees, for </tspan>
                <tspan x="20" y="527">surveys and for providing information on various </tspan>
                <tspan x="20" y="544">offers, we need your personal information. We also </tspan>
                <tspan x="20" y="561">collect and analyze the demographic and profile </tspan>
                <tspan x="20" y="578">data about users activity in our website. We make </tspan>
                <tspan x="20" y="595">sure to identify and use the IP address for </tspan>
                <tspan x="20" y="612">diagnosing problems in our website.</tspan>
                <tspan x="20" y="639">SECURITY PRECAUTIONS</tspan>
                <tspan x="20" y="666">Our site is featured with strict security measures and </tspan>
                <tspan x="20" y="683">due to this, we help in protecting the loss, alteration </tspan>
                <tspan x="20" y="700">and misuse of information under our control. If in </tspan>
                <tspan x="20" y="717">case you want to change your access of personal </tspan>
                <tspan x="20" y="734">account information, we make sure to provide with </tspan>
                <tspan x="20" y="751">secure server. Once the information is with us, we </tspan>
                <tspan x="20" y="768">make sure to adhere to the stringent security </tspan>
                <tspan x="20" y="785">guidelines and protect the same against </tspan>
                <tspan x="20" y="802">unauthorized access.</tspan>
                <tspan x="20" y="829" />
                <tspan x="20" y="856">CHOICE/OPT-OUT</tspan>
                <tspan x="20" y="883">malabargoldanddiamonds.com provides to all the </tspan>
                <tspan x="20" y="900">users with a chance of opting out of promotional and </tspan>
                <tspan x="20" y="917">marketing related services from us on behalf of our </tspan>
                <tspan x="20" y="934">partners, after you set up an account.</tspan>
            </text>
            <g id="67a760dd" transform="translate(10.000000, 21.000000)">
                <text fill="#FFFFFF" font-family=".HelveticaNeueDeskInterface-Regular, .Helvetica Neue DeskInterface" font-size="12" font-weight="normal" id="22d4d177" letter-spacing="-0.0200000014">
                    <tspan x="5.6497561" y="12">Back</tspan>
                </text>
                <polyline id="352fcc87" points="4.83118965 3 0 7.83118965 4.8954521 11.8101948" stroke="#FFFFFF" />
            </g>
            <path d="M0,50.25 L375,50.25" id="fc65dc74" opacity="0.5" stroke="#A75481" stroke-linecap="square" stroke-width="0.5" />
            <g fill="#FFFFFF" id="1037719e" transform="translate(314.000000, 19.000000)">
                <g id="5772d3e0" transform="translate(0.197728, 0.319382)">
                    <g id="f104cb26">
                        <path d="M15.2792801,12.2577638 L15.1003025,12.1661024 C13.4162106,11.3033378 13.1284674,10.1431049 13.0844805,9.71641738 L13.0935704,5.9166801 C12.8686208,3.52901627 11.0817709,1.65147933 8.75642121,1.18271682 L8.75642121,1.08060009 C8.75647345,0.483734886 8.25752001,0 7.64347974,0 C7.02870809,0 6.53079947,0.483734886 6.53079947,1.08065084 L6.53079947,1.17200776 C4.01842709,1.66421854 2.1194681,3.82420063 2.1194681,6.40858636 C2.1194681,6.56744589 2.1422974,9.43656068 2.1443348,9.68804598 C2.08122771,10.27877 1.74108681,11.3695208 0.186604719,12.1661024 L0.00762718056,12.2577638 L0.00762718056,14.8352978 L5.34665357,14.8352978 C5.63575506,15.6067055 6.55430791,16.171342 7.64347974,16.171342 C8.73228588,16.171342 9.65089097,15.6073653 9.93999246,14.8352978 L15.2790188,14.8352978 L15.2792801,12.2577638 L15.2792801,12.2577638 L15.2792801,12.2577638 Z M14.6077747,14.1829079 L0.679132515,14.1829079 L0.679132515,12.6475534 C2.37362038,11.7077952 2.74531483,10.427225 2.81411618,9.73372444 L2.81578789,9.69982087 C2.81578789,9.69982087 2.79092119,6.57429766 2.79092119,6.40792656 C2.79092119,3.82161218 4.95646582,1.71801761 7.61824735,1.71801761 C10.1303063,1.71801761 12.1964364,3.54794745 12.4237368,5.94408718 L12.415326,9.74544857 C12.4690297,10.2921182 12.7937073,11.6435408 14.6080882,12.6468936 L14.6080882,14.1829079 L14.6077747,14.1829079 L14.6077747,14.1829079 Z" id="6f5fe2e8" />
                        <text font-family=".HelveticaNeueDeskInterface-Regular, .Helvetica Neue DeskInterface" font-size="7" font-weight="normal" id="485ff039" letter-spacing="-0.0116666667">
                            <tspan x="3.76381562" y="11.156808">15</tspan>
                        </text>
                    </g>
                </g>
            </g>
            <path d="M352.226057,32.4521139 C353.744607,32.4521139 355.125108,31.9137187 356.201898,31.0025884 L361.03365,35.8343399 C361.14409,35.94478 361.28214,36 361.433995,36 C361.58585,36 361.7239,35.94478 361.83434,35.8343399 C362.05522,35.6134599 362.05522,35.2545298 361.83434,35.0336497 L357.002588,30.2018982 C357.899914,29.1251079 358.452114,27.7308024 358.452114,26.2260569 C358.452114,22.7886109 355.663503,20 352.226057,20 C348.802416,20 346,22.8024159 346,26.2260569 C346,29.663503 348.802416,32.4521139 352.226057,32.4521139 L352.226057,32.4521139 Z M352.226057,21.1320104 C355.042278,21.1320104 357.320104,23.4236411 357.320104,26.2260569 C357.320104,29.0422778 355.042278,31.3201035 352.226057,31.3201035 C349.409836,31.3201035 347.13201,29.0284728 347.13201,26.2260569 C347.13201,23.4236411 349.423641,21.1320104 352.226057,21.1320104 L352.226057,21.1320104 Z" fill="#FFFFFF" id="dc2b9758" />
            <text fill="#FFFFFF" font-family=".HelveticaNeueDeskInterface-Regular, .Helvetica Neue DeskInterface" font-size="17" font-weight="normal" id="04f14aac" letter-spacing="-0.0283333361">
                <tspan x="111.621044" y="34">Terms &amp; Conditions</tspan>
            </text>
        </g>
    </g>
</svg>