<svg xmlns="http://www.w3.org/2000/svg" height="667px" version="1.1" viewBox="0 0 375 667" width="375px">
    
    <title />
    <desc>Created with Sketch.</desc>
    <defs>
        <filter filterUnits="objectBoundingBox" height="200%" id="filter-1" width="200%" x="-50%" y="-50%">
            <feGaussianBlur in="SourceGraphic" stdDeviation="50" />
        </filter>
    </defs>
    <g fill="none" fill-rule="evenodd" id="1099d4e7" stroke="none" stroke-width="1">
        <g id="f0ea5441">
            <rect fill="#722047" height="667" id="7e4324c5" width="375" x="0" y="1" />
            <g fill="#9E9068" id="2270b43f" transform="translate(88.000000, 230.000000)">
                <path d="M54.517,49.608 C54.517,24.856 74.583,4.792 99.333,4.792 C124.085,4.792 144.151,24.856 144.151,49.608 C144.151,74.36 124.085,94.424 99.333,94.424 C74.583,94.424 54.517,74.36 54.517,49.608 M99.333,0.002 C71.937,0.002 49.727,22.212 49.727,49.608 C49.727,77.004 71.937,99.214 99.333,99.214 C126.731,99.214 148.941,77.004 148.941,49.608 C148.941,22.212 126.731,0.002 99.333,0.002" id="ebaeca4e" />
                <path d="M96.1848,57.7924 C96.1848,59.5324 97.5948,60.9404 99.3348,60.9404 C101.0728,60.9404 102.4828,59.5324 102.4828,57.7924 C102.4828,56.0524 101.0728,54.6424 99.3348,54.6424 C97.5948,54.6424 96.1848,56.0524 96.1848,57.7924 L96.1848,57.7924 Z M122.7828,21.9844 C122.5628,21.9844 122.3568,22.0724 122.2048,22.2224 L99.2888,45.1204 L76.3848,22.2264 C76.2328,22.0744 76.0248,21.9844 75.8008,21.9844 L72.5808,21.9844 C72.1248,21.9844 71.7548,22.3544 71.7548,22.8104 L71.7548,76.4044 C71.7548,76.8604 72.1248,77.2304 72.5808,77.2304 L75.6368,77.2304 C76.0928,77.2304 76.4628,76.8604 76.4628,76.4044 L76.4628,28.9224 L95.9768,48.4324 L90.2108,54.1984 C94.0968,54.1984 96.7468,54.2924 99.2908,51.7444 C101.8348,54.2924 104.4848,54.1984 108.3688,54.1984 L102.6028,48.4324 L122.1228,28.9004 L122.1228,76.4044 C122.1228,76.8604 122.4928,77.2304 122.9488,77.2304 L126.0868,77.2304 C126.5428,77.2304 126.9128,76.8604 126.9128,76.4044 L126.9128,22.8104 C126.9128,22.3544 126.5428,21.9844 126.0868,21.9844 L122.7828,21.9844 Z" id="0cf08909" />
                <path d="M24.4318,125.191 L22.6538,125.191 C22.5338,125.191 22.4218,125.251 22.3538,125.351 L12.4578,139.929 L2.5618,125.351 C2.4938,125.251 2.3818,125.191 2.2618,125.191 L0.4838,125.191 C0.2838,125.191 0.1218,125.353 0.1218,125.553 L0.1218,150.953 C0.1218,151.153 0.2838,151.315 0.4838,151.315 L2.2978,151.315 C2.4998,151.315 2.6618,151.153 2.6618,150.953 L2.6618,130.061 L12.0498,143.719 C12.1178,143.819 12.2298,143.877 12.3498,143.877 L12.4938,143.877 C12.6138,143.877 12.7258,143.819 12.7938,143.719 L22.1818,130.061 L22.1818,150.953 C22.1818,151.153 22.3438,151.315 22.5458,151.315 L24.4318,151.315 C24.6318,151.315 24.7938,151.153 24.7938,150.953 L24.7938,125.553 C24.7938,125.353 24.6318,125.191 24.4318,125.191" id="09620a9c" />
                <path d="M45.5862,125.22 C45.5262,125.092 45.3982,125.01 45.2562,125.01 L43.4422,125.01 C43.3022,125.01 43.1722,125.092 43.1142,125.22 L31.2842,150.8 C31.2322,150.912 31.2422,151.044 31.3082,151.148 C31.3742,151.252 31.4902,151.316 31.6142,151.316 L33.5742,151.316 C33.7162,151.316 33.8442,151.232 33.9042,151.102 L37.0362,144.204 L51.5542,144.204 L54.6862,151.102 C54.7462,151.232 54.8742,151.316 55.0182,151.316 L57.0862,151.316 C57.2102,151.316 57.3242,151.252 57.3902,151.148 C57.4582,151.044 57.4662,150.912 57.4142,150.8 L45.5862,125.22 Z M50.4262,141.772 L38.1662,141.772 L44.3122,128.316 L50.4262,141.772 Z" id="67c31cf9" />
                <path d="M81.0668,148.8482 L66.5168,148.8482 L66.5168,125.5542 C66.5168,125.3542 66.3548,125.1902 66.1548,125.1902 L64.2668,125.1902 C64.0668,125.1902 63.9048,125.3542 63.9048,125.5542 L63.9048,150.9522 C63.9048,151.1522 64.0668,151.3162 64.2668,151.3162 L81.0668,151.3162 C81.2668,151.3162 81.4288,151.1522 81.4288,150.9522 L81.4288,149.2102 C81.4288,149.0102 81.2668,148.8482 81.0668,148.8482" id="83f6baca" />
                <path d="M100.595,125.22 C100.535,125.092 100.407,125.01 100.265,125.01 L98.451,125.01 C98.311,125.01 98.181,125.092 98.123,125.22 L86.293,150.8 C86.241,150.912 86.251,151.044 86.317,151.148 C86.383,151.252 86.499,151.316 86.623,151.316 L88.583,151.316 C88.725,151.316 88.853,151.232 88.913,151.102 L92.045,144.204 L106.563,144.204 L109.695,151.102 C109.755,151.232 109.883,151.316 110.027,151.316 L112.095,151.316 C112.217,151.316 112.333,151.252 112.401,151.148 C112.467,151.044 112.475,150.912 112.423,150.8 L100.595,125.22 Z M105.435,141.772 L93.175,141.772 L99.321,128.316 L105.435,141.772 Z" id="d79d78af" />
                <path d="M134.704,137.817 C136.534,136.853 138.362,135.083 138.362,131.867 L138.362,131.795 C138.362,127.783 134.986,125.191 129.762,125.191 L119.276,125.191 C119.076,125.191 118.914,125.353 118.914,125.553 L118.914,150.953 C118.914,151.153 119.076,151.315 119.276,151.315 L130.306,151.315 C136.06,151.315 139.778,148.453 139.778,144.023 L139.778,143.949 C139.778,141.045 138.028,138.939 134.704,137.817 M130.38,148.849 L121.526,148.849 L121.526,139.379 L129.762,139.379 C134.512,139.379 137.128,141.001 137.128,143.949 L137.128,144.023 C137.128,146.999 134.542,148.849 130.38,148.849 M129.544,136.911 L121.526,136.911 L121.526,127.659 L129.726,127.659 C133.474,127.659 135.714,129.273 135.714,131.977 L135.714,132.049 C135.714,135.047 133.35,136.911 129.544,136.911" id="51c13bfd" />
                <path d="M158.8202,125.22 C158.7602,125.092 158.6322,125.01 158.4902,125.01 L156.6762,125.01 C156.5342,125.01 156.4062,125.092 156.3482,125.22 L144.5182,150.8 C144.4662,150.912 144.4762,151.044 144.5422,151.148 C144.6082,151.252 144.7242,151.316 144.8482,151.316 L146.8082,151.316 C146.9502,151.316 147.0782,151.232 147.1382,151.102 L150.2702,144.204 L164.7882,144.204 L167.9202,151.102 C167.9802,151.232 168.1082,151.316 168.2522,151.316 L170.3202,151.316 C170.4422,151.316 170.5582,151.252 170.6262,151.148 C170.6922,151.044 170.7002,150.912 170.6482,150.8 L158.8202,125.22 Z M163.6602,141.772 L151.4002,141.772 L157.5462,128.316 L163.6602,141.772 Z" id="fbd73a8b" />
                <path d="M198.4706,150.7308 L190.4626,140.3668 C194.9486,139.5588 197.6026,136.7808 197.6026,132.8468 L197.6026,132.7748 C197.6026,128.2388 193.8126,125.1908 188.1686,125.1908 L177.5026,125.1908 C177.3006,125.1908 177.1386,125.3528 177.1386,125.5528 L177.1386,150.9528 C177.1386,151.1528 177.3006,151.3148 177.5026,151.3148 L179.3886,151.3148 C179.5886,151.3148 179.7506,151.1528 179.7506,150.9528 L179.7506,140.7928 L187.5186,140.7928 L195.5006,151.1728 C195.5706,151.2628 195.6766,151.3148 195.7886,151.3148 L198.1846,151.3148 C198.3226,151.3148 198.4486,151.2368 198.5086,151.1128 C198.5706,150.9888 198.5546,150.8408 198.4706,150.7308 L198.4706,150.7308 Z M179.7506,127.6588 L188.0606,127.6588 C192.4006,127.6588 194.9906,129.5988 194.9906,132.8468 L194.9906,132.9188 C194.9906,136.2248 192.2286,138.3628 187.9506,138.3628 L179.7506,138.3628 L179.7506,127.6588 Z" id="434ee644" />
                <path d="M12.1356,167.1382 L6.7756,167.1382 C6.6756,167.1382 6.5936,167.2202 6.5936,167.3202 L6.5936,168.2262 C6.5936,168.3262 6.6756,168.4062 6.7756,168.4062 L11.0096,168.4062 L11.0096,171.9342 C10.1576,172.6262 8.6736,173.3462 6.9836,173.3462 C3.7056,173.3462 1.5036,171.0242 1.5036,167.5662 L1.5036,167.5282 C1.5036,164.3162 3.8196,161.8022 6.7756,161.8022 C8.8576,161.8022 10.0296,162.5802 10.9036,163.3422 C10.9396,163.3742 10.9836,163.3882 11.0336,163.3862 C11.0816,163.3842 11.1276,163.3622 11.1596,163.3242 L11.8016,162.5882 C11.8336,162.5522 11.8496,162.5042 11.8456,162.4542 C11.8416,162.4062 11.8176,162.3602 11.7796,162.3302 C10.2556,161.0662 8.8216,160.5522 6.8336,160.5522 C2.6316,160.5522 0.1216,164.1182 0.1216,167.5662 L0.1216,167.6022 C0.1216,171.7102 2.9276,174.5782 6.9456,174.5782 C9.6796,174.5782 11.5696,173.1602 12.2556,172.5502 C12.2956,172.5162 12.3176,172.4662 12.3176,172.4162 L12.3176,167.3202 C12.3176,167.2202 12.2356,167.1382 12.1356,167.1382" id="adcd3792" />
                <path d="M22.7034,160.552 C18.4194,160.552 15.8594,164.118 15.8594,167.566 L15.8594,167.602 C15.8594,171.58 18.7854,174.578 22.6654,174.578 C26.9274,174.578 29.4834,171.046 29.5094,167.616 C29.5274,167.57 29.5274,167.522 29.5094,167.476 C29.4834,163.526 26.5674,160.552 22.7034,160.552 M22.7034,173.328 C19.6414,173.328 17.2414,170.796 17.2414,167.566 L17.2414,167.528 C17.2414,164.264 19.5734,161.802 22.6654,161.802 C25.7274,161.802 28.1274,164.334 28.1274,167.566 L28.1274,167.602 C28.1274,170.866 25.7954,173.328 22.7034,173.328" id="73356eba" />
                <path d="M42.3482,173.083 L34.7742,173.083 L34.7742,160.959 C34.7742,160.859 34.6922,160.779 34.5922,160.779 L33.6102,160.779 C33.5102,160.779 33.4282,160.859 33.4282,160.959 L33.4282,174.171 C33.4282,174.271 33.5102,174.351 33.6102,174.351 L42.3482,174.351 C42.4482,174.351 42.5302,174.271 42.5302,174.171 L42.5302,173.265 C42.5302,173.165 42.4482,173.083 42.3482,173.083" id="b929377e" />
                <path d="M50.6326,160.7784 L46.2346,160.7784 C46.1346,160.7784 46.0546,160.8604 46.0546,160.9604 L46.0546,174.1704 C46.0546,174.2704 46.1346,174.3524 46.2346,174.3524 L50.6326,174.3524 C54.8066,174.3524 57.8346,171.4984 57.8346,167.5644 L57.8346,167.5264 C57.8346,163.6164 54.8066,160.7784 50.6326,160.7784 M50.6326,173.0824 L47.3986,173.0824 L47.3986,162.0464 L50.6326,162.0464 C54.0046,162.0464 56.4526,164.3684 56.4526,167.5644 L56.4526,167.6024 C56.4526,170.8304 54.0586,173.0824 50.6326,173.0824" id="c39c690e" />
                <path d="M75.3688,171.2666 C76.0148,170.3746 76.6348,169.2526 77.2608,167.8466 C77.2808,167.8006 77.2808,167.7506 77.2628,167.7046 C77.2448,167.6586 77.2088,167.6226 77.1628,167.6046 L76.2748,167.2466 C76.1828,167.2086 76.0788,167.2526 76.0408,167.3446 C75.5328,168.5446 75.0168,169.5266 74.4668,170.3386 L71.3448,167.1306 C73.4308,166.3486 74.4448,165.1986 74.4448,163.6206 C74.4448,161.9006 73.0308,160.5526 71.2248,160.5526 C69.2388,160.5526 67.7408,161.9286 67.7408,163.7526 C67.7408,164.9046 68.2308,165.7346 69.0848,166.7146 C66.9328,167.5746 65.7968,168.9406 65.7968,170.6786 C65.7968,172.9166 67.5808,174.5406 70.0368,174.5406 C71.7288,174.5406 73.1948,173.8206 74.5148,172.3426 L76.6628,174.5606 C76.6968,174.5966 76.7448,174.6166 76.7928,174.6166 C76.8328,174.6166 76.8748,174.6026 76.9088,174.5746 L77.6828,173.9326 C77.7208,173.9006 77.7448,173.8526 77.7468,173.8026 C77.7508,173.7526 77.7308,173.7026 77.6968,173.6666 L75.3688,171.2666 Z M71.1868,161.7446 C72.2788,161.7446 73.1008,162.5686 73.1008,163.6586 C73.1008,164.8126 72.2448,165.6586 70.4868,166.2426 C69.4148,165.0906 69.0848,164.4906 69.0848,163.7146 C69.0848,162.5726 69.9688,161.7446 71.1868,161.7446 L71.1868,161.7446 Z M70.0548,173.3286 C68.3668,173.3286 67.1408,172.1986 67.1408,170.6406 C67.1408,169.3246 68.1308,168.2486 69.9308,167.6046 L73.6408,171.4406 C72.5308,172.6926 71.3248,173.3286 70.0548,173.3286 L70.0548,173.3286 Z" id="eac277ad" />
                <path d="M90.5726,160.7784 L86.1746,160.7784 C86.0746,160.7784 85.9946,160.8604 85.9946,160.9604 L85.9946,174.1704 C85.9946,174.2704 86.0746,174.3524 86.1746,174.3524 L90.5726,174.3524 C94.7466,174.3524 97.7746,171.4984 97.7746,167.5644 L97.7746,167.5264 C97.7746,163.6164 94.7466,160.7784 90.5726,160.7784 M90.5726,173.0824 L87.3386,173.0824 L87.3386,162.0464 L90.5726,162.0464 C93.9446,162.0464 96.3926,164.3684 96.3926,167.5644 L96.3926,167.6024 C96.3926,170.8304 93.9986,173.0824 90.5726,173.0824" id="12b9c62d" />
                <path d="M102.9896,160.7784 L102.0076,160.7784 C101.9076,160.7784 101.8256,160.8604 101.8256,160.9604 L101.8256,174.1704 C101.8256,174.2704 101.9076,174.3524 102.0076,174.3524 L102.9896,174.3524 C103.0896,174.3524 103.1716,174.2704 103.1716,174.1704 L103.1716,160.9604 C103.1716,160.8604 103.0896,160.7784 102.9896,160.7784" id="2c47276f" />
                <path d="M114.1188,160.7894 C114.0888,160.7254 114.0248,160.6834 113.9548,160.6834 L113.0108,160.6834 C112.9388,160.6834 112.8748,160.7254 112.8448,160.7894 L106.6928,174.0934 C106.6668,174.1494 106.6728,174.2154 106.7048,174.2674 C106.7388,174.3194 106.7968,174.3514 106.8588,174.3514 L107.8768,174.3514 C107.9488,174.3514 108.0128,174.3094 108.0428,174.2454 L109.6748,170.6534 L117.2348,170.6534 L118.8648,174.2454 C118.8948,174.3094 118.9588,174.3514 119.0308,174.3514 L120.1068,174.3514 C120.1688,174.3514 120.2268,174.3194 120.2588,174.2674 C120.2928,174.2154 120.2968,174.1494 120.2708,174.0934 L114.1188,160.7894 Z M116.6548,169.4034 L110.2548,169.4034 L113.4628,162.3794 L116.6548,169.4034 Z" id="a2535483" />
                <path d="M136.2974,160.7784 L135.3734,160.7784 C135.3134,160.7784 135.2574,160.8084 135.2234,160.8584 L130.0694,168.4504 L124.9174,160.8584 C124.8834,160.8084 124.8274,160.7784 124.7654,160.7784 L123.8414,160.7784 C123.7414,160.7784 123.6614,160.8604 123.6614,160.9604 L123.6614,174.1704 C123.6614,174.2704 123.7414,174.3524 123.8414,174.3524 L124.7854,174.3524 C124.8854,174.3524 124.9674,174.2704 124.9674,174.1704 L124.9674,163.2804 L129.8634,170.4044 C129.8974,170.4544 129.9534,170.4824 130.0134,170.4824 L130.0894,170.4824 C130.1494,170.4824 130.2034,170.4544 130.2394,170.4044 L135.1354,163.2804 L135.1354,174.1704 C135.1354,174.2704 135.2154,174.3524 135.3154,174.3524 L136.2974,174.3524 C136.3974,174.3524 136.4794,174.2704 136.4794,174.1704 L136.4794,160.9604 C136.4794,160.8604 136.3974,160.7784 136.2974,160.7784" id="083b5f86" />
                <path d="M147.243,160.552 C142.959,160.552 140.399,164.118 140.399,167.566 L140.399,167.602 C140.399,171.58 143.325,174.578 147.205,174.578 C151.467,174.578 154.023,171.046 154.049,167.616 C154.067,167.57 154.067,167.522 154.049,167.476 C154.023,163.526 151.105,160.552 147.243,160.552 M147.243,173.328 C144.181,173.328 141.781,170.796 141.781,167.566 L141.781,167.528 C141.781,164.264 144.113,161.802 147.205,161.802 C150.267,161.802 152.667,164.334 152.667,167.566 L152.667,167.602 C152.667,170.866 150.335,173.328 147.243,173.328" id="8b15a049" />
                <path d="M169.1338,160.7784 L168.1898,160.7784 C168.0898,160.7784 168.0078,160.8604 168.0078,160.9604 L168.0078,171.9324 L159.2178,160.8464 C159.1818,160.8044 159.1298,160.7784 159.0738,160.7784 L158.1498,160.7784 C158.0498,160.7784 157.9678,160.8604 157.9678,160.9604 L157.9678,174.1704 C157.9678,174.2704 158.0498,174.3524 158.1498,174.3524 L159.0938,174.3524 C159.1938,174.3524 159.2758,174.2704 159.2758,174.1704 L159.2758,162.9524 L168.2558,174.2824 C168.2898,174.3264 168.3418,174.3524 168.3978,174.3524 L169.1338,174.3524 C169.2338,174.3524 169.3158,174.2704 169.3158,174.1704 L169.3158,160.9604 C169.3158,160.8604 169.2338,160.7784 169.1338,160.7784" id="71fdbdb5" />
                <path d="M178.3984,160.7784 L174.0024,160.7784 C173.9004,160.7784 173.8204,160.8604 173.8204,160.9604 L173.8204,174.1704 C173.8204,174.2704 173.9004,174.3524 174.0024,174.3524 L178.3984,174.3524 C182.5724,174.3524 185.6004,171.4984 185.6004,167.5644 L185.6004,167.5264 C185.6004,163.6164 182.5724,160.7784 178.3984,160.7784 M178.3984,173.0824 L175.1644,173.0824 L175.1644,162.0464 L178.3984,162.0464 C181.7704,162.0464 184.2184,164.3684 184.2184,167.5644 L184.2184,167.6024 C184.2184,170.8304 181.8264,173.0824 178.3984,173.0824" id="64e7bf71" />
                <path d="M194.061,166.8966 C190.947,166.2586 190.357,165.4526 190.357,164.1866 L190.357,164.1486 C190.357,162.8106 191.637,161.8386 193.401,161.8386 C194.889,161.8386 196.069,162.2866 197.227,163.2866 C197.265,163.3186 197.313,163.3346 197.363,163.3306 C197.411,163.3246 197.457,163.3006 197.487,163.2626 L198.109,162.4886 C198.141,162.4506 198.155,162.4046 198.149,162.3566 C198.143,162.3086 198.119,162.2646 198.083,162.2346 C196.627,161.0666 195.283,160.5906 193.439,160.5906 C190.915,160.5906 189.011,162.1606 189.011,164.2446 L189.011,164.2806 C189.011,166.3866 190.343,167.5166 193.611,168.1766 C196.629,168.7846 197.201,169.5706 197.201,170.8106 L197.201,170.8486 C197.201,172.2866 195.903,173.2906 194.043,173.2906 C192.217,173.2906 190.923,172.7546 189.429,171.3766 C189.393,171.3426 189.345,171.3246 189.297,171.3286 C189.247,171.3306 189.201,171.3526 189.169,171.3906 L188.529,172.1266 C188.463,172.2006 188.469,172.3146 188.543,172.3806 C190.217,173.8746 191.895,174.5406 193.987,174.5406 C196.671,174.5406 198.547,172.9846 198.547,170.7546 L198.547,170.7166 C198.547,168.6786 197.205,167.5366 194.061,166.8966" id="7d0514ff" />
                <path d="M6.337,206.591 C6.301,206.557 6.245,206.557 6.209,206.591 C5.423,207.367 4.725,207.683 3.801,207.683 C2.151,207.683 0.859,206.305 0.859,204.525 C0.859,202.747 2.119,201.407 3.791,201.407 C4.929,201.407 5.621,201.927 6.147,202.437 C6.185,202.471 6.241,202.471 6.277,202.435 L6.657,202.045 C6.673,202.027 6.683,202.003 6.683,201.979 C6.681,201.953 6.671,201.931 6.653,201.913 C5.885,201.209 5.107,200.741 3.801,200.741 C1.739,200.741 0.121,202.413 0.121,204.565 C0.121,206.721 1.695,208.349 3.781,208.349 C5.209,208.349 6.055,207.703 6.697,207.071 C6.713,207.053 6.723,207.029 6.723,207.005 C6.723,206.981 6.713,206.957 6.695,206.939 L6.337,206.591 Z" id="5c3b617f" />
                <path d="M14.025,207.55 L9.493,207.55 L9.493,204.852 L13.513,204.852 C13.563,204.852 13.603,204.81 13.603,204.76 L13.603,204.268 C13.603,204.218 13.563,204.176 13.513,204.176 L9.493,204.176 L9.493,201.54 L13.973,201.54 C14.025,201.54 14.065,201.498 14.065,201.448 L14.065,200.956 C14.065,200.906 14.025,200.864 13.973,200.864 L8.867,200.864 C8.817,200.864 8.775,200.906 8.775,200.956 L8.775,208.134 C8.775,208.184 8.817,208.226 8.867,208.226 L14.025,208.226 C14.075,208.226 14.117,208.184 14.117,208.134 L14.117,207.642 C14.117,207.592 14.075,207.55 14.025,207.55" id="05777cc3" />
                <path d="M21.2542,207.55 L17.1322,207.55 L17.1322,200.956 C17.1322,200.906 17.0902,200.864 17.0402,200.864 L16.5062,200.864 C16.4562,200.864 16.4142,200.906 16.4142,200.956 L16.4142,208.134 C16.4142,208.184 16.4562,208.226 16.5062,208.226 L21.2542,208.226 C21.3042,208.226 21.3462,208.184 21.3462,208.134 L21.3462,207.642 C21.3462,207.592 21.3042,207.55 21.2542,207.55" id="e3d59ea5" />
                <path d="M28.7808,207.55 L24.2488,207.55 L24.2488,204.852 L28.2688,204.852 C28.3188,204.852 28.3588,204.81 28.3588,204.76 L28.3588,204.268 C28.3588,204.218 28.3188,204.176 28.2688,204.176 L24.2488,204.176 L24.2488,201.54 L28.7288,201.54 C28.7808,201.54 28.8208,201.498 28.8208,201.448 L28.8208,200.956 C28.8208,200.906 28.7808,200.864 28.7288,200.864 L23.6228,200.864 C23.5728,200.864 23.5308,200.906 23.5308,200.956 L23.5308,208.134 C23.5308,208.184 23.5728,208.226 23.6228,208.226 L28.7808,208.226 C28.8308,208.226 28.8728,208.184 28.8728,208.134 L28.8728,207.642 C28.8728,207.592 28.8308,207.55 28.7808,207.55" id="613d9f5f" />
                <path d="M35.5942,204.4234 C36.1162,204.1554 36.6442,203.6554 36.6442,202.7194 C36.6442,201.5934 35.6962,200.8634 34.2262,200.8634 L31.2622,200.8634 C31.2122,200.8634 31.1702,200.9054 31.1702,200.9554 L31.1702,208.1334 C31.1702,208.1834 31.2122,208.2254 31.2622,208.2254 L34.3802,208.2254 C35.9982,208.2254 37.0442,207.4194 37.0442,206.1534 C37.0442,205.3314 36.5442,204.7374 35.5942,204.4234 L35.5942,204.4234 Z M34.4002,207.5494 L31.8882,207.5494 L31.8882,204.8514 L34.2262,204.8514 C35.5762,204.8514 36.3182,205.3154 36.3182,206.1754 C36.3182,207.0234 35.5842,207.5494 34.4002,207.5494 L34.4002,207.5494 Z M34.2162,201.5394 C35.2662,201.5394 35.9182,202.0114 35.9182,202.7914 C35.9182,203.6454 35.2462,204.1754 34.1642,204.1754 L31.8882,204.1754 L31.8882,201.5394 L34.2162,201.5394 Z" id="b299749f" />
                <path d="M43.078,205.1344 C44.35,204.9104 45.104,204.1284 45.104,202.9964 C45.104,201.7204 44.038,200.8644 42.45,200.8644 L39.434,200.8644 C39.384,200.8644 39.344,200.9044 39.344,200.9564 L39.344,208.1344 C39.344,208.1844 39.384,208.2264 39.434,208.2264 L39.968,208.2264 C40.018,208.2264 40.06,208.1844 40.06,208.1344 L40.06,205.2524 L42.27,205.2524 L44.53,208.1884 C44.548,208.2124 44.574,208.2264 44.602,208.2264 L45.28,208.2264 C45.314,208.2264 45.346,208.2044 45.362,208.1744 C45.378,208.1424 45.374,208.1064 45.352,208.0764 L43.078,205.1344 Z M40.06,201.5404 L42.418,201.5404 C43.652,201.5404 44.388,202.0924 44.388,203.0384 C44.388,203.9784 43.604,204.5864 42.388,204.5864 L40.06,204.5864 L40.06,201.5404 Z" id="25112ba9" />
                <path d="M50.941,200.866 C50.925,200.834 50.893,200.812 50.857,200.812 L50.345,200.812 C50.309,200.812 50.277,200.834 50.261,200.866 L46.919,208.096 C46.907,208.124 46.909,208.156 46.925,208.184 C46.943,208.21 46.971,208.226 47.003,208.226 L47.557,208.226 C47.593,208.226 47.625,208.204 47.639,208.172 L48.527,206.216 L52.645,206.216 L53.533,208.172 C53.547,208.204 53.581,208.226 53.617,208.226 L54.201,208.226 C54.233,208.226 54.261,208.21 54.277,208.184 C54.295,208.156 54.297,208.124 54.283,208.096 L50.941,200.866 Z M52.337,205.55 L48.837,205.55 L50.591,201.71 L52.337,205.55 Z" id="5e421de0" />
                <path d="M60.5888,200.8644 L55.0508,200.8644 C55.0008,200.8644 54.9608,200.9044 54.9608,200.9564 L54.9608,201.4484 C54.9608,201.4984 55.0008,201.5404 55.0508,201.5404 L57.4628,201.5404 L57.4628,208.1344 C57.4628,208.1844 57.5028,208.2264 57.5528,208.2264 L58.0868,208.2264 C58.1368,208.2264 58.1788,208.1844 58.1788,208.1344 L58.1788,201.5404 L60.5888,201.5404 C60.6388,201.5404 60.6808,201.4984 60.6808,201.4484 L60.6808,200.9564 C60.6808,200.9044 60.6388,200.8644 60.5888,200.8644" id="e9c334c0" />
                <path d="M68.1358,207.55 L63.6038,207.55 L63.6038,204.852 L67.6238,204.852 C67.6738,204.852 67.7138,204.81 67.7138,204.76 L67.7138,204.268 C67.7138,204.218 67.6738,204.176 67.6238,204.176 L63.6038,204.176 L63.6038,201.54 L68.0838,201.54 C68.1358,201.54 68.1758,201.498 68.1758,201.448 L68.1758,200.956 C68.1758,200.906 68.1358,200.864 68.0838,200.864 L62.9778,200.864 C62.9278,200.864 62.8858,200.906 62.8858,200.956 L62.8858,208.134 C62.8858,208.184 62.9278,208.226 62.9778,208.226 L68.1358,208.226 C68.1858,208.226 68.2278,208.184 68.2278,208.134 L68.2278,207.642 C68.2278,207.592 68.1858,207.55 68.1358,207.55" id="8efd5512" />
                <path d="M79.4872,200.8644 L73.9492,200.8644 C73.8992,200.8644 73.8592,200.9044 73.8592,200.9564 L73.8592,201.4484 C73.8592,201.4984 73.8992,201.5404 73.9492,201.5404 L76.3612,201.5404 L76.3612,208.1344 C76.3612,208.1844 76.4012,208.2264 76.4512,208.2264 L76.9852,208.2264 C77.0352,208.2264 77.0772,208.1844 77.0772,208.1344 L77.0772,201.5404 L79.4872,201.5404 C79.5372,201.5404 79.5792,201.4984 79.5792,201.4484 L79.5792,200.9564 C79.5792,200.9044 79.5372,200.8644 79.4872,200.8644" id="666f3705" />
                <path d="M87.5366,200.8644 L87.0026,200.8644 C86.9526,200.8644 86.9126,200.9044 86.9126,200.9564 L86.9126,204.1864 L82.5006,204.1864 L82.5006,200.9564 C82.5006,200.9044 82.4606,200.8644 82.4106,200.8644 L81.8766,200.8644 C81.8266,200.8644 81.7846,200.9044 81.7846,200.9564 L81.7846,208.1344 C81.7846,208.1844 81.8266,208.2264 81.8766,208.2264 L82.4106,208.2264 C82.4606,208.2264 82.5006,208.1844 82.5006,208.1344 L82.5006,204.8624 L86.9126,204.8624 L86.9126,208.1344 C86.9126,208.1844 86.9526,208.2264 87.0026,208.2264 L87.5366,208.2264 C87.5866,208.2264 87.6286,208.1844 87.6286,208.1344 L87.6286,200.9564 C87.6286,200.9044 87.5866,200.8644 87.5366,200.8644" id="4ca9ed24" />
                <path d="M95.5964,207.55 L91.0644,207.55 L91.0644,204.852 L95.0844,204.852 C95.1344,204.852 95.1744,204.81 95.1744,204.76 L95.1744,204.268 C95.1744,204.218 95.1344,204.176 95.0844,204.176 L91.0644,204.176 L91.0644,201.54 L95.5444,201.54 C95.5964,201.54 95.6364,201.498 95.6364,201.448 L95.6364,200.956 C95.6364,200.906 95.5964,200.864 95.5444,200.864 L90.4384,200.864 C90.3884,200.864 90.3464,200.906 90.3464,200.956 L90.3464,208.134 C90.3464,208.184 90.3884,208.226 90.4384,208.226 L95.5964,208.226 C95.6464,208.226 95.6884,208.184 95.6884,208.134 L95.6884,207.642 C95.6884,207.592 95.6464,207.55 95.5964,207.55" id="a05d884b" />
                <path d="M106.2546,204.4234 C106.7766,204.1554 107.3066,203.6554 107.3066,202.7194 C107.3066,201.5934 106.3566,200.8634 104.8866,200.8634 L101.9226,200.8634 C101.8726,200.8634 101.8306,200.9054 101.8306,200.9554 L101.8306,208.1334 C101.8306,208.1834 101.8726,208.2254 101.9226,208.2254 L105.0406,208.2254 C106.6586,208.2254 107.7066,207.4194 107.7066,206.1534 C107.7066,205.3314 107.2046,204.7374 106.2546,204.4234 L106.2546,204.4234 Z M105.0606,207.5494 L102.5486,207.5494 L102.5486,204.8514 L104.8866,204.8514 C106.2366,204.8514 106.9786,205.3154 106.9786,206.1754 C106.9786,207.0234 106.2446,207.5494 105.0606,207.5494 L105.0606,207.5494 Z M104.8766,201.5394 C105.9266,201.5394 106.5786,202.0114 106.5786,202.7914 C106.5786,203.6454 105.9066,204.1754 104.8246,204.1754 L102.5486,204.1754 L102.5486,201.5394 L104.8766,201.5394 Z" id="3332fdc6" />
                <path d="M115.2532,207.55 L110.7212,207.55 L110.7212,204.852 L114.7412,204.852 C114.7912,204.852 114.8312,204.81 114.8312,204.76 L114.8312,204.268 C114.8312,204.218 114.7912,204.176 114.7412,204.176 L110.7212,204.176 L110.7212,201.54 L115.2012,201.54 C115.2512,201.54 115.2932,201.498 115.2932,201.448 L115.2932,200.956 C115.2932,200.906 115.2512,200.864 115.2012,200.864 L110.0952,200.864 C110.0452,200.864 110.0032,200.906 110.0032,200.956 L110.0032,208.134 C110.0032,208.184 110.0452,208.226 110.0952,208.226 L115.2532,208.226 C115.3032,208.226 115.3452,208.184 115.3452,208.134 L115.3452,207.642 C115.3452,207.592 115.3032,207.55 115.2532,207.55" id="c719f116" />
                <path d="M121.0576,200.866 C121.0436,200.834 121.0096,200.812 120.9756,200.812 L120.4636,200.812 C120.4276,200.812 120.3936,200.834 120.3796,200.866 L117.0356,208.096 C117.0236,208.124 117.0256,208.156 117.0416,208.184 C117.0596,208.21 117.0876,208.226 117.1196,208.226 L117.6736,208.226 C117.7096,208.226 117.7416,208.204 117.7556,208.172 L118.6436,206.216 L122.7616,206.216 L123.6496,208.172 C123.6656,208.204 123.6976,208.226 123.7336,208.226 L124.3176,208.226 C124.3496,208.226 124.3776,208.21 124.3956,208.184 C124.4116,208.156 124.4136,208.124 124.4016,208.096 L121.0576,200.866 Z M122.4516,205.55 L118.9536,205.55 L120.7076,201.71 L122.4516,205.55 Z" id="82226388" />
                <path d="M132.1218,200.8644 L131.5878,200.8644 C131.5378,200.8644 131.4958,200.9044 131.4958,200.9564 L131.4958,205.1504 C131.4958,206.7544 130.6598,207.6744 129.1998,207.6744 C127.7138,207.6744 126.8598,206.7344 126.8598,205.0984 L126.8598,200.9564 C126.8598,200.9044 126.8178,200.8644 126.7678,200.8644 L126.2358,200.8644 C126.1858,200.8644 126.1438,200.9044 126.1438,200.9564 L126.1438,205.1504 C126.1438,207.1164 127.3058,208.3384 129.1778,208.3384 C131.0498,208.3384 132.2138,207.0924 132.2138,205.0884 L132.2138,200.9564 C132.2138,200.9044 132.1718,200.8644 132.1218,200.8644" id="6845265c" />
                <path d="M139.9354,200.8644 L134.3974,200.8644 C134.3474,200.8644 134.3054,200.9044 134.3054,200.9564 L134.3054,201.4484 C134.3054,201.4984 134.3474,201.5404 134.3974,201.5404 L136.8074,201.5404 L136.8074,208.1344 C136.8074,208.1844 136.8494,208.2264 136.8994,208.2264 L137.4334,208.2264 C137.4834,208.2264 137.5254,208.1844 137.5254,208.1344 L137.5254,201.5404 L139.9354,201.5404 C139.9854,201.5404 140.0274,201.4984 140.0274,201.4484 L140.0274,200.9564 C140.0274,200.9044 139.9854,200.8644 139.9354,200.8644" id="720d1ae4" />
                <path d="M148.2716,200.8644 L147.6356,200.8644 C147.6056,200.8644 147.5776,200.8784 147.5616,200.9044 L144.9376,204.6504 L142.3276,200.9044 C142.3096,200.8784 142.2816,200.8644 142.2516,200.8644 L141.5856,200.8644 C141.5516,200.8644 141.5196,200.8844 141.5056,200.9144 C141.4896,200.9444 141.4916,200.9804 141.5116,201.0084 L144.5696,205.3224 L144.5696,208.1344 C144.5696,208.1844 144.6116,208.2264 144.6616,208.2264 L145.1956,208.2264 C145.2456,208.2264 145.2876,208.1844 145.2876,208.1344 L145.2876,205.3124 L148.3456,201.0084 C148.3656,200.9804 148.3676,200.9444 148.3536,200.9144 C148.3376,200.8844 148.3056,200.8644 148.2716,200.8644" id="8d9eee00" />
                <path d="M157.5818,200.7414 C155.2598,200.7414 153.8718,202.6754 153.8718,204.5654 C153.8718,206.7214 155.4578,208.3474 157.5618,208.3474 C159.8758,208.3474 161.2598,206.4314 161.2718,204.5694 C161.2778,204.5574 161.2798,204.5434 161.2798,204.5334 C161.2798,204.5234 161.2778,204.5114 161.2718,204.5014 C161.2598,202.3554 159.6778,200.7414 157.5818,200.7414 M157.5818,207.6834 C155.9138,207.6834 154.6078,206.3054 154.6078,204.5254 C154.6078,202.7474 155.8778,201.4054 157.5618,201.4054 C159.2298,201.4054 160.5358,202.7854 160.5358,204.5654 C160.5358,206.3434 159.2658,207.6834 157.5818,207.6834" id="6088cca7" />
                <path d="M168.8214,200.8644 L163.7654,200.8644 C163.7154,200.8644 163.6734,200.9044 163.6734,200.9564 L163.6734,208.1344 C163.6734,208.1844 163.7154,208.2264 163.7654,208.2264 L164.2994,208.2264 C164.3494,208.2264 164.3914,208.1844 164.3914,208.1344 L164.3914,204.9744 L168.3594,204.9744 C168.4094,204.9744 168.4514,204.9344 168.4514,204.8824 L168.4514,204.3904 C168.4514,204.3404 168.4094,204.3004 168.3594,204.3004 L164.3914,204.3004 L164.3914,201.5404 L168.8214,201.5404 C168.8714,201.5404 168.9134,201.4984 168.9134,201.4484 L168.9134,200.9564 C168.9134,200.9044 168.8714,200.8644 168.8214,200.8644" id="ecf7155f" />
                <path d="M179.854,207.55 L175.732,207.55 L175.732,200.956 C175.732,200.906 175.69,200.864 175.64,200.864 L175.106,200.864 C175.056,200.864 175.014,200.906 175.014,200.956 L175.014,208.134 C175.014,208.184 175.056,208.226 175.106,208.226 L179.854,208.226 C179.904,208.226 179.946,208.184 179.946,208.134 L179.946,207.642 C179.946,207.592 179.904,207.55 179.854,207.55" id="d8363ce9" />
                <path d="M182.8276,200.8644 L182.2956,200.8644 C182.2436,200.8644 182.2036,200.9044 182.2036,200.9564 L182.2036,208.1344 C182.2036,208.1844 182.2436,208.2264 182.2956,208.2264 L182.8276,208.2264 C182.8776,208.2264 182.9196,208.1844 182.9196,208.1344 L182.9196,200.9564 C182.9196,200.9044 182.8776,200.8644 182.8276,200.8644" id="af29d28d" />
                <path d="M190.8568,200.8644 L185.8008,200.8644 C185.7508,200.8644 185.7088,200.9044 185.7088,200.9564 L185.7088,208.1344 C185.7088,208.1844 185.7508,208.2264 185.8008,208.2264 L186.3348,208.2264 C186.3848,208.2264 186.4268,208.1844 186.4268,208.1344 L186.4268,204.9744 L190.3948,204.9744 C190.4448,204.9744 190.4868,204.9344 190.4868,204.8824 L190.4868,204.3904 C190.4868,204.3404 190.4448,204.3004 190.3948,204.3004 L186.4268,204.3004 L186.4268,201.5404 L190.8568,201.5404 C190.9068,201.5404 190.9488,201.4984 190.9488,201.4484 L190.9488,200.9564 C190.9488,200.9044 190.9068,200.8644 190.8568,200.8644" id="ea1e32f8" />
                <path d="M198.4552,207.55 L193.9212,207.55 L193.9212,204.852 L197.9412,204.852 C197.9932,204.852 198.0332,204.81 198.0332,204.76 L198.0332,204.268 C198.0332,204.218 197.9932,204.176 197.9412,204.176 L193.9212,204.176 L193.9212,201.54 L198.4032,201.54 C198.4532,201.54 198.4952,201.498 198.4952,201.448 L198.4952,200.956 C198.4952,200.906 198.4532,200.864 198.4032,200.864 L193.2972,200.864 C193.2472,200.864 193.2052,200.906 193.2052,200.956 L193.2052,208.134 C193.2052,208.184 193.2472,208.226 193.2972,208.226 L198.4552,208.226 C198.5052,208.226 198.5472,208.184 198.5472,208.134 L198.5472,207.642 C198.5472,207.592 198.5052,207.55 198.4552,207.55" id="5d98b52a" />
            </g>
            <ellipse cx="187.5" cy="334.5" fill="#D8D8D8" fill-opacity="0.15" filter="url(#filter-1)" id="1b16c63e" rx="105" ry="161.875" />
        </g>
    </g>
</svg>